ISO-10303-21;
HEADER;
FILE_DESCRIPTION (( 'STEP AP214' ),
    '1' );
FILE_NAME ('CHSA3920R0003F.STEP',
    '2025-08-18T10:46:30',
    ( '' ),
    ( '' ),
    'SwSTEP 2.0',
    'SolidWorks 2020',
    '' );
FILE_SCHEMA (( 'AUTOMOTIVE_DESIGN' ));
ENDSEC;

DATA;
#1 = VECTOR ( 'NONE', #195, 1000.000000000000000 ) ;
#2 = VECTOR ( 'NONE', #401, 1000.000000000000000 ) ;
#3 = ORIENTED_EDGE ( 'NONE', *, *, #100, .F. ) ;
#4 = CARTESIAN_POINT ( 'NONE',  ( 2.499999999999982681, 0.5000000000001941780, 2.883540537866903009 ) ) ;
#5 = ORIENTED_EDGE ( 'NONE', *, *, #436, .F. ) ;
#6 = SURFACE_STYLE_FILL_AREA ( #631 ) ;
#7 = LINE ( 'NONE', #570, #649 ) ;
#8 = UNCERTAINTY_MEASURE_WITH_UNIT (LENGTH_MEASURE( 1.000000000000000082E-05 ), #281, 'distance_accuracy_value', 'NONE');
#9 = CARTESIAN_POINT ( 'NONE',  ( 10.00000000000002309, 1.573741137406207864E-13, 2.883540537866887021 ) ) ;
#10 = VECTOR ( 'NONE', #158, 1000.000000000000000 ) ;
#11 = FILL_AREA_STYLE_COLOUR ( '', #584 ) ;
#12 = PRODUCT ( 'CHSA3920R0003F', 'CHSA3920R0003F', '', ( #695 ) ) ;
#13 = CARTESIAN_POINT ( 'NONE',  ( 7.499999999999982236, 0.5000000000001941780, -2.316459462133211744 ) ) ;
#14 = VECTOR ( 'NONE', #728, 1000.000000000000000 ) ;
#15 = SURFACE_STYLE_FILL_AREA ( #147 ) ;
#16 = EDGE_CURVE ( 'NONE', #627, #402, #415, .T. ) ;
#17 = CARTESIAN_POINT ( 'NONE',  ( 1.734723475976807094E-14, 1.419999999999924878, -2.316459462133245939 ) ) ;
#18 = DIRECTION ( 'NONE',  ( -2.374738373674177696E-11, -1.000000000000000000, 4.038106667735628518E-14 ) ) ;
#19 = CARTESIAN_POINT ( 'NONE',  ( 2.499999999999982681, 0.5000000000001941780, 2.883540537866903009 ) ) ;
#20 = ADVANCED_FACE ( 'NONE', ( #732 ), #33, .T. ) ;
#21 = PLANE ( 'NONE',  #359 ) ;
#22 =( NAMED_UNIT ( * ) SI_UNIT ( $, .STERADIAN. ) SOLID_ANGLE_UNIT ( ) );
#23 = CARTESIAN_POINT ( 'NONE',  ( 7.714213562373016586, 1.919999999999829843, -2.316459462133207747 ) ) ;
#24 = VECTOR ( 'NONE', #777, 999.9999999999998863 ) ;
#25 = LINE ( 'NONE', #197, #154 ) ;
#26 = DIRECTION ( 'NONE',  ( 0.7071067811403438652, 5.208915393953459697E-14, 0.7071067812327512803 ) ) ;
#27 = PRODUCT_DEFINITION_CONTEXT ( 'detailed design', #146, 'design' ) ;
#28 = DIRECTION ( 'NONE',  ( -1.000000000000000000, -1.046385200709205369E-13, 1.054711873393898240E-14 ) ) ;
#29 = FACE_OUTER_BOUND ( 'NONE', #489, .T. ) ;
#30 = FILL_AREA_STYLE ('',( #805 ) ) ;
#31 = DIRECTION ( 'NONE',  ( -0.000000000000000000, 6.596835753714611364E-14, 1.000000000000000000 ) ) ;
#32 = EDGE_CURVE ( 'NONE', #119, #595, #801, .T. ) ;
#33 = PLANE ( 'NONE',  #617 ) ;
#34 = ORIENTED_EDGE ( 'NONE', *, *, #345, .T. ) ;
#35 = VERTEX_POINT ( 'NONE', #344 ) ;
#36 = DIRECTION ( 'NONE',  ( -0.5144957554273756895, -0.8574929257126346904, 5.112577028398846500E-14 ) ) ;
#37 = FACE_OUTER_BOUND ( 'NONE', #444, .T. ) ;
#38 = ORIENTED_EDGE ( 'NONE', *, *, #810, .T. ) ;
#39 = AXIS2_PLACEMENT_3D ( 'NONE', #669, #542, #536 ) ;
#40 = DIRECTION ( 'NONE',  ( -0.3030457633604530243, 0.5050762722668871163, -0.8081220356494839274 ) ) ;
#41 = VERTEX_POINT ( 'NONE', #150 ) ;
#42 = DIRECTION ( 'NONE',  ( -3.330669073875468635E-16, -4.257669634101658144E-14, -1.000000000000000000 ) ) ;
#43 = SURFACE_STYLE_FILL_AREA ( #302 ) ;
#44 = ORIENTED_EDGE ( 'NONE', *, *, #522, .F. ) ;
#45 = LINE ( 'NONE', #370, #125 ) ;
#46 = SURFACE_STYLE_FILL_AREA ( #102 ) ;
#47 = ORIENTED_EDGE ( 'NONE', *, *, #737, .F. ) ;
#48 = ORIENTED_EDGE ( 'NONE', *, *, #553, .F. ) ;
#49 = DIRECTION ( 'NONE',  ( -3.330669073875468635E-16, -4.257669634101658144E-14, -1.000000000000000000 ) ) ;
#50 = LINE ( 'NONE', #306, #541 ) ;
#51 = FACE_OUTER_BOUND ( 'NONE', #97, .T. ) ;
#52 = VECTOR ( 'NONE', #516, 1000.000000000000000 ) ;
#53 = EDGE_CURVE ( 'NONE', #618, #627, #270, .T. ) ;
#54 = ORIENTED_EDGE ( 'NONE', *, *, #386, .F. ) ;
#55 = CARTESIAN_POINT ( 'NONE',  ( 2.285786437626430523, 1.920000000000195772, 2.883540537866796427 ) ) ;
#56 = LINE ( 'NONE', #371, #504 ) ;
#57 = EDGE_LOOP ( 'NONE', ( #623, #686, #667, #44 ) ) ;
#58 = MECHANICAL_DESIGN_GEOMETRIC_PRESENTATION_REPRESENTATION (  '', ( #455 ), #420 ) ;
#59 = VERTEX_POINT ( 'NONE', #473 ) ;
#60 = PRESENTATION_STYLE_ASSIGNMENT (( #81 ) ) ;
#61 = AXIS2_PLACEMENT_3D ( 'NONE', #136, #702, #406 ) ;
#62 = DIRECTION ( 'NONE',  ( -1.000000000000000000, -0.000000000000000000, -0.000000000000000000 ) ) ;
#63 = VERTEX_POINT ( 'NONE', #591 ) ;
#64 =( LENGTH_UNIT ( ) NAMED_UNIT ( * ) SI_UNIT ( .MILLI., .METRE. ) );
#65 = LINE ( 'NONE', #705, #411 ) ;
#66 = FILL_AREA_STYLE_COLOUR ( '', #759 ) ;
#67 = CARTESIAN_POINT ( 'NONE',  ( 7.800000000000209432, -3.395427857867095659E-15, -2.316459462133135805 ) ) ;
#68 = DIRECTION ( 'NONE',  ( 0.000000000000000000, 0.000000000000000000, 1.000000000000000000 ) ) ;
#69 = UNCERTAINTY_MEASURE_WITH_UNIT (LENGTH_MEASURE( 1.000000000000000082E-05 ), #454, 'distance_accuracy_value', 'NONE');
#70 = LINE ( 'NONE', #708, #272 ) ;
#71 = EDGE_CURVE ( 'NONE', #698, #168, #789, .T. ) ;
#72 = ORIENTED_EDGE ( 'NONE', *, *, #53, .T. ) ;
#73 = PLANE ( 'NONE',  #277 ) ;
#74 = VECTOR ( 'NONE', #124, 1000.000000000000000 ) ;
#75 = CARTESIAN_POINT ( 'NONE',  ( 7.499999999999982236, 0.5000000000001941780, -2.316459462133211744 ) ) ;
#76 = ORIENTED_EDGE ( 'NONE', *, *, #628, .F. ) ;
#77 = EDGE_CURVE ( 'NONE', #806, #241, #204, .T. ) ;
#78 = LINE ( 'NONE', #330, #724 ) ;
#79 = CARTESIAN_POINT ( 'NONE',  ( 1.985786437626675172, 1.420000000000108731, -2.316459462133144687 ) ) ;
#80 = DIRECTION ( 'NONE',  ( -1.000000000000000000, 0.000000000000000000, 0.000000000000000000 ) ) ;
#81 = SURFACE_STYLE_USAGE ( .BOTH. , #503 ) ;
#82 = AXIS2_PLACEMENT_3D ( 'NONE', #465, #662, #735 ) ;
#83 = CARTESIAN_POINT ( 'NONE',  ( 7.499999999999982236, 1.920000000000195772, 2.883540537866986497 ) ) ;
#84 = DIRECTION ( 'NONE',  ( 1.000000000000000000, 1.297850715786807996E-13, -5.551115123125783935E-17 ) ) ;
#85 = VERTEX_POINT ( 'NONE', #357 ) ;
#86 = LINE ( 'NONE', #409, #475 ) ;
#87 = ADVANCED_FACE ( 'NONE', ( #37 ), #90, .F. ) ;
#88 = VECTOR ( 'NONE', #417, 1000.000000000000000 ) ;
#89 = FILL_AREA_STYLE ('',( #661 ) ) ;
#90 = PLANE ( 'NONE',  #82 ) ;
#91 =( NAMED_UNIT ( * ) SI_UNIT ( $, .STERADIAN. ) SOLID_ANGLE_UNIT ( ) );
#92 = FACE_OUTER_BOUND ( 'NONE', #173, .T. ) ;
#93 = CARTESIAN_POINT ( 'NONE',  ( 9.999999999999943157, 1.420000000000338991, 2.883540537866888798 ) ) ;
#94 = VERTEX_POINT ( 'NONE', #729 ) ;
#95 = LINE ( 'NONE', #356, #589 ) ;
#96 = MECHANICAL_DESIGN_GEOMETRIC_PRESENTATION_REPRESENTATION (  '', ( #355 ), #788 ) ;
#97 = EDGE_LOOP ( 'NONE', ( #416, #502, #419, #474 ) ) ;
#98 = AXIS2_PLACEMENT_3D ( 'NONE', #566, #621, #349 ) ;
#99 = COLOUR_RGB ( '',0.8392156862745098200, 0.4705882352941176405, 0.3686274509803921795 ) ;
#100 = EDGE_CURVE ( 'NONE', #268, #546, #407, .T. ) ;
#101 = CARTESIAN_POINT ( 'NONE',  ( 7.499999999999982236, 0.5000000000001941780, 2.883540537866903009 ) ) ;
#102 = FILL_AREA_STYLE ('',( #212 ) ) ;
#103 = EDGE_LOOP ( 'NONE', ( #237, #179, #219, #47 ) ) ;
#104 = CARTESIAN_POINT ( 'NONE',  ( 2.385244779468109755E-14, 1.420000000000171125, 2.883540537866805753 ) ) ;
#105 =( LENGTH_UNIT ( ) NAMED_UNIT ( * ) SI_UNIT ( .MILLI., .METRE. ) );
#106 =( NAMED_UNIT ( * ) SI_UNIT ( $, .STERADIAN. ) SOLID_ANGLE_UNIT ( ) );
#107 = ORIENTED_EDGE ( 'NONE', *, *, #187, .F. ) ;
#108 = MANIFOLD_SOLID_BREP ( 'Cut-Extrude1[2]', #593 ) ;
#109 = ORIENTED_EDGE ( 'NONE', *, *, #16, .F. ) ;
#110 = SURFACE_SIDE_STYLE ('',( #594 ) ) ;
#111 = CARTESIAN_POINT ( 'NONE',  ( 2.499999999999982681, 0.5000000000001941780, -2.316459462133211744 ) ) ;
#112 = ORIENTED_EDGE ( 'NONE', *, *, #378, .T. ) ;
#113 = MANIFOLD_SOLID_BREP ( 'Cut-Extrude1[1]', #723 ) ;
#114 = EDGE_CURVE ( 'NONE', #311, #168, #215, .T. ) ;
#115 = EDGE_LOOP ( 'NONE', ( #510, #672, #164, #438 ) ) ;
#116 =( LENGTH_UNIT ( ) NAMED_UNIT ( * ) SI_UNIT ( .MILLI., .METRE. ) );
#117 = VECTOR ( 'NONE', #814, 1000.000000000000000 ) ;
#118 = VECTOR ( 'NONE', #794, 1000.000000000000000 ) ;
#119 = VERTEX_POINT ( 'NONE', #111 ) ;
#120 = DIRECTION ( 'NONE',  ( -0.000000000000000000, -0.000000000000000000, 1.000000000000000000 ) ) ;
#121 = EDGE_LOOP ( 'NONE', ( #317, #519, #551, #721 ) ) ;
#122 = SURFACE_STYLE_FILL_AREA ( #578 ) ;
#123 = ORIENTED_EDGE ( 'NONE', *, *, #665, .F. ) ;
#124 = DIRECTION ( 'NONE',  ( -3.330669073875468635E-16, -4.257669634101658144E-14, -1.000000000000000000 ) ) ;
#125 = VECTOR ( 'NONE', #749, 1000.000000000000000 ) ;
#126 = CARTESIAN_POINT ( 'NONE',  ( 7.499999999999982236, 1.920000000000195772, -2.316459462133305447 ) ) ;
#127 = UNCERTAINTY_MEASURE_WITH_UNIT (LENGTH_MEASURE( 1.000000000000000082E-05 ), #429, 'distance_accuracy_value', 'NONE');
#128 = ORIENTED_EDGE ( 'NONE', *, *, #632, .T. ) ;
#129 = PLANE ( 'NONE',  #733 ) ;
#130 = CARTESIAN_POINT ( 'NONE',  ( 7.499999999999982236, 1.920000000000195772, -2.316459462133305447 ) ) ;
#131 = EDGE_CURVE ( 'NONE', #59, #539, #56, .T. ) ;
#132 = PLANE ( 'NONE',  #526 ) ;
#133 = PLANE ( 'NONE',  #201 ) ;
#134 = FACE_OUTER_BOUND ( 'NONE', #441, .T. ) ;
#135 = CARTESIAN_POINT ( 'NONE',  ( 1.734723475976807094E-14, 1.419999999999924878, -2.316459462133245939 ) ) ;
#136 = CARTESIAN_POINT ( 'NONE',  ( 7.499999999999983125, 0.5000000000001941780, -7.116459462133013503 ) ) ;
#137 = EDGE_CURVE ( 'NONE', #588, #63, #50, .T. ) ;
#138 = CARTESIAN_POINT ( 'NONE',  ( 2.499999999999982681, 0.5000000000001941780, 2.883540537866903009 ) ) ;
#139 = PRESENTATION_STYLE_ASSIGNMENT (( #253 ) ) ;
#140 = VECTOR ( 'NONE', #717, 1000.000000000000000 ) ;
#141 = CARTESIAN_POINT ( 'NONE',  ( 2.200000000000243094, 4.815500273304399536E-14, -2.316459462133137581 ) ) ;
#142 = ORIENTED_EDGE ( 'NONE', *, *, #545, .F. ) ;
#143 = DIRECTION ( 'NONE',  ( 1.000000000000000000, 8.493206138382417558E-15, -5.551115123125783935E-17 ) ) ;
#144 = FACE_OUTER_BOUND ( 'NONE', #229, .T. ) ;
#145 = LINE ( 'NONE', #395, #703 ) ;
#146 = APPLICATION_CONTEXT ( 'automotive_design' ) ;
#147 = FILL_AREA_STYLE ('',( #66 ) ) ;
#148 = VERTEX_POINT ( 'NONE', #239 ) ;
#149 = DIRECTION ( 'NONE',  ( -3.330669073875468635E-16, -4.257669634101658144E-14, -1.000000000000000000 ) ) ;
#150 = CARTESIAN_POINT ( 'NONE',  ( 2.200000000000278177, 2.267602772221547212E-13, 2.883540537866810638 ) ) ;
#151 = CARTESIAN_POINT ( 'NONE',  ( 7.499999999999983125, 1.920000000000195772, 2.883540537866986497 ) ) ;
#152 = DIRECTION ( 'NONE',  ( -3.330669073875468635E-16, -4.257669634101658144E-14, -1.000000000000000000 ) ) ;
#153 = CARTESIAN_POINT ( 'NONE',  ( 3.382710778154773834E-14, -1.907483388209440210E-13, -2.316459462133183766 ) ) ;
#154 = VECTOR ( 'NONE', #149, 1000.000000000000000 ) ;
#155 = CARTESIAN_POINT ( 'NONE',  ( 9.999999999999968026, 1.419999999999943530, -2.316459462133185987 ) ) ;
#156 = ORIENTED_EDGE ( 'NONE', *, *, #496, .T. ) ;
#157 = EDGE_CURVE ( 'NONE', #41, #806, #482, .T. ) ;
#158 = DIRECTION ( 'NONE',  ( -8.513773336695860620E-17, 1.000000000000000000, -4.294916622285421669E-14 ) ) ;
#159 = ORIENTED_EDGE ( 'NONE', *, *, #785, .F. ) ;
#160 = ADVANCED_FACE ( 'NONE', ( #520 ), #211, .T. ) ;
#161 = PLANE ( 'NONE',  #181 ) ;
#162 =( NAMED_UNIT ( * ) SI_UNIT ( $, .STERADIAN. ) SOLID_ANGLE_UNIT ( ) );
#163 = SURFACE_STYLE_USAGE ( .BOTH. , #177 ) ;
#164 = ORIENTED_EDGE ( 'NONE', *, *, #172, .F. ) ;
#165 = VECTOR ( 'NONE', #209, 1000.000000000000000 ) ;
#166 = DIRECTION ( 'NONE',  ( -3.330669073875468635E-16, -4.257669634101658144E-14, -1.000000000000000000 ) ) ;
#167 =( NAMED_UNIT ( * ) PLANE_ANGLE_UNIT ( ) SI_UNIT ( $, .RADIAN. ) );
#168 = VERTEX_POINT ( 'NONE', #19 ) ;
#169 = ORIENTED_EDGE ( 'NONE', *, *, #174, .F. ) ;
#170 = CARTESIAN_POINT ( 'NONE',  ( 2.499999999999982681, 0.5000000000001941780, 2.883540537866903009 ) ) ;
#171 = SURFACE_STYLE_USAGE ( .BOTH. , #688 ) ;
#172 = EDGE_CURVE ( 'NONE', #402, #225, #734, .T. ) ;
#173 = EDGE_LOOP ( 'NONE', ( #188, #430, #558, #544 ) ) ;
#174 = EDGE_CURVE ( 'NONE', #677, #311, #275, .T. ) ;
#175 = ORIENTED_EDGE ( 'NONE', *, *, #497, .T. ) ;
#176 = DIRECTION ( 'NONE',  ( 0.000000000000000000, 0.000000000000000000, -1.000000000000000000 ) ) ;
#177 = SURFACE_SIDE_STYLE ('',( #531 ) ) ;
#178 = STYLED_ITEM ( 'NONE', ( #466 ), #269 ) ;
#179 = ORIENTED_EDGE ( 'NONE', *, *, #655, .F. ) ;
#180 = CARTESIAN_POINT ( 'NONE',  ( 8.014213562373404542, 1.419999999999992157, -2.316459462133225955 ) ) ;
#181 = AXIS2_PLACEMENT_3D ( 'NONE', #680, #222, #40 ) ;
#182 = AXIS2_PLACEMENT_3D ( 'NONE', #284, #280, #339 ) ;
#183 = ADVANCED_FACE ( 'NONE', ( #29 ), #214, .T. ) ;
#184 = EDGE_LOOP ( 'NONE', ( #514, #112, #48, #259 ) ) ;
#185 = DIRECTION ( 'NONE',  ( 1.314951050497076646E-16, -4.280897734724536613E-14, -1.000000000000000000 ) ) ;
#186 = FACE_OUTER_BOUND ( 'NONE', #432, .T. ) ;
#187 = EDGE_CURVE ( 'NONE', #382, #664, #800, .T. ) ;
#188 = ORIENTED_EDGE ( 'NONE', *, *, #131, .F. ) ;
#189 = FACE_OUTER_BOUND ( 'NONE', #103, .T. ) ;
#190 =( NAMED_UNIT ( * ) PLANE_ANGLE_UNIT ( ) SI_UNIT ( $, .RADIAN. ) );
#191 = AXIS2_PLACEMENT_3D ( 'NONE', #449, #758, #308 ) ;
#192 = UNCERTAINTY_MEASURE_WITH_UNIT (LENGTH_MEASURE( 1.000000000000000082E-05 ), #213, 'distance_accuracy_value', 'NONE');
#193 = PLANE ( 'NONE',  #524 ) ;
#194 = ORIENTED_EDGE ( 'NONE', *, *, #137, .T. ) ;
#195 = DIRECTION ( 'NONE',  ( -8.513773336695860620E-17, 1.000000000000000000, -4.294916622285421669E-14 ) ) ;
#196 = EDGE_LOOP ( 'NONE', ( #574, #596, #38, #487 ) ) ;
#197 = CARTESIAN_POINT ( 'NONE',  ( 2.200000000000278177, 2.267602772221547212E-13, 2.883540537866810638 ) ) ;
#198 = CARTESIAN_POINT ( 'NONE',  ( 1.316875310038540858, 0.8418854708194601910, -2.316459462133258373 ) ) ;
#199 = DIRECTION ( 'NONE',  ( -3.330669073875468635E-16, -4.257669634101658144E-14, -1.000000000000000000 ) ) ;
#200 = CARTESIAN_POINT ( 'NONE',  ( 7.499999999999982236, 0.5000000000001941780, 2.883540537866903009 ) ) ;
#201 = AXIS2_PLACEMENT_3D ( 'NONE', #279, #582, #18 ) ;
#202 =( NAMED_UNIT ( * ) SI_UNIT ( $, .STERADIAN. ) SOLID_ANGLE_UNIT ( ) );
#203 = ORIENTED_EDGE ( 'NONE', *, *, #378, .F. ) ;
#204 = LINE ( 'NONE', #218, #10 ) ;
#205 = VECTOR ( 'NONE', #689, 1000.000000000000000 ) ;
#206 = DIRECTION ( 'NONE',  ( -3.106225200661044046E-14, 1.000000000000000000, -4.260293594646523374E-14 ) ) ;
#207 = VECTOR ( 'NONE', #36, 1000.000000000000114 ) ;
#208 = DIRECTION ( 'NONE',  ( -1.000000000000000000, -2.192550290370337406E-16, 3.302773315018324074E-16 ) ) ;
#209 = DIRECTION ( 'NONE',  ( -3.330669073875468635E-16, -4.257669634101658144E-14, -1.000000000000000000 ) ) ;
#210 = ORIENTED_EDGE ( 'NONE', *, *, #697, .T. ) ;
#211 = PLANE ( 'NONE',  #182 ) ;
#212 = FILL_AREA_STYLE_COLOUR ( '', #803 ) ;
#213 =( LENGTH_UNIT ( ) NAMED_UNIT ( * ) SI_UNIT ( .MILLI., .METRE. ) );
#214 = PLANE ( 'NONE',  #692 ) ;
#215 = LINE ( 'NONE', #610, #440 ) ;
#216 = STYLED_ITEM ( 'NONE', ( #418 ), #87 ) ;
#217 = CARTESIAN_POINT ( 'NONE',  ( 1.985786437626747558, 1.420000000000288809, 2.883540537866841724 ) ) ;
#218 = CARTESIAN_POINT ( 'NONE',  ( 0.000000000000000000, 5.377642775528101993E-14, 2.883540537866827957 ) ) ;
#219 = ORIENTED_EDGE ( 'NONE', *, *, #720, .T. ) ;
#220 = DIRECTION ( 'NONE',  ( 0.7071067812159357313, 4.290976326179765498E-14, -0.7071067811571591921 ) ) ;
#221 = AXIS2_PLACEMENT_3D ( 'NONE', #198, #185, #633 ) ;
#222 = DIRECTION ( 'NONE',  ( -0.8574929257123190540, -0.5144957554279019352, 2.131628207280300558E-14 ) ) ;
#223 = DIRECTION ( 'NONE',  ( 6.844027996453591509E-17, -1.000000000000000000, -2.370707110837043500E-11 ) ) ;
#224 =( GEOMETRIC_REPRESENTATION_CONTEXT ( 3 ) GLOBAL_UNCERTAINTY_ASSIGNED_CONTEXT ( ( #572 ) ) GLOBAL_UNIT_ASSIGNED_CONTEXT ( ( #105, #543, #367 ) ) REPRESENTATION_CONTEXT ( 'NONE', 'WORKASPACE' ) );
#225 = VERTEX_POINT ( 'NONE', #155 ) ;
#226 = EDGE_CURVE ( 'NONE', #539, #148, #469, .T. ) ;
#227 = FACE_OUTER_BOUND ( 'NONE', #57, .T. ) ;
#228 = EDGE_LOOP ( 'NONE', ( #533, #374, #54, #484 ) ) ;
#229 = EDGE_LOOP ( 'NONE', ( #159, #743, #354, #818, #820, #428, #479 ) ) ;
#230 = LINE ( 'NONE', #297, #373 ) ;
#231 = ORIENTED_EDGE ( 'NONE', *, *, #260, .F. ) ;
#232 = EDGE_CURVE ( 'NONE', #148, #365, #78, .T. ) ;
#233 = PRESENTATION_STYLE_ASSIGNMENT (( #681 ) ) ;
#234 = ORIENTED_EDGE ( 'NONE', *, *, #720, .F. ) ;
#235 = EDGE_CURVE ( 'NONE', #548, #384, #656, .T. ) ;
#236 = CLOSED_SHELL ( 'NONE', ( #87, #819, #576, #676, #585, #283 ) ) ;
#237 = ORIENTED_EDGE ( 'NONE', *, *, #597, .T. ) ;
#238 = CARTESIAN_POINT ( 'NONE',  ( 2.499999999999965361, 0.5000000000000501821, 2.883540537866839948 ) ) ;
#239 = CARTESIAN_POINT ( 'NONE',  ( 7.800000000000209432, -3.395427857867095659E-15, -2.316459462133135805 ) ) ;
#240 = CARTESIAN_POINT ( 'NONE',  ( 0.000000000000000000, 5.377642775528101993E-14, 2.883540537866827957 ) ) ;
#241 = VERTEX_POINT ( 'NONE', #583 ) ;
#242 = LINE ( 'NONE', #499, #332 ) ;
#243 = DIRECTION ( 'NONE',  ( 0.000000000000000000, 0.000000000000000000, 1.000000000000000000 ) ) ;
#244 = AXIS2_PLACEMENT_3D ( 'NONE', #256, #511, #565 ) ;
#245 = DIRECTION ( 'NONE',  ( 1.037849629799994194E-13, -1.000000000000000000, 4.310139382305118673E-14 ) ) ;
#246 = STYLED_ITEM ( 'NONE', ( #323 ), #676 ) ;
#247 = ORIENTED_EDGE ( 'NONE', *, *, #32, .F. ) ;
#248 = FILL_AREA_STYLE_COLOUR ( '', #448 ) ;
#249 = VECTOR ( 'NONE', #393, 1000.000000000000000 ) ;
#250 = EDGE_CURVE ( 'NONE', #588, #225, #86, .T. ) ;
#251 = VECTOR ( 'NONE', #404, 999.9999999999998863 ) ;
#252 = ORIENTED_EDGE ( 'NONE', *, *, #131, .T. ) ;
#253 = SURFACE_STYLE_USAGE ( .BOTH. , #521 ) ;
#254 = ORIENTED_EDGE ( 'NONE', *, *, #522, .T. ) ;
#255 = FACE_OUTER_BOUND ( 'NONE', #115, .T. ) ;
#256 = CARTESIAN_POINT ( 'NONE',  ( 7.499999999999982236, 1.920000000000195772, -2.316459462133305447 ) ) ;
#257 = CARTESIAN_POINT ( 'NONE',  ( 7.499999999999983125, 0.5000000000001941780, 2.883540537866986497 ) ) ;
#258 = VECTOR ( 'NONE', #290, 1000.000000000000000 ) ;
#259 = ORIENTED_EDGE ( 'NONE', *, *, #352, .F. ) ;
#260 = EDGE_CURVE ( 'NONE', #41, #599, #25, .T. ) ;
#261 = VECTOR ( 'NONE', #666, 1000.000000000000000 ) ;
#262 = EDGE_CURVE ( 'NONE', #546, #640, #782, .T. ) ;
#263 = CARTESIAN_POINT ( 'NONE',  ( 7.499999999999982236, 1.920000000000195772, 2.883540537866986497 ) ) ;
#264 = UNCERTAINTY_MEASURE_WITH_UNIT (LENGTH_MEASURE( 1.000000000000000082E-05 ), #282, 'distance_accuracy_value', 'NONE');
#265 = CARTESIAN_POINT ( 'NONE',  ( 2.499999999999982681, 1.920000000000195772, -2.316459462133305447 ) ) ;
#266 = DIRECTION ( 'NONE',  ( 0.000000000000000000, 1.000000000000000000, 5.894394909569073511E-14 ) ) ;
#267 = LINE ( 'NONE', #396, #315 ) ;
#268 = VERTEX_POINT ( 'NONE', #347 ) ;
#269 = ADVANCED_BREP_SHAPE_REPRESENTATION ( 'CHSA3920R0003F', ( #113, #108, #390, #715 ), #435 ) ;
#270 = LINE ( 'NONE', #598, #756 ) ;
#271 = CARTESIAN_POINT ( 'NONE',  ( 2.285786437626430523, 1.920000000000195772, 2.883540537866796427 ) ) ;
#272 = VECTOR ( 'NONE', #467, 1000.000000000000000 ) ;
#273 = LINE ( 'NONE', #392, #165 ) ;
#274 = ORIENTED_EDGE ( 'NONE', *, *, #421, .T. ) ;
#275 = LINE ( 'NONE', #414, #118 ) ;
#276 = PRODUCT_DEFINITION_SHAPE ( 'NONE', 'NONE',  #442 ) ;
#277 = AXIS2_PLACEMENT_3D ( 'NONE', #452, #206, #333 ) ;
#278 =( NAMED_UNIT ( * ) SI_UNIT ( $, .STERADIAN. ) SOLID_ANGLE_UNIT ( ) );
#279 = CARTESIAN_POINT ( 'NONE',  ( 1.316875310038436497, 0.8418854708196908954, 2.883540537866901676 ) ) ;
#280 = DIRECTION ( 'NONE',  ( -0.8574929257126187032, 0.5144957554274022238, -2.151057110211240797E-14 ) ) ;
#281 =( LENGTH_UNIT ( ) NAMED_UNIT ( * ) SI_UNIT ( .MILLI., .METRE. ) );
#282 =( LENGTH_UNIT ( ) NAMED_UNIT ( * ) SI_UNIT ( .MILLI., .METRE. ) );
#283 = ADVANCED_FACE ( 'NONE', ( #399 ), #590, .F. ) ;
#284 = CARTESIAN_POINT ( 'NONE',  ( 1.985786437626747558, 1.420000000000288809, 2.883540537866841724 ) ) ;
#285 = DIRECTION ( 'NONE',  ( 0.5144957554278783984, -0.8574929257123331539, 5.850875339774574968E-14 ) ) ;
#286 = ORIENTED_EDGE ( 'NONE', *, *, #314, .T. ) ;
#287 = MECHANICAL_DESIGN_GEOMETRIC_PRESENTATION_REPRESENTATION (  '', ( #316 ), #327 ) ;
#288 = ADVANCED_FACE ( 'NONE', ( #609 ), #745, .T. ) ;
#289 = LINE ( 'NONE', #170, #461 ) ;
#290 = DIRECTION ( 'NONE',  ( -1.000000000000000000, -0.000000000000000000, -0.000000000000000000 ) ) ;
#291 = ORIENTED_EDGE ( 'NONE', *, *, #445, .T. ) ;
#292 = MECHANICAL_DESIGN_GEOMETRIC_PRESENTATION_REPRESENTATION (  '', ( #246 ), #425 ) ;
#293 = STYLED_ITEM ( 'NONE', ( #60 ), #390 ) ;
#294 = DIRECTION ( 'NONE',  ( 0.000000000000000000, 0.000000000000000000, -1.000000000000000000 ) ) ;
#295 = PRESENTATION_LAYER_ASSIGNMENT (  '', '', ( #808 ) ) ;
#296 = ORIENTED_EDGE ( 'NONE', *, *, #386, .T. ) ;
#297 = CARTESIAN_POINT ( 'NONE',  ( 2.285786437626430523, 1.920000000000195772, 2.883540537866796427 ) ) ;
#298 =( LENGTH_UNIT ( ) NAMED_UNIT ( * ) SI_UNIT ( .MILLI., .METRE. ) );
#299 = EDGE_LOOP ( 'NONE', ( #763, #34, #109, #369 ) ) ;
#300 = EDGE_CURVE ( 'NONE', #698, #683, #603, .T. ) ;
#301 = CARTESIAN_POINT ( 'NONE',  ( 2.499999999999982681, 1.920000000000195772, 2.883540537866986497 ) ) ;
#302 = FILL_AREA_STYLE ('',( #351 ) ) ;
#303 = ORIENTED_EDGE ( 'NONE', *, *, #157, .T. ) ;
#304 = ORIENTED_EDGE ( 'NONE', *, *, #114, .F. ) ;
#305 = LINE ( 'NONE', #812, #360 ) ;
#306 = CARTESIAN_POINT ( 'NONE',  ( 9.999999999999943157, 1.420000000000338991, 2.883540537866888798 ) ) ;
#307 = ORIENTED_EDGE ( 'NONE', *, *, #226, .T. ) ;
#308 = DIRECTION ( 'NONE',  ( 0.7071067811403598524, 3.607576371983196792E-14, 0.7071067812327352931 ) ) ;
#309 = FILL_AREA_STYLE ('',( #675 ) ) ;
#310 = APPLICATION_PROTOCOL_DEFINITION ( 'draft international standard', 'automotive_design', 1998, #146 ) ;
#311 = VERTEX_POINT ( 'NONE', #301 ) ;
#312 = CARTESIAN_POINT ( 'NONE',  ( 0.000000000000000000, 5.377642775528101993E-14, 2.883540537866827957 ) ) ;
#313 = SHAPE_DEFINITION_REPRESENTATION ( #276, #269 ) ;
#314 = EDGE_CURVE ( 'NONE', #539, #612, #426, .T. ) ;
#315 = VECTOR ( 'NONE', #523, 1000.000000000000000 ) ;
#316 = STYLED_ITEM ( 'NONE', ( #408 ), #819 ) ;
#317 = ORIENTED_EDGE ( 'NONE', *, *, #338, .T. ) ;
#318 = FILL_AREA_STYLE_COLOUR ( '', #713 ) ;
#319 = ORIENTED_EDGE ( 'NONE', *, *, #632, .F. ) ;
#320 = PRESENTATION_STYLE_ASSIGNMENT (( #385 ) ) ;
#321 = PLANE ( 'NONE',  #98 ) ;
#322 = ADVANCED_FACE ( 'NONE', ( #92 ), #161, .T. ) ;
#323 = PRESENTATION_STYLE_ASSIGNMENT (( #781 ) ) ;
#324 = EDGE_CURVE ( 'NONE', #664, #85, #45, .T. ) ;
#325 = CARTESIAN_POINT ( 'NONE',  ( 7.499999999999982236, 1.920000000000195772, -2.316459462133305447 ) ) ;
#326 = DIRECTION ( 'NONE',  ( -0.8944271909920928909, 0.4472135955156040787, -1.926236947724646598E-14 ) ) ;
#327 =( GEOMETRIC_REPRESENTATION_CONTEXT ( 3 ) GLOBAL_UNCERTAINTY_ASSIGNED_CONTEXT ( ( #391 ) ) GLOBAL_UNIT_ASSIGNED_CONTEXT ( ( #116, #614, #278 ) ) REPRESENTATION_CONTEXT ( 'NONE', 'WORKASPACE' ) );
#328 = LINE ( 'NONE', #573, #647 ) ;
#329 = ORIENTED_EDGE ( 'NONE', *, *, #616, .T. ) ;
#330 = CARTESIAN_POINT ( 'NONE',  ( 7.500000000000015987, 0.4999999999998514522, -2.316459462133145575 ) ) ;
#331 = DIRECTION ( 'NONE',  ( 1.000000000000000000, 3.069766663088094615E-14, -1.081357225984901966E-13 ) ) ;
#332 = VECTOR ( 'NONE', #120, 1000.000000000000000 ) ;
#333 = DIRECTION ( 'NONE',  ( 0.7071067811403438652, 5.208915393953459697E-14, 0.7071067812327512803 ) ) ;
#334 = FACE_OUTER_BOUND ( 'NONE', #727, .T. ) ;
#335 = VECTOR ( 'NONE', #152, 1000.000000000000000 ) ;
#336 = FACE_OUTER_BOUND ( 'NONE', #767, .T. ) ;
#337 = ORIENTED_EDGE ( 'NONE', *, *, #364, .T. ) ;
#338 = EDGE_CURVE ( 'NONE', #548, #41, #494, .T. ) ;
#339 = DIRECTION ( 'NONE',  ( 0.4866642633956641539, 0.8111071056596931284, -0.3244428422417590663 ) ) ;
#340 = COLOUR_RGB ( '',0.5372549019607842924, 0.3490196078431372362, 0.3372549019607843368 ) ;
#341 = DIRECTION ( 'NONE',  ( 0.000000000000000000, 0.000000000000000000, 1.000000000000000000 ) ) ;
#342 =( GEOMETRIC_REPRESENTATION_CONTEXT ( 3 ) GLOBAL_UNCERTAINTY_ASSIGNED_CONTEXT ( ( #8 ) ) GLOBAL_UNIT_ASSIGNED_CONTEXT ( ( #281, #460, #527 ) ) REPRESENTATION_CONTEXT ( 'NONE', 'WORKASPACE' ) );
#343 = DIRECTION ( 'NONE',  ( 0.000000000000000000, 0.000000000000000000, -1.000000000000000000 ) ) ;
#344 = CARTESIAN_POINT ( 'NONE',  ( 9.999999999999984013, -1.756215501104288380E-13, -2.316459462133121150 ) ) ;
#345 = EDGE_CURVE ( 'NONE', #63, #402, #305, .T. ) ;
#346 = DIRECTION ( 'NONE',  ( -3.106225200661044046E-14, 1.000000000000000000, -4.260293594646523374E-14 ) ) ;
#347 = CARTESIAN_POINT ( 'NONE',  ( 3.382710778154773834E-14, -1.907483388209440210E-13, -2.316459462133183766 ) ) ;
#348 = VECTOR ( 'NONE', #62, 1000.000000000000000 ) ;
#349 = DIRECTION ( 'NONE',  ( -0.4574957110094571844, -0.7624928516827143010, 0.4574957109533525634 ) ) ;
#350 = DIRECTION ( 'NONE',  ( -3.330669073875468635E-16, -4.257669634101658144E-14, -1.000000000000000000 ) ) ;
#351 = FILL_AREA_STYLE_COLOUR ( '', #340 ) ;
#352 = EDGE_CURVE ( 'NONE', #382, #640, #95, .T. ) ;
#353 = CARTESIAN_POINT ( 'NONE',  ( 2.499999999999982681, 0.5000000000001941780, -2.316459462133211744 ) ) ;
#354 = ORIENTED_EDGE ( 'NONE', *, *, #665, .T. ) ;
#355 = STYLED_ITEM ( 'NONE', ( #320 ), #585 ) ;
#356 = CARTESIAN_POINT ( 'NONE',  ( 1.985786437626747558, 1.420000000000288809, 2.883540537866841724 ) ) ;
#357 = CARTESIAN_POINT ( 'NONE',  ( 2.499999999999982681, 1.920000000000195772, 2.883540537866986497 ) ) ;
#358 = ORIENTED_EDGE ( 'NONE', *, *, #71, .T. ) ;
#359 = AXIS2_PLACEMENT_3D ( 'NONE', #271, #346, #26 ) ;
#360 = VECTOR ( 'NONE', #42, 1000.000000000000000 ) ;
#361 = DIRECTION ( 'NONE',  ( 1.000000000000000000, 0.000000000000000000, 0.000000000000000000 ) ) ;
#362 = VECTOR ( 'NONE', #285, 999.9999999999998863 ) ;
#363 = COLOUR_RGB ( '',0.5372549019607842924, 0.3490196078431372362, 0.3372549019607843368 ) ;
#364 = EDGE_CURVE ( 'NONE', #168, #119, #289, .T. ) ;
#365 = VERTEX_POINT ( 'NONE', #674 ) ;
#366 = CARTESIAN_POINT ( 'NONE',  ( 1.985786437626747558, 1.420000000000288809, 2.883540537866841724 ) ) ;
#367 =( NAMED_UNIT ( * ) SI_UNIT ( $, .STERADIAN. ) SOLID_ANGLE_UNIT ( ) );
#368 = EDGE_LOOP ( 'NONE', ( #458, #175, #643, #453 ) ) ;
#369 = ORIENTED_EDGE ( 'NONE', *, *, #810, .F. ) ;
#370 = CARTESIAN_POINT ( 'NONE',  ( 2.285786437626430523, 1.920000000000195772, 2.883540537866796427 ) ) ;
#371 = CARTESIAN_POINT ( 'NONE',  ( 7.499999999999979572, 0.5000000000000994760, 2.883540537866871922 ) ) ;
#372 = ADVANCED_FACE ( 'NONE', ( #227 ), #619, .T. ) ;
#373 = VECTOR ( 'NONE', #166, 1000.000000000000000 ) ;
#374 = ORIENTED_EDGE ( 'NONE', *, *, #71, .F. ) ;
#375 = DIRECTION ( 'NONE',  ( -3.885780586188045919E-16, 0.7071067811836505568, -0.7071067811894444777 ) ) ;
#376 =( NAMED_UNIT ( * ) PLANE_ANGLE_UNIT ( ) SI_UNIT ( $, .RADIAN. ) );
#377 = VECTOR ( 'NONE', #143, 1000.000000000000000 ) ;
#378 = EDGE_CURVE ( 'NONE', #664, #659, #230, .T. ) ;
#379 = ORIENTED_EDGE ( 'NONE', *, *, #172, .T. ) ;
#380 = LINE ( 'NONE', #684, #515 ) ;
#381 = LINE ( 'NONE', #505, #249 ) ;
#382 = VERTEX_POINT ( 'NONE', #366 ) ;
#383 = VECTOR ( 'NONE', #712, 1000.000000000000000 ) ;
#384 = VERTEX_POINT ( 'NONE', #613 ) ;
#385 = SURFACE_STYLE_USAGE ( .BOTH. , #562 ) ;
#386 = EDGE_CURVE ( 'NONE', #677, #698, #549, .T. ) ;
#387 = FACE_OUTER_BOUND ( 'NONE', #121, .T. ) ;
#388 = SURFACE_SIDE_STYLE ('',( #15 ) ) ;
#389 = LINE ( 'NONE', #509, #718 ) ;
#390 = MANIFOLD_SOLID_BREP ( 'Boss-Extrude1', #236 ) ;
#391 = UNCERTAINTY_MEASURE_WITH_UNIT (LENGTH_MEASURE( 1.000000000000000082E-05 ), #116, 'distance_accuracy_value', 'NONE');
#392 = CARTESIAN_POINT ( 'NONE',  ( 7.500000000000020428, 0.5000000000001809664, 2.883540537866831510 ) ) ;
#393 = DIRECTION ( 'NONE',  ( 8.513773336695860620E-17, -1.000000000000000000, 4.294916622285421669E-14 ) ) ;
#394 = LINE ( 'NONE', #456, #140 ) ;
#395 = CARTESIAN_POINT ( 'NONE',  ( 2.385244779468109755E-14, 1.420000000000171125, 2.883540537866805753 ) ) ;
#396 = CARTESIAN_POINT ( 'NONE',  ( 7.499999999999982236, 0.5000000000001941780, -2.316459462133211744 ) ) ;
#397 = ORIENTED_EDGE ( 'NONE', *, *, #597, .F. ) ;
#398 = PRESENTATION_LAYER_ASSIGNMENT (  '', '', ( #246 ) ) ;
#399 = FACE_OUTER_BOUND ( 'NONE', #809, .T. ) ;
#400 = STYLED_ITEM ( 'NONE', ( #477 ), #283 ) ;
#401 = DIRECTION ( 'NONE',  ( -0.000000000000000000, -1.000000000000000000, -0.000000000000000000 ) ) ;
#402 = VERTEX_POINT ( 'NONE', #180 ) ;
#403 = ADVANCED_FACE ( 'NONE', ( #255 ), #773, .T. ) ;
#404 = DIRECTION ( 'NONE',  ( 0.5144957554274020017, 0.8574929257126189253, -5.073719222536964759E-14 ) ) ;
#405 = SURFACE_STYLE_FILL_AREA ( #30 ) ;
#406 = DIRECTION ( 'NONE',  ( 0.000000000000000000, 0.000000000000000000, -1.000000000000000000 ) ) ;
#407 = LINE ( 'NONE', #153, #626 ) ;
#408 = PRESENTATION_STYLE_ASSIGNMENT (( #163 ) ) ;
#409 = CARTESIAN_POINT ( 'NONE',  ( 9.999999999999943157, 1.420000000000338991, 2.883540537866888798 ) ) ;
#410 = CARTESIAN_POINT ( 'NONE',  ( 7.499999999999982236, 0.5000000000001941780, 2.883540537866903009 ) ) ;
#411 = VECTOR ( 'NONE', #199, 1000.000000000000000 ) ;
#412 = ADVANCED_FACE ( 'NONE', ( #768 ), #129, .T. ) ;
#413 = ADVANCED_FACE ( 'NONE', ( #764 ), #439, .T. ) ;
#414 = CARTESIAN_POINT ( 'NONE',  ( 7.499999999999982236, 1.920000000000195772, 2.883540537866986497 ) ) ;
#415 = LINE ( 'NONE', #537, #362 ) ;
#416 = ORIENTED_EDGE ( 'NONE', *, *, #32, .T. ) ;
#417 = DIRECTION ( 'NONE',  ( 0.000000000000000000, 0.000000000000000000, -1.000000000000000000 ) ) ;
#418 = PRESENTATION_STYLE_ASSIGNMENT (( #740 ) ) ;
#419 = ORIENTED_EDGE ( 'NONE', *, *, #616, .F. ) ;
#420 =( GEOMETRIC_REPRESENTATION_CONTEXT ( 3 ) GLOBAL_UNCERTAINTY_ASSIGNED_CONTEXT ( ( #69 ) ) GLOBAL_UNIT_ASSIGNED_CONTEXT ( ( #454, #190, #637 ) ) REPRESENTATION_CONTEXT ( 'NONE', 'WORKASPACE' ) );
#421 = EDGE_CURVE ( 'NONE', #806, #268, #694, .T. ) ;
#422 = DIRECTION ( 'NONE',  ( 0.7071067811402736991, 1.221001499560799260E-13, 0.7071067812328213353 ) ) ;
#423 = APPLICATION_PROTOCOL_DEFINITION ( 'draft international standard', 'automotive_design', 1998, #607 ) ;
#424 = ORIENTED_EDGE ( 'NONE', *, *, #157, .F. ) ;
#425 =( GEOMETRIC_REPRESENTATION_CONTEXT ( 3 ) GLOBAL_UNCERTAINTY_ASSIGNED_CONTEXT ( ( #638 ) ) GLOBAL_UNIT_ASSIGNED_CONTEXT ( ( #658, #471, #91 ) ) REPRESENTATION_CONTEXT ( 'NONE', 'WORKASPACE' ) );
#426 = LINE ( 'NONE', #547, #261 ) ;
#427 = ORIENTED_EDGE ( 'NONE', *, *, #431, .F. ) ;
#428 = ORIENTED_EDGE ( 'NONE', *, *, #553, .T. ) ;
#429 =( LENGTH_UNIT ( ) NAMED_UNIT ( * ) SI_UNIT ( .MILLI., .METRE. ) );
#430 = ORIENTED_EDGE ( 'NONE', *, *, #655, .T. ) ;
#431 = EDGE_CURVE ( 'NONE', #85, #548, #636, .T. ) ;
#432 = EDGE_LOOP ( 'NONE', ( #128, #169, #615, #741 ) ) ;
#433 =( NAMED_UNIT ( * ) SI_UNIT ( $, .STERADIAN. ) SOLID_ANGLE_UNIT ( ) );
#434 = SURFACE_STYLE_FILL_AREA ( #309 ) ;
#435 =( GEOMETRIC_REPRESENTATION_CONTEXT ( 3 ) GLOBAL_UNCERTAINTY_ASSIGNED_CONTEXT ( ( #264 ) ) GLOBAL_UNIT_ASSIGNED_CONTEXT ( ( #282, #682, #671 ) ) REPRESENTATION_CONTEXT ( 'NONE', 'WORKASPACE' ) );
#436 = EDGE_CURVE ( 'NONE', #813, #94, #652, .T. ) ;
#437 = AXIS2_PLACEMENT_3D ( 'NONE', #488, #361, #176 ) ;
#438 = ORIENTED_EDGE ( 'NONE', *, *, #345, .F. ) ;
#439 = PLANE ( 'NONE',  #776 ) ;
#440 = VECTOR ( 'NONE', #483, 1000.000000000000000 ) ;
#441 = EDGE_LOOP ( 'NONE', ( #397, #72, #561, #379, #156, #787, #816 ) ) ;
#442 = PRODUCT_DEFINITION ( 'UNKNOWN', '', #569, #27 ) ;
#443 = DIRECTION ( 'NONE',  ( -1.000000000000000000, 9.270362255620093716E-14, 1.065814103640149805E-14 ) ) ;
#444 = EDGE_LOOP ( 'NONE', ( #337, #76, #757, #358 ) ) ;
#445 = EDGE_CURVE ( 'NONE', #630, #85, #242, .T. ) ;
#446 = DIRECTION ( 'NONE',  ( 0.5144957554274020017, 0.8574929257126189253, -5.073719222536964759E-14 ) ) ;
#447 = FACE_OUTER_BOUND ( 'NONE', #736, .T. ) ;
#448 = COLOUR_RGB ( '',0.5372549019607842924, 0.3490196078431372362, 0.3372549019607843368 ) ;
#449 = CARTESIAN_POINT ( 'NONE',  ( 8.014213562373369015, 1.420000000000157137, 2.883540537866871478 ) ) ;
#450 = LINE ( 'NONE', #517, #1 ) ;
#451 = CARTESIAN_POINT ( 'NONE',  ( 7.499999999999982236, 0.000000000000000000, 0.000000000000000000 ) ) ;
#452 = CARTESIAN_POINT ( 'NONE',  ( 2.285786437626430523, 1.920000000000195772, 2.883540537866796427 ) ) ;
#453 = ORIENTED_EDGE ( 'NONE', *, *, #250, .F. ) ;
#454 =( LENGTH_UNIT ( ) NAMED_UNIT ( * ) SI_UNIT ( .MILLI., .METRE. ) );
#455 = STYLED_ITEM ( 'NONE', ( #139 ), #576 ) ;
#456 = CARTESIAN_POINT ( 'NONE',  ( 7.499999999999983125, 1.920000000000195772, -7.116459462133013503 ) ) ;
#457 = EDGE_CURVE ( 'NONE', #384, #599, #380, .T. ) ;
#458 = ORIENTED_EDGE ( 'NONE', *, *, #697, .F. ) ;
#459 = VECTOR ( 'NONE', #68, 1000.000000000000000 ) ;
#460 =( NAMED_UNIT ( * ) PLANE_ANGLE_UNIT ( ) SI_UNIT ( $, .RADIAN. ) );
#461 = VECTOR ( 'NONE', #294, 1000.000000000000000 ) ;
#462 = PLANE ( 'NONE',  #61 ) ;
#463 = FACE_OUTER_BOUND ( 'NONE', #228, .T. ) ;
#464 = CARTESIAN_POINT ( 'NONE',  ( 1.316875310038436497, 0.8418854708196908954, 2.883540537866901676 ) ) ;
#465 = CARTESIAN_POINT ( 'NONE',  ( 7.499999999999982236, 0.5000000000001941780, 2.883540537866903009 ) ) ;
#466 = PRESENTATION_STYLE_ASSIGNMENT (( #611 ) ) ;
#467 = DIRECTION ( 'NONE',  ( 0.000000000000000000, 0.000000000000000000, 1.000000000000000000 ) ) ;
#468 = ADVANCED_FACE ( 'NONE', ( #134 ), #783, .T. ) ;
#469 = LINE ( 'NONE', #650, #335 ) ;
#470 = DIRECTION ( 'NONE',  ( 1.000000000000000000, 6.844027996585191997E-17, -5.551115122831931399E-17 ) ) ;
#471 =( NAMED_UNIT ( * ) PLANE_ANGLE_UNIT ( ) SI_UNIT ( $, .RADIAN. ) );
#472 = COLOUR_RGB ( '',0.8392156862745098200, 0.4705882352941176405, 0.3686274509803921795 ) ;
#473 = CARTESIAN_POINT ( 'NONE',  ( 7.499999999999983125, 0.5000000000001941780, 2.883540537866986497 ) ) ;
#474 = ORIENTED_EDGE ( 'NONE', *, *, #628, .T. ) ;
#475 = VECTOR ( 'NONE', #350, 1000.000000000000000 ) ;
#476 = STYLED_ITEM ( 'NONE', ( #550 ), #113 ) ;
#477 = PRESENTATION_STYLE_ASSIGNMENT (( #739 ) ) ;
#478 = DIRECTION ( 'NONE',  ( 0.000000000000000000, 1.000000000000000000, -6.596835753714611364E-14 ) ) ;
#479 = ORIENTED_EDGE ( 'NONE', *, *, #545, .T. ) ;
#480 = PRESENTATION_LAYER_ASSIGNMENT (  '', '', ( #216 ) ) ;
#481 = EDGE_CURVE ( 'NONE', #241, #382, #145, .T. ) ;
#482 = LINE ( 'NONE', #804, #608 ) ;
#483 = DIRECTION ( 'NONE',  ( 0.000000000000000000, -1.000000000000000000, -5.894394909569073511E-14 ) ) ;
#484 = ORIENTED_EDGE ( 'NONE', *, *, #174, .T. ) ;
#485 = ADVANCED_FACE ( 'NONE', ( #334 ), #696, .T. ) ;
#486 = PRESENTATION_LAYER_ASSIGNMENT (  '', '', ( #455 ) ) ;
#487 = ORIENTED_EDGE ( 'NONE', *, *, #53, .F. ) ;
#488 = CARTESIAN_POINT ( 'NONE',  ( 2.499999999999982681, 0.000000000000000000, 0.000000000000000000 ) ) ;
#489 = EDGE_LOOP ( 'NONE', ( #234, #252, #286, #210, #194, #699, #5 ) ) ;
#490 = ORIENTED_EDGE ( 'NONE', *, *, #364, .F. ) ;
#491 =( NAMED_UNIT ( * ) PLANE_ANGLE_UNIT ( ) SI_UNIT ( $, .RADIAN. ) );
#492 = ORIENTED_EDGE ( 'NONE', *, *, #421, .F. ) ;
#493 = ORIENTED_EDGE ( 'NONE', *, *, #300, .T. ) ;
#494 = LINE ( 'NONE', #238, #207 ) ;
#495 = FILL_AREA_STYLE ('',( #592 ) ) ;
#496 = EDGE_CURVE ( 'NONE', #225, #35, #381, .T. ) ;
#497 = EDGE_CURVE ( 'NONE', #612, #35, #65, .T. ) ;
#498 = ORIENTED_EDGE ( 'NONE', *, *, #538, .F. ) ;
#499 = CARTESIAN_POINT ( 'NONE',  ( 2.499999999999982681, 1.920000000000195772, -7.116459462133013503 ) ) ;
#500 = PRESENTATION_LAYER_ASSIGNMENT (  '', '', ( #178 ) ) ;
#501 = PRESENTATION_LAYER_ASSIGNMENT (  '', '', ( #293 ) ) ;
#502 = ORIENTED_EDGE ( 'NONE', *, *, #506, .F. ) ;
#503 = SURFACE_SIDE_STYLE ('',( #6 ) ) ;
#504 = VECTOR ( 'NONE', #620, 1000.000000000000000 ) ;
#505 = CARTESIAN_POINT ( 'NONE',  ( 9.999999999999984013, -1.756215501104288380E-13, -2.316459462133121150 ) ) ;
#506 = EDGE_CURVE ( 'NONE', #507, #595, #765, .T. ) ;
#507 = VERTEX_POINT ( 'NONE', #130 ) ;
#508 = PLANE ( 'NONE',  #244 ) ;
#509 = CARTESIAN_POINT ( 'NONE',  ( 2.499999999999982681, 0.8418854708194601910, -2.316459462133258818 ) ) ;
#510 = ORIENTED_EDGE ( 'NONE', *, *, #137, .F. ) ;
#511 = DIRECTION ( 'NONE',  ( 0.000000000000000000, -1.000000000000000000, 0.000000000000000000 ) ) ;
#512 = UNCERTAINTY_MEASURE_WITH_UNIT (LENGTH_MEASURE( 1.000000000000000082E-05 ), #746, 'distance_accuracy_value', 'NONE');
#513 =( NAMED_UNIT ( * ) PLANE_ANGLE_UNIT ( ) SI_UNIT ( $, .RADIAN. ) );
#514 = ORIENTED_EDGE ( 'NONE', *, *, #187, .T. ) ;
#515 = VECTOR ( 'NONE', #709, 1000.000000000000114 ) ;
#516 = DIRECTION ( 'NONE',  ( -3.330669073875468635E-16, -4.257669634101658144E-14, -1.000000000000000000 ) ) ;
#517 = CARTESIAN_POINT ( 'NONE',  ( 10.00000000000002309, 1.573741137406207864E-13, 2.883540537866887021 ) ) ;
#518 = LINE ( 'NONE', #75, #629 ) ;
#519 = ORIENTED_EDGE ( 'NONE', *, *, #260, .T. ) ;
#520 = FACE_OUTER_BOUND ( 'NONE', #184, .T. ) ;
#521 = SURFACE_SIDE_STYLE ('',( #122 ) ) ;
#522 = EDGE_CURVE ( 'NONE', #241, #546, #645, .T. ) ;
#523 = DIRECTION ( 'NONE',  ( 0.000000000000000000, 1.000000000000000000, -6.596835753714611364E-14 ) ) ;
#524 = AXIS2_PLACEMENT_3D ( 'NONE', #451, #639, #343 ) ;
#525 = ORIENTED_EDGE ( 'NONE', *, *, #77, .F. ) ;
#526 = AXIS2_PLACEMENT_3D ( 'NONE', #775, #80, #341 ) ;
#527 =( NAMED_UNIT ( * ) SI_UNIT ( $, .STERADIAN. ) SOLID_ANGLE_UNIT ( ) );
#528 = CARTESIAN_POINT ( 'NONE',  ( 7.499999999999982236, 0.5000000000001941780, -2.316459462133211744 ) ) ;
#529 = LINE ( 'NONE', #796, #383 ) ;
#530 = DIRECTION ( 'NONE',  ( -8.513773336695860620E-17, 1.000000000000000000, -4.294916622285421669E-14 ) ) ;
#531 = SURFACE_STYLE_FILL_AREA ( #495 ) ;
#532 = DIRECTION ( 'NONE',  ( 3.841371665202176407E-14, 4.038106667644405905E-14, 1.000000000000000000 ) ) ;
#533 = ORIENTED_EDGE ( 'NONE', *, *, #114, .T. ) ;
#534 = CARTESIAN_POINT ( 'NONE',  ( 2.200000000000278177, 2.267602772221547212E-13, 2.883540537866810638 ) ) ;
#535 = AXIS2_PLACEMENT_3D ( 'NONE', #528, #31, #795 ) ;
#536 = DIRECTION ( 'NONE',  ( 0.7071067812159357313, -9.547953675772808254E-14, -0.7071067811571591921 ) ) ;
#537 = CARTESIAN_POINT ( 'NONE',  ( 8.014213562373404542, 1.419999999999992157, -2.316459462133225955 ) ) ;
#538 = EDGE_CURVE ( 'NONE', #35, #148, #774, .T. ) ;
#539 = VERTEX_POINT ( 'NONE', #710 ) ;
#540 = VECTOR ( 'NONE', #443, 1000.000000000000000 ) ;
#541 = VECTOR ( 'NONE', #555, 1000.000000000000000 ) ;
#542 = DIRECTION ( 'NONE',  ( -9.257811059680917851E-14, -1.000000000000000000, 4.245034521298695959E-14 ) ) ;
#543 =( NAMED_UNIT ( * ) PLANE_ANGLE_UNIT ( ) SI_UNIT ( $, .RADIAN. ) );
#544 = ORIENTED_EDGE ( 'NONE', *, *, #226, .F. ) ;
#545 = EDGE_CURVE ( 'NONE', #659, #630, #7, .T. ) ;
#546 = VERTEX_POINT ( 'NONE', #135 ) ;
#547 = CARTESIAN_POINT ( 'NONE',  ( 7.800000000000109068, 3.105182777574262997E-13, 2.883540537866942977 ) ) ;
#548 = VERTEX_POINT ( 'NONE', #4 ) ;
#549 = LINE ( 'NONE', #753, #117 ) ;
#550 = PRESENTATION_STYLE_ASSIGNMENT (( #171 ) ) ;
#551 = ORIENTED_EDGE ( 'NONE', *, *, #457, .F. ) ;
#552 =( GEOMETRIC_REPRESENTATION_CONTEXT ( 3 ) GLOBAL_UNCERTAINTY_ASSIGNED_CONTEXT ( ( #707 ) ) GLOBAL_UNIT_ASSIGNED_CONTEXT ( ( #64, #581, #22 ) ) REPRESENTATION_CONTEXT ( 'NONE', 'WORKASPACE' ) );
#553 = EDGE_CURVE ( 'NONE', #640, #659, #716, .T. ) ;
#554 = ORIENTED_EDGE ( 'NONE', *, *, #235, .T. ) ;
#555 = DIRECTION ( 'NONE',  ( -1.000000000000000000, -8.493206138382417558E-15, 5.551115123125783935E-17 ) ) ;
#556 = ORIENTED_EDGE ( 'NONE', *, *, #77, .T. ) ;
#557 = DIRECTION ( 'NONE',  ( 1.000000000000000000, 3.069766663088094615E-14, -1.081357225984901966E-13 ) ) ;
#558 = ORIENTED_EDGE ( 'NONE', *, *, #232, .F. ) ;
#559 = AXIS2_PLACEMENT_3D ( 'NONE', #263, #571, #266 ) ;
#560 = PRESENTATION_LAYER_ASSIGNMENT (  '', '', ( #400 ) ) ;
#561 = ORIENTED_EDGE ( 'NONE', *, *, #16, .T. ) ;
#562 = SURFACE_SIDE_STYLE ('',( #778 ) ) ;
#563 = ORIENTED_EDGE ( 'NONE', *, *, #785, .T. ) ;
#564 = CARTESIAN_POINT ( 'NONE',  ( 0.000000000000000000, 0.000000000000000000, 0.000000000000000000 ) ) ;
#565 = DIRECTION ( 'NONE',  ( 0.000000000000000000, -0.000000000000000000, -1.000000000000000000 ) ) ;
#566 = CARTESIAN_POINT ( 'NONE',  ( 2.499999999999965361, 0.5000000000000501821, 2.883540537866839948 ) ) ;
#567 = CARTESIAN_POINT ( 'NONE',  ( 2.285786437626430523, 1.920000000000195772, 2.883540537866796427 ) ) ;
#568 = ORIENTED_EDGE ( 'NONE', *, *, #431, .T. ) ;
#569 = PRODUCT_DEFINITION_FORMATION_WITH_SPECIFIED_SOURCE ( 'ANY', '', #12, .NOT_KNOWN. ) ;
#570 = CARTESIAN_POINT ( 'NONE',  ( 2.285786437626535328, 1.919999999999880025, -2.316459462133281466 ) ) ;
#571 = DIRECTION ( 'NONE',  ( 0.000000000000000000, 5.894394909569073511E-14, -1.000000000000000000 ) ) ;
#572 = UNCERTAINTY_MEASURE_WITH_UNIT (LENGTH_MEASURE( 1.000000000000000082E-05 ), #105, 'distance_accuracy_value', 'NONE');
#573 = CARTESIAN_POINT ( 'NONE',  ( 2.200000000000243094, 4.815500273304399536E-14, -2.316459462133137581 ) ) ;
#574 = ORIENTED_EDGE ( 'NONE', *, *, #737, .T. ) ;
#575 = MECHANICAL_DESIGN_GEOMETRIC_PRESENTATION_REPRESENTATION (  '', ( #293 ), #552 ) ;
#576 = ADVANCED_FACE ( 'NONE', ( #186 ), #508, .F. ) ;
#577 = DIRECTION ( 'NONE',  ( -0.5144957554279014911, 0.8574929257123191650, -5.828670879282074362E-14 ) ) ;
#578 = FILL_AREA_STYLE ('',( #11 ) ) ;
#579 = DIRECTION ( 'NONE',  ( 1.314951050497076646E-16, -4.280897734724536613E-14, -1.000000000000000000 ) ) ;
#580 = FACE_OUTER_BOUND ( 'NONE', #196, .T. ) ;
#581 =( NAMED_UNIT ( * ) PLANE_ANGLE_UNIT ( ) SI_UNIT ( $, .RADIAN. ) );
#582 = DIRECTION ( 'NONE',  ( 3.841371665202176407E-14, 4.038106667644405905E-14, 1.000000000000000000 ) ) ;
#583 = CARTESIAN_POINT ( 'NONE',  ( 2.385244779468109755E-14, 1.420000000000171125, 2.883540537866805753 ) ) ;
#584 = COLOUR_RGB ( '',0.8392156862745098200, 0.4705882352941176405, 0.3686274509803921795 ) ;
#585 = ADVANCED_FACE ( 'NONE', ( #701 ), #193, .T. ) ;
#586 = CARTESIAN_POINT ( 'NONE',  ( 1.316875310038540858, 0.8418854708194601910, -2.316459462133258373 ) ) ;
#587 = DIRECTION ( 'NONE',  ( -1.000000000000000000, -0.000000000000000000, -0.000000000000000000 ) ) ;
#588 = VERTEX_POINT ( 'NONE', #793 ) ;
#589 = VECTOR ( 'NONE', #49, 1000.000000000000000 ) ;
#590 = PLANE ( 'NONE',  #437 ) ;
#591 = CARTESIAN_POINT ( 'NONE',  ( 8.014213562373369015, 1.420000000000157137, 2.883540537866871478 ) ) ;
#592 = FILL_AREA_STYLE_COLOUR ( '', #670 ) ;
#593 = CLOSED_SHELL ( 'NONE', ( #678, #691, #602, #160, #372, #412, #485, #799, #744 ) ) ;
#594 = SURFACE_STYLE_FILL_AREA ( #89 ) ;
#595 = VERTEX_POINT ( 'NONE', #265 ) ;
#596 = ORIENTED_EDGE ( 'NONE', *, *, #436, .T. ) ;
#597 = EDGE_CURVE ( 'NONE', #618, #365, #529, .T. ) ;
#598 = CARTESIAN_POINT ( 'NONE',  ( 2.285786437626535328, 1.919999999999880025, -2.316459462133281466 ) ) ;
#599 = VERTEX_POINT ( 'NONE', #141 ) ;
#600 = PRESENTATION_LAYER_ASSIGNMENT (  '', '', ( #355 ) ) ;
#601 = MECHANICAL_DESIGN_GEOMETRIC_PRESENTATION_REPRESENTATION (  '', ( #178 ), #685 ) ;
#602 = ADVANCED_FACE ( 'NONE', ( #336 ), #133, .T. ) ;
#603 = LINE ( 'NONE', #101, #88 ) ;
#604 = AXIS2_PLACEMENT_3D ( 'NONE', #586, #579, #326 ) ;
#605 = ORIENTED_EDGE ( 'NONE', *, *, #324, .T. ) ;
#606 = VECTOR ( 'NONE', #557, 1000.000000000000000 ) ;
#607 = APPLICATION_CONTEXT ( 'automotive_design' ) ;
#608 = VECTOR ( 'NONE', #731, 1000.000000000000000 ) ;
#609 = FACE_OUTER_BOUND ( 'NONE', #635, .T. ) ;
#610 = CARTESIAN_POINT ( 'NONE',  ( 2.499999999999982681, 1.920000000000195772, 2.883540537866986497 ) ) ;
#611 = SURFACE_STYLE_USAGE ( .BOTH. , #750 ) ;
#612 = VERTEX_POINT ( 'NONE', #9 ) ;
#613 = CARTESIAN_POINT ( 'NONE',  ( 2.499999999999982681, 0.5000000000001941780, -2.316459462133211744 ) ) ;
#614 =( NAMED_UNIT ( * ) PLANE_ANGLE_UNIT ( ) SI_UNIT ( $, .RADIAN. ) );
#615 = ORIENTED_EDGE ( 'NONE', *, *, #791, .F. ) ;
#616 = EDGE_CURVE ( 'NONE', #683, #507, #267, .T. ) ;
#617 = AXIS2_PLACEMENT_3D ( 'NONE', #93, #470, #223 ) ;
#618 = VERTEX_POINT ( 'NONE', #719 ) ;
#619 = PLANE ( 'NONE',  #673 ) ;
#620 = DIRECTION ( 'NONE',  ( 0.5144957554279014911, -0.8574929257123191650, 5.828670879282074362E-14 ) ) ;
#621 = DIRECTION ( 'NONE',  ( 0.8574929257126348014, -0.5144957554273755784, 2.103872631664671960E-14 ) ) ;
#622 = MECHANICAL_DESIGN_GEOMETRIC_PRESENTATION_REPRESENTATION (  '', ( #400 ), #815 ) ;
#623 = ORIENTED_EDGE ( 'NONE', *, *, #481, .T. ) ;
#624 = DIRECTION ( 'NONE',  ( 0.3292927799561733981, -0.5488212999264783232, -0.7683498199490552683 ) ) ;
#625 = SURFACE_SIDE_STYLE ('',( #43 ) ) ;
#626 = VECTOR ( 'NONE', #530, 1000.000000000000000 ) ;
#627 = VERTEX_POINT ( 'NONE', #23 ) ;
#628 = EDGE_CURVE ( 'NONE', #683, #119, #518, .T. ) ;
#629 = VECTOR ( 'NONE', #587, 1000.000000000000000 ) ;
#630 = VERTEX_POINT ( 'NONE', #642 ) ;
#631 = FILL_AREA_STYLE ('',( #248 ) ) ;
#632 = EDGE_CURVE ( 'NONE', #595, #311, #70, .T. ) ;
#633 = DIRECTION ( 'NONE',  ( -0.8944271909920928909, 0.4472135955156040787, -1.926236947724646598E-14 ) ) ;
#634 = VECTOR ( 'NONE', #725, 1000.000000000000000 ) ;
#635 = EDGE_LOOP ( 'NONE', ( #693, #307, #498, #811 ) ) ;
#636 = LINE ( 'NONE', #704, #2 ) ;
#637 =( NAMED_UNIT ( * ) SI_UNIT ( $, .STERADIAN. ) SOLID_ANGLE_UNIT ( ) );
#638 = UNCERTAINTY_MEASURE_WITH_UNIT (LENGTH_MEASURE( 1.000000000000000082E-05 ), #658, 'distance_accuracy_value', 'NONE');
#639 = DIRECTION ( 'NONE',  ( 1.000000000000000000, 0.000000000000000000, 0.000000000000000000 ) ) ;
#640 = VERTEX_POINT ( 'NONE', #648 ) ;
#641 = LINE ( 'NONE', #126, #459 ) ;
#642 = CARTESIAN_POINT ( 'NONE',  ( 2.499999999999982681, 1.920000000000195772, -2.316459462133305447 ) ) ;
#643 = ORIENTED_EDGE ( 'NONE', *, *, #496, .F. ) ;
#644 = EDGE_CURVE ( 'NONE', #63, #94, #786, .T. ) ;
#645 = LINE ( 'NONE', #784, #52 ) ;
#646 = VECTOR ( 'NONE', #478, 1000.000000000000000 ) ;
#647 = VECTOR ( 'NONE', #28, 1000.000000000000000 ) ;
#648 = CARTESIAN_POINT ( 'NONE',  ( 1.985786437626675172, 1.420000000000108731, -2.316459462133144687 ) ) ;
#649 = VECTOR ( 'NONE', #331, 1000.000000000000000 ) ;
#650 = CARTESIAN_POINT ( 'NONE',  ( 7.800000000000109068, 3.105182777574262997E-13, 2.883540537866942977 ) ) ;
#651 = MECHANICAL_DESIGN_GEOMETRIC_PRESENTATION_REPRESENTATION (  '', ( #808 ), #738 ) ;
#652 = LINE ( 'NONE', #55, #606 ) ;
#653 = CARTESIAN_POINT ( 'NONE',  ( 8.014213562373369015, 1.420000000000157137, 2.883540537866871478 ) ) ;
#654 = ORIENTED_EDGE ( 'NONE', *, *, #481, .F. ) ;
#655 = EDGE_CURVE ( 'NONE', #59, #365, #273, .T. ) ;
#656 = LINE ( 'NONE', #138, #14 ) ;
#657 = SURFACE_SIDE_STYLE ('',( #405 ) ) ;
#658 =( LENGTH_UNIT ( ) NAMED_UNIT ( * ) SI_UNIT ( .MILLI., .METRE. ) );
#659 = VERTEX_POINT ( 'NONE', #730 ) ;
#660 = LINE ( 'NONE', #754, #205 ) ;
#661 = FILL_AREA_STYLE_COLOUR ( '', #99 ) ;
#662 = DIRECTION ( 'NONE',  ( -0.000000000000000000, 1.000000000000000000, 0.000000000000000000 ) ) ;
#663 = CARTESIAN_POINT ( 'NONE',  ( 9.999999999999968026, 1.419999999999943530, -2.316459462133185987 ) ) ;
#664 = VERTEX_POINT ( 'NONE', #567 ) ;
#665 = EDGE_CURVE ( 'NONE', #599, #268, #328, .T. ) ;
#666 = DIRECTION ( 'NONE',  ( 1.000000000000000000, -9.270362255620093716E-14, -1.065814103640149805E-14 ) ) ;
#667 = ORIENTED_EDGE ( 'NONE', *, *, #262, .F. ) ;
#668 = VECTOR ( 'NONE', #446, 999.9999999999998863 ) ;
#669 = CARTESIAN_POINT ( 'NONE',  ( 10.00000000000002309, 1.573741137406207864E-13, 2.883540537866887021 ) ) ;
#670 = COLOUR_RGB ( '',0.8392156862745098200, 0.4705882352941176405, 0.3686274509803921795 ) ;
#671 =( NAMED_UNIT ( * ) SI_UNIT ( $, .STERADIAN. ) SOLID_ANGLE_UNIT ( ) );
#672 = ORIENTED_EDGE ( 'NONE', *, *, #250, .T. ) ;
#673 = AXIS2_PLACEMENT_3D ( 'NONE', #104, #742, #422 ) ;
#674 = CARTESIAN_POINT ( 'NONE',  ( 7.500000000000015987, 0.4999999999998514522, -2.316459462133145575 ) ) ;
#675 = FILL_AREA_STYLE_COLOUR ( '', #363 ) ;
#676 = ADVANCED_FACE ( 'NONE', ( #463 ), #726, .F. ) ;
#677 = VERTEX_POINT ( 'NONE', #83 ) ;
#678 = ADVANCED_FACE ( 'NONE', ( #779 ), #73, .T. ) ;
#679 = ORIENTED_EDGE ( 'NONE', *, *, #338, .F. ) ;
#680 = CARTESIAN_POINT ( 'NONE',  ( 7.800000000000109068, 3.105182777574262997E-13, 2.883540537866942977 ) ) ;
#681 = SURFACE_STYLE_USAGE ( .BOTH. , #625 ) ;
#682 =( NAMED_UNIT ( * ) PLANE_ANGLE_UNIT ( ) SI_UNIT ( $, .RADIAN. ) );
#683 = VERTEX_POINT ( 'NONE', #13 ) ;
#684 = CARTESIAN_POINT ( 'NONE',  ( 2.499999999999953815, 0.4999999999998057110, -2.316459462133211300 ) ) ;
#685 =( GEOMETRIC_REPRESENTATION_CONTEXT ( 3 ) GLOBAL_UNCERTAINTY_ASSIGNED_CONTEXT ( ( #772 ) ) GLOBAL_UNIT_ASSIGNED_CONTEXT ( ( #298, #167, #106 ) ) REPRESENTATION_CONTEXT ( 'NONE', 'WORKASPACE' ) );
#686 = ORIENTED_EDGE ( 'NONE', *, *, #352, .T. ) ;
#687 = DIRECTION ( 'NONE',  ( 0.8574929257123328208, 0.5144957554278787315, -2.253752739989067777E-14 ) ) ;
#688 = SURFACE_SIDE_STYLE ('',( #434 ) ) ;
#689 = DIRECTION ( 'NONE',  ( -3.330669073875468635E-16, -4.257669634101658144E-14, -1.000000000000000000 ) ) ;
#690 = AXIS2_PLACEMENT_3D ( 'NONE', #534, #245, #220 ) ;
#691 = ADVANCED_FACE ( 'NONE', ( #144 ), #790, .T. ) ;
#692 = AXIS2_PLACEMENT_3D ( 'NONE', #464, #532, #797 ) ;
#693 = ORIENTED_EDGE ( 'NONE', *, *, #314, .F. ) ;
#694 = LINE ( 'NONE', #700, #74 ) ;
#695 = PRODUCT_CONTEXT ( 'NONE', #607, 'mechanical' ) ;
#696 = PLANE ( 'NONE',  #690 ) ;
#697 = EDGE_CURVE ( 'NONE', #612, #588, #450, .T. ) ;
#698 = VERTEX_POINT ( 'NONE', #200 ) ;
#699 = ORIENTED_EDGE ( 'NONE', *, *, #644, .T. ) ;
#700 = CARTESIAN_POINT ( 'NONE',  ( 0.000000000000000000, 5.377642775528101993E-14, 2.883540537866827957 ) ) ;
#701 = FACE_OUTER_BOUND ( 'NONE', #752, .T. ) ;
#702 = DIRECTION ( 'NONE',  ( 1.000000000000000000, -0.000000000000000000, 0.000000000000000000 ) ) ;
#703 = VECTOR ( 'NONE', #84, 1000.000000000000000 ) ;
#704 = CARTESIAN_POINT ( 'NONE',  ( 2.499999999999982681, 0.5000000000001941780, 2.883540537866986497 ) ) ;
#705 = CARTESIAN_POINT ( 'NONE',  ( 10.00000000000002309, 1.573741137406207864E-13, 2.883540537866887021 ) ) ;
#706 = ADVANCED_FACE ( 'NONE', ( #189 ), #462, .F. ) ;
#707 = UNCERTAINTY_MEASURE_WITH_UNIT (LENGTH_MEASURE( 1.000000000000000082E-05 ), #64, 'distance_accuracy_value', 'NONE');
#708 = CARTESIAN_POINT ( 'NONE',  ( 2.499999999999982681, 1.920000000000195772, -2.316459462133305447 ) ) ;
#709 = DIRECTION ( 'NONE',  ( -0.5144957554273756895, -0.8574929257126346904, 5.112577028398846500E-14 ) ) ;
#710 = CARTESIAN_POINT ( 'NONE',  ( 7.800000000000109068, 3.105182777574262997E-13, 2.883540537866942977 ) ) ;
#711 = LINE ( 'NONE', #257, #634 ) ;
#712 = DIRECTION ( 'NONE',  ( 0.000000000000000000, -1.000000000000000000, 4.257669634101658144E-14 ) ) ;
#713 = COLOUR_RGB ( '',0.8392156862745098200, 0.4705882352941176405, 0.3686274509803921795 ) ;
#714 = DIRECTION ( 'NONE',  ( 1.000000000000000000, 1.297850715786807996E-13, -5.551115123125783935E-17 ) ) ;
#715 = AXIS2_PLACEMENT_3D ( 'NONE', #564, #243, #769 ) ;
#716 = LINE ( 'NONE', #79, #668 ) ;
#717 = DIRECTION ( 'NONE',  ( -0.000000000000000000, -0.000000000000000000, 1.000000000000000000 ) ) ;
#718 = VECTOR ( 'NONE', #771, 1000.000000000000000 ) ;
#719 = CARTESIAN_POINT ( 'NONE',  ( 7.499999999999983125, 1.920000000000195772, -2.316459462133276137 ) ) ;
#720 = EDGE_CURVE ( 'NONE', #59, #813, #711, .T. ) ;
#721 = ORIENTED_EDGE ( 'NONE', *, *, #235, .F. ) ;
#722 = DIRECTION ( 'NONE',  ( 1.000000000000000000, 3.069766663088094615E-14, -1.081357225984901966E-13 ) ) ;
#723 = CLOSED_SHELL ( 'NONE', ( #413, #403, #20, #288, #322, #183, #468, #761, #706 ) ) ;
#724 = VECTOR ( 'NONE', #577, 1000.000000000000000 ) ;
#725 = DIRECTION ( 'NONE',  ( 0.000000000000000000, 1.000000000000000000, 0.000000000000000000 ) ) ;
#726 = PLANE ( 'NONE',  #559 ) ;
#727 = EDGE_LOOP ( 'NONE', ( #303, #274, #123, #231 ) ) ;
#728 = DIRECTION ( 'NONE',  ( -3.330669073875468635E-16, -4.257669634101658144E-14, -1.000000000000000000 ) ) ;
#729 = CARTESIAN_POINT ( 'NONE',  ( 7.714213562373040567, 1.920000000000303242, 2.883540537866832398 ) ) ;
#730 = CARTESIAN_POINT ( 'NONE',  ( 2.285786437626535328, 1.919999999999880025, -2.316459462133281466 ) ) ;
#731 = DIRECTION ( 'NONE',  ( -1.000000000000000000, -1.046385200709205369E-13, 1.054711873393898240E-14 ) ) ;
#732 = FACE_OUTER_BOUND ( 'NONE', #368, .T. ) ;
#733 = AXIS2_PLACEMENT_3D ( 'NONE', #312, #208, #375 ) ;
#734 = LINE ( 'NONE', #663, #377 ) ;
#735 = DIRECTION ( 'NONE',  ( 0.000000000000000000, -0.000000000000000000, 1.000000000000000000 ) ) ;
#736 = EDGE_LOOP ( 'NONE', ( #563, #291, #568, #554 ) ) ;
#737 = EDGE_CURVE ( 'NONE', #618, #813, #394, .T. ) ;
#738 =( GEOMETRIC_REPRESENTATION_CONTEXT ( 3 ) GLOBAL_UNCERTAINTY_ASSIGNED_CONTEXT ( ( #512 ) ) GLOBAL_UNIT_ASSIGNED_CONTEXT ( ( #746, #376, #162 ) ) REPRESENTATION_CONTEXT ( 'NONE', 'WORKASPACE' ) );
#739 = SURFACE_STYLE_USAGE ( .BOTH. , #110 ) ;
#740 = SURFACE_STYLE_USAGE ( .BOTH. , #657 ) ;
#741 = ORIENTED_EDGE ( 'NONE', *, *, #506, .T. ) ;
#742 = DIRECTION ( 'NONE',  ( -1.298291529401685308E-13, 1.000000000000000000, -4.284653510120059971E-14 ) ) ;
#743 = ORIENTED_EDGE ( 'NONE', *, *, #457, .T. ) ;
#744 = ADVANCED_FACE ( 'NONE', ( #447 ), #132, .F. ) ;
#745 = PLANE ( 'NONE',  #39 ) ;
#746 =( LENGTH_UNIT ( ) NAMED_UNIT ( * ) SI_UNIT ( .MILLI., .METRE. ) );
#747 = ORIENTED_EDGE ( 'NONE', *, *, #324, .F. ) ;
#748 = ORIENTED_EDGE ( 'NONE', *, *, #791, .T. ) ;
#749 = DIRECTION ( 'NONE',  ( 1.000000000000000000, 3.069766663088094615E-14, -1.081357225984901966E-13 ) ) ;
#750 = SURFACE_SIDE_STYLE ('',( #46 ) ) ;
#751 = EDGE_LOOP ( 'NONE', ( #556, #254, #3, #492 ) ) ;
#752 = EDGE_LOOP ( 'NONE', ( #493, #329, #748, #296 ) ) ;
#753 = CARTESIAN_POINT ( 'NONE',  ( 7.499999999999982236, 1.920000000000195772, 2.883540537866986497 ) ) ;
#754 = CARTESIAN_POINT ( 'NONE',  ( 7.714213562373040567, 1.920000000000303242, 2.883540537866832398 ) ) ;
#755 = PRESENTATION_LAYER_ASSIGNMENT (  '', '', ( #316 ) ) ;
#756 = VECTOR ( 'NONE', #722, 1000.000000000000000 ) ;
#757 = ORIENTED_EDGE ( 'NONE', *, *, #300, .F. ) ;
#758 = DIRECTION ( 'NONE',  ( -8.159643309333225962E-15, 1.000000000000000000, -4.285919101395384539E-14 ) ) ;
#759 = COLOUR_RGB ( '',0.8392156862745098200, 0.4705882352941176405, 0.3686274509803921795 ) ;
#760 = VECTOR ( 'NONE', #714, 1000.000000000000000 ) ;
#761 = ADVANCED_FACE ( 'NONE', ( #580 ), #21, .T. ) ;
#762 = MECHANICAL_DESIGN_GEOMETRIC_PRESENTATION_REPRESENTATION (  '', ( #476 ), #224 ) ;
#763 = ORIENTED_EDGE ( 'NONE', *, *, #644, .F. ) ;
#764 = FACE_OUTER_BOUND ( 'NONE', #299, .T. ) ;
#765 = LINE ( 'NONE', #325, #348 ) ;
#766 = MECHANICAL_DESIGN_GEOMETRIC_PRESENTATION_REPRESENTATION (  '', ( #216 ), #342 ) ;
#767 = EDGE_LOOP ( 'NONE', ( #427, #747, #107, #654, #525, #424, #679 ) ) ;
#768 = FACE_OUTER_BOUND ( 'NONE', #751, .T. ) ;
#769 = DIRECTION ( 'NONE',  ( 1.000000000000000000, 0.000000000000000000, 0.000000000000000000 ) ) ;
#770 = FILL_AREA_STYLE ('',( #318 ) ) ;
#771 = DIRECTION ( 'NONE',  ( 0.000000000000000000, 1.000000000000000000, -4.257669634101658144E-14 ) ) ;
#772 = UNCERTAINTY_MEASURE_WITH_UNIT (LENGTH_MEASURE( 1.000000000000000082E-05 ), #298, 'distance_accuracy_value', 'NONE');
#773 = PLANE ( 'NONE',  #191 ) ;
#774 = LINE ( 'NONE', #67, #540 ) ;
#775 = CARTESIAN_POINT ( 'NONE',  ( 2.499999999999982681, 0.5000000000001941780, -7.116459462133013503 ) ) ;
#776 = AXIS2_PLACEMENT_3D ( 'NONE', #792, #687, #624 ) ;
#777 = DIRECTION ( 'NONE',  ( -0.5144957554278783984, 0.8574929257123331539, -5.850875339774574968E-14 ) ) ;
#778 = SURFACE_STYLE_FILL_AREA ( #770 ) ;
#779 = FACE_OUTER_BOUND ( 'NONE', #802, .T. ) ;
#780 = PRODUCT_RELATED_PRODUCT_CATEGORY ( 'part', '', ( #12 ) ) ;
#781 = SURFACE_STYLE_USAGE ( .BOTH. , #388 ) ;
#782 = LINE ( 'NONE', #17, #760 ) ;
#783 = PLANE ( 'NONE',  #221 ) ;
#784 = CARTESIAN_POINT ( 'NONE',  ( 2.385244779468109755E-14, 1.420000000000171125, 2.883540537866805753 ) ) ;
#785 = EDGE_CURVE ( 'NONE', #384, #630, #389, .T. ) ;
#786 = LINE ( 'NONE', #653, #24 ) ;
#787 = ORIENTED_EDGE ( 'NONE', *, *, #538, .T. ) ;
#788 =( GEOMETRIC_REPRESENTATION_CONTEXT ( 3 ) GLOBAL_UNCERTAINTY_ASSIGNED_CONTEXT ( ( #192 ) ) GLOBAL_UNIT_ASSIGNED_CONTEXT ( ( #213, #513, #202 ) ) REPRESENTATION_CONTEXT ( 'NONE', 'WORKASPACE' ) );
#789 = LINE ( 'NONE', #410, #258 ) ;
#790 = PLANE ( 'NONE',  #604 ) ;
#791 = EDGE_CURVE ( 'NONE', #507, #677, #641, .T. ) ;
#792 = CARTESIAN_POINT ( 'NONE',  ( 7.714213562373040567, 1.920000000000303242, 2.883540537866832398 ) ) ;
#793 = CARTESIAN_POINT ( 'NONE',  ( 9.999999999999943157, 1.420000000000338991, 2.883540537866888798 ) ) ;
#794 = DIRECTION ( 'NONE',  ( -1.000000000000000000, -0.000000000000000000, -0.000000000000000000 ) ) ;
#795 = DIRECTION ( 'NONE',  ( 0.000000000000000000, -1.000000000000000000, 6.596835753714611364E-14 ) ) ;
#796 = CARTESIAN_POINT ( 'NONE',  ( 7.499999999999983125, 0.8418854708194601910, -2.316459462133260150 ) ) ;
#797 = DIRECTION ( 'NONE',  ( -2.374738373674177696E-11, -1.000000000000000000, 4.038106667735628518E-14 ) ) ;
#798 = PLANE ( 'NONE',  #535 ) ;
#799 = ADVANCED_FACE ( 'NONE', ( #387 ), #321, .T. ) ;
#800 = LINE ( 'NONE', #217, #251 ) ;
#801 = LINE ( 'NONE', #353, #646 ) ;
#802 = EDGE_LOOP ( 'NONE', ( #817, #142, #203, #605 ) ) ;
#803 = COLOUR_RGB ( '',0.5372549019607842924, 0.3490196078431372362, 0.3372549019607843368 ) ;
#804 = CARTESIAN_POINT ( 'NONE',  ( 2.200000000000278177, 2.267602772221547212E-13, 2.883540537866810638 ) ) ;
#805 = FILL_AREA_STYLE_COLOUR ( '', #472 ) ;
#806 = VERTEX_POINT ( 'NONE', #240 ) ;
#807 = PRESENTATION_LAYER_ASSIGNMENT (  '', '', ( #476 ) ) ;
#808 = STYLED_ITEM ( 'NONE', ( #233 ), #108 ) ;
#809 = EDGE_LOOP ( 'NONE', ( #490, #304, #319, #247 ) ) ;
#810 = EDGE_CURVE ( 'NONE', #94, #627, #660, .T. ) ;
#811 = ORIENTED_EDGE ( 'NONE', *, *, #497, .F. ) ;
#812 = CARTESIAN_POINT ( 'NONE',  ( 8.014213562373369015, 1.420000000000157137, 2.883540537866871478 ) ) ;
#813 = VERTEX_POINT ( 'NONE', #151 ) ;
#814 = DIRECTION ( 'NONE',  ( 0.000000000000000000, -1.000000000000000000, -5.894394909569073511E-14 ) ) ;
#815 =( GEOMETRIC_REPRESENTATION_CONTEXT ( 3 ) GLOBAL_UNCERTAINTY_ASSIGNED_CONTEXT ( ( #127 ) ) GLOBAL_UNIT_ASSIGNED_CONTEXT ( ( #429, #491, #433 ) ) REPRESENTATION_CONTEXT ( 'NONE', 'WORKASPACE' ) );
#816 = ORIENTED_EDGE ( 'NONE', *, *, #232, .T. ) ;
#817 = ORIENTED_EDGE ( 'NONE', *, *, #445, .F. ) ;
#818 = ORIENTED_EDGE ( 'NONE', *, *, #100, .T. ) ;
#819 = ADVANCED_FACE ( 'NONE', ( #51 ), #798, .F. ) ;
#820 = ORIENTED_EDGE ( 'NONE', *, *, #262, .T. ) ;
ENDSEC;
END-ISO-10303-21;
