M48
; DRILL file {KiCad 9.0.7-9.0.7~ubuntu24.04.1} date 2026-03-07T20:07:42+0000
; FORMAT={-:-/ absolute / metric / decimal}
; #@! TF.CreationDate,2026-03-07T20:07:42+00:00
; #@! TF.GenerationSoftware,Kicad,Pcbnew,9.0.7-9.0.7~ubuntu24.04.1
; #@! TF.FileFunction,Plated,1,2,PTH
FMAT,2
METRIC
; #@! TA.AperFunction,Plated,PTH,ViaDrill
T1C0.300
; #@! TA.AperFunction,Plated,PTH,ViaDrill
T2C0.400
; #@! TA.AperFunction,Plated,PTH,ComponentDrill
T3C0.500
; #@! TA.AperFunction,Plated,PTH,ComponentDrill
T4C0.750
; #@! TA.AperFunction,Plated,PTH,ComponentDrill
T5C0.800
; #@! TA.AperFunction,Plated,PTH,ComponentDrill
T6C0.900
; #@! TA.AperFunction,Plated,PTH,ComponentDrill
T7C0.950
; #@! TA.AperFunction,Plated,PTH,ComponentDrill
T8C1.000
; #@! TA.AperFunction,Plated,PTH,ComponentDrill
T9C1.100
; #@! TA.AperFunction,Plated,PTH,ComponentDrill
T10C1.300
; #@! TA.AperFunction,Plated,PTH,ComponentDrill
T11C3.500
%
G90
G05
T1
X144.07Y-88.32
X161.2Y-88.24
T2
X104.0Y-118.0
X111.337Y-78.162
X114.5Y-119.0
X119.0Y-72.0
X119.25Y-111.075
X119.25Y-114.925
X120.49Y-78.0
X121.9Y-127.35
X123.9Y-112.425
X124.0Y-70.0
X124.02Y-97.65
X124.5Y-83.0
X124.5Y-87.0
X124.5Y-90.0
X125.0Y-94.5
X127.6Y-121.75
X129.5Y-97.5
X133.47Y-76.83
X136.02Y-76.74
X136.82Y-98.51
X136.906Y-88.9
X136.93Y-93.76
X137.5Y-72.5
X137.61Y-106.08
X158.0Y-61.0
X165.0Y-84.5
T3
X74.975Y-48.3
X74.975Y-140.0
X75.744Y-46.444
X75.744Y-50.156
X75.744Y-138.144
X75.744Y-141.856
X77.6Y-45.675
X77.6Y-50.925
X77.6Y-137.375
X77.6Y-142.625
X79.456Y-46.444
X79.456Y-50.156
X79.456Y-138.144
X79.456Y-141.856
X80.225Y-48.3
X80.225Y-140.0
X192.375Y-48.3
X192.375Y-140.0
X193.144Y-46.444
X193.144Y-50.156
X193.144Y-138.144
X193.144Y-141.856
X195.0Y-45.675
X195.0Y-50.925
X195.0Y-137.375
X195.0Y-142.625
X196.856Y-46.444
X196.856Y-50.156
X196.856Y-138.144
X196.856Y-141.856
X197.625Y-48.3
X197.625Y-140.0
T4
X174.25Y-54.35
X174.25Y-56.89
X175.52Y-55.62
T5
X82.55Y-64.77
X82.55Y-80.01
X82.55Y-95.25
X82.55Y-111.76
X82.55Y-127.0
X83.69Y-49.53
X85.09Y-69.85
X85.09Y-72.39
X85.09Y-74.93
X90.17Y-64.77
X90.17Y-80.01
X90.17Y-95.25
X90.17Y-111.76
X90.17Y-127.0
X91.31Y-49.53
X91.44Y-53.34
X91.44Y-60.96
X91.44Y-68.58
X91.44Y-76.2
X91.44Y-83.82
X91.44Y-91.44
X91.44Y-99.06
X91.44Y-106.68
X91.44Y-115.57
X91.44Y-123.19
X91.44Y-130.81
X91.44Y-138.43
X95.25Y-48.265
X95.25Y-55.885
X95.25Y-58.46
X95.25Y-60.96
X95.25Y-63.5
X95.25Y-71.12
X95.25Y-73.7
X95.25Y-76.2
X95.25Y-78.74
X95.25Y-86.36
X95.25Y-88.94
X95.25Y-91.44
X95.25Y-93.985
X95.25Y-101.605
X95.25Y-104.14
X95.25Y-106.64
X95.25Y-110.495
X95.25Y-118.115
X95.25Y-120.65
X95.25Y-123.15
X95.25Y-125.73
X95.25Y-133.35
X95.25Y-135.89
X95.25Y-138.39
X99.0Y-110.5
X100.0Y-97.5
X100.0Y-102.5
X101.0Y-110.5
X104.14Y-53.34
X104.14Y-60.96
X104.14Y-64.77
X104.14Y-72.39
X110.49Y-59.69
X110.49Y-67.31
X111.76Y-83.82
X111.76Y-91.44
X111.76Y-95.25
X111.76Y-102.87
X111.76Y-106.68
X111.76Y-114.3
X114.3Y-59.69
X114.3Y-67.31
X115.57Y-83.82
X115.57Y-91.44
X115.57Y-95.25
X115.57Y-102.87
X115.57Y-106.68
X115.57Y-114.3
X118.11Y-59.69
X118.11Y-67.31
X124.87Y-56.19
X124.87Y-63.81
X127.19Y-82.11
X127.19Y-84.65
X127.19Y-87.19
X127.19Y-89.73
X127.19Y-92.27
X127.19Y-94.81
X127.19Y-97.35
X127.19Y-99.89
X129.5Y-113.68
X129.5Y-115.68
X129.72Y-67.38
X129.72Y-75.0
X132.26Y-56.19
X132.26Y-63.81
X132.26Y-67.38
X132.26Y-75.0
X133.78Y-129.51
X133.78Y-132.05
X134.125Y-117.325
X134.125Y-124.945
X134.8Y-67.38
X134.8Y-75.0
X134.81Y-82.11
X134.81Y-84.65
X134.81Y-87.19
X134.81Y-89.73
X134.81Y-92.27
X134.81Y-94.81
X134.81Y-97.35
X134.81Y-99.89
X136.665Y-117.325
X136.665Y-124.945
X137.34Y-56.19
X137.34Y-63.81
X137.34Y-67.38
X137.34Y-75.0
X139.205Y-117.325
X139.205Y-124.945
X139.88Y-67.38
X139.88Y-75.0
X140.29Y-113.17
X140.716Y-95.758
X140.97Y-99.314
X141.224Y-102.87
X141.224Y-106.426
X141.4Y-129.51
X141.4Y-132.05
X141.745Y-117.325
X141.745Y-124.945
X142.29Y-113.17
X142.38Y-83.82
X142.38Y-91.44
X142.42Y-56.19
X142.42Y-63.81
X142.42Y-67.38
X142.42Y-75.0
X144.285Y-117.325
X144.285Y-124.945
X144.92Y-83.82
X144.92Y-91.44
X144.96Y-67.38
X144.96Y-75.0
X146.16Y-113.17
X146.825Y-117.325
X146.825Y-124.945
X147.44Y-78.75
X147.46Y-83.82
X147.46Y-91.44
X147.5Y-56.19
X147.5Y-63.81
X147.5Y-67.38
X147.5Y-75.0
X148.16Y-113.17
X148.336Y-95.758
X148.59Y-99.314
X148.844Y-102.87
X148.844Y-106.426
X149.365Y-117.325
X149.365Y-124.945
X150.0Y-83.82
X150.0Y-91.44
X151.75Y-56.19
X151.75Y-63.81
X151.905Y-117.325
X151.905Y-124.945
X152.02Y-113.06
X152.54Y-83.82
X152.54Y-91.44
X154.02Y-113.06
X155.0Y-67.44
X155.0Y-75.06
X155.06Y-78.75
X155.08Y-83.82
X155.08Y-91.44
X155.5Y-56.19
X155.5Y-63.81
X157.26Y-119.36
X157.26Y-121.36
X157.62Y-83.82
X157.62Y-91.44
X160.16Y-83.82
X160.16Y-91.44
X162.5Y-56.77
X162.7Y-83.82
X162.7Y-91.44
X167.5Y-62.23
X167.5Y-64.77
X167.5Y-67.31
X167.5Y-69.85
X167.5Y-72.39
X167.5Y-74.93
X167.5Y-77.47
X167.5Y-80.01
X167.5Y-82.55
X167.5Y-85.09
X167.5Y-87.63
X167.5Y-90.17
X167.5Y-92.71
X167.5Y-95.25
X170.12Y-56.77
X174.752Y-100.838
X175.12Y-62.23
X175.12Y-64.77
X175.12Y-67.31
X175.12Y-69.85
X175.12Y-72.39
X175.12Y-74.93
X175.12Y-77.47
X175.12Y-80.01
X175.12Y-82.55
X175.12Y-85.09
X175.12Y-87.63
X175.12Y-90.17
X175.12Y-92.71
X175.12Y-95.25
X178.0Y-123.0
X179.21Y-49.17
X179.23Y-52.86
X179.752Y-100.838
X180.0Y-62.23
X180.0Y-64.77
X180.0Y-67.31
X180.0Y-69.85
X180.0Y-72.39
X180.0Y-74.93
X180.0Y-77.47
X180.0Y-80.01
X180.0Y-82.55
X180.0Y-87.67
X180.0Y-92.67
X180.0Y-123.0
X186.83Y-49.17
X186.85Y-52.86
X187.62Y-62.23
X187.62Y-64.77
X187.62Y-67.31
X187.62Y-69.85
X187.62Y-72.39
X187.62Y-74.93
X187.62Y-77.47
X187.62Y-80.01
X187.62Y-82.55
X189.9Y-111.56
X191.9Y-111.56
T6
X106.68Y-80.61
X106.68Y-83.15
X106.68Y-85.69
X106.68Y-88.23
X106.68Y-90.77
X106.68Y-93.31
X106.68Y-95.85
X106.68Y-98.39
X106.68Y-100.93
X106.68Y-103.47
X106.68Y-106.01
X106.68Y-108.55
X106.68Y-111.09
X106.68Y-113.63
X106.68Y-116.17
X106.68Y-118.71
X106.68Y-121.25
X121.92Y-80.61
X121.92Y-83.15
X121.92Y-85.69
X121.92Y-88.23
X121.92Y-90.77
X121.92Y-93.31
X121.92Y-95.85
X121.92Y-98.39
X121.92Y-100.93
X121.92Y-103.47
X121.92Y-106.01
X121.92Y-108.55
X121.92Y-111.09
X121.92Y-113.63
X121.92Y-116.17
X121.92Y-118.71
X121.92Y-121.25
T7
X77.5Y-100.41
X77.5Y-102.91
X77.5Y-105.41
X77.5Y-125.0
X77.5Y-127.5
X77.5Y-130.0
X100.725Y-140.0
X103.225Y-140.0
X105.725Y-140.0
X108.225Y-140.0
X111.82Y-130.73
X114.32Y-130.73
X114.38Y-47.5
X114.41Y-52.66
X116.82Y-130.73
X116.88Y-47.5
X116.91Y-52.66
X119.38Y-47.5
X119.41Y-52.66
X134.74Y-47.5
X137.24Y-47.5
X139.74Y-47.5
X153.54Y-140.0
X156.04Y-140.0
X158.54Y-140.0
X161.04Y-140.0
X163.91Y-47.5
X166.41Y-47.5
X167.5Y-140.0
X168.91Y-47.5
X170.0Y-140.0
X171.41Y-47.5
X172.5Y-140.0
X175.0Y-140.0
X182.5Y-140.0
X185.0Y-140.0
X187.5Y-140.0
X195.5Y-62.764
X195.5Y-65.264
X195.5Y-67.764
X195.5Y-70.264
X195.5Y-72.764
X195.5Y-75.264
X195.5Y-77.764
X195.5Y-80.264
T8
X77.5Y-55.92
X77.5Y-58.42
X77.5Y-71.16
X77.5Y-73.66
X105.44Y-47.5
X107.94Y-47.5
X114.575Y-140.0
X117.075Y-140.0
X123.4Y-140.0
X125.86Y-47.5
X125.9Y-140.0
X128.36Y-47.5
X132.25Y-140.0
X134.75Y-140.0
X141.03Y-140.0
X143.53Y-140.0
X146.0Y-47.5
X148.5Y-47.5
X154.84Y-47.5
X157.34Y-47.5
X177.553Y-114.207
X180.093Y-114.207
X182.633Y-114.207
X195.5Y-87.25
X195.5Y-89.75
X195.5Y-118.84
X195.5Y-121.34
X195.5Y-127.6
X195.5Y-130.1
T9
X187.5Y-96.15
X187.5Y-102.5
X192.3Y-96.15
X192.3Y-102.5
T10
X187.5Y-120.722
X187.5Y-123.722
T11
X77.6Y-48.3
X77.6Y-140.0
X195.0Y-48.3
X195.0Y-140.0
M30
