%TF.GenerationSoftware,KiCad,Pcbnew,8.0.8-8.0.8-0~ubuntu24.04.1*%
%TF.CreationDate,2025-02-11T18:51:58+00:00*%
%TF.ProjectId,kicad-all-band-amp,6b696361-642d-4616-9c6c-2d62616e642d,rev?*%
%TF.SameCoordinates,Original*%
%TF.FileFunction,Copper,L3,Inr*%
%TF.FilePolarity,Positive*%
%FSLAX46Y46*%
G04 Gerber Fmt 4.6, Leading zero omitted, Abs format (unit mm)*
G04 Created by KiCad (PCBNEW 8.0.8-8.0.8-0~ubuntu24.04.1) date 2025-02-11 18:51:58*
%MOMM*%
%LPD*%
G01*
G04 APERTURE LIST*
G04 Aperture macros list*
%AMRoundRect*
0 Rectangle with rounded corners*
0 $1 Rounding radius*
0 $2 $3 $4 $5 $6 $7 $8 $9 X,Y pos of 4 corners*
0 Add a 4 corners polygon primitive as box body*
4,1,4,$2,$3,$4,$5,$6,$7,$8,$9,$2,$3,0*
0 Add four circle primitives for the rounded corners*
1,1,$1+$1,$2,$3*
1,1,$1+$1,$4,$5*
1,1,$1+$1,$6,$7*
1,1,$1+$1,$8,$9*
0 Add four rect primitives between the rounded corners*
20,1,$1+$1,$2,$3,$4,$5,0*
20,1,$1+$1,$4,$5,$6,$7,0*
20,1,$1+$1,$6,$7,$8,$9,0*
20,1,$1+$1,$8,$9,$2,$3,0*%
G04 Aperture macros list end*
%TA.AperFunction,ComponentPad*%
%ADD10R,1.600000X1.600000*%
%TD*%
%TA.AperFunction,ComponentPad*%
%ADD11O,1.600000X1.600000*%
%TD*%
%TA.AperFunction,ComponentPad*%
%ADD12C,1.440000*%
%TD*%
%TA.AperFunction,ComponentPad*%
%ADD13R,1.500000X1.500000*%
%TD*%
%TA.AperFunction,ComponentPad*%
%ADD14O,1.500000X1.500000*%
%TD*%
%TA.AperFunction,ComponentPad*%
%ADD15C,1.600000*%
%TD*%
%TA.AperFunction,ComponentPad*%
%ADD16RoundRect,0.250000X-0.600000X-0.725000X0.600000X-0.725000X0.600000X0.725000X-0.600000X0.725000X0*%
%TD*%
%TA.AperFunction,ComponentPad*%
%ADD17O,1.700000X1.950000*%
%TD*%
%TA.AperFunction,ComponentPad*%
%ADD18RoundRect,0.250000X0.750000X-0.600000X0.750000X0.600000X-0.750000X0.600000X-0.750000X-0.600000X0*%
%TD*%
%TA.AperFunction,ComponentPad*%
%ADD19O,2.000000X1.700000*%
%TD*%
%TA.AperFunction,ComponentPad*%
%ADD20RoundRect,0.250000X0.600000X0.750000X-0.600000X0.750000X-0.600000X-0.750000X0.600000X-0.750000X0*%
%TD*%
%TA.AperFunction,ComponentPad*%
%ADD21O,1.700000X2.000000*%
%TD*%
%TA.AperFunction,ComponentPad*%
%ADD22RoundRect,0.250000X0.725000X-0.600000X0.725000X0.600000X-0.725000X0.600000X-0.725000X-0.600000X0*%
%TD*%
%TA.AperFunction,ComponentPad*%
%ADD23O,1.950000X1.700000*%
%TD*%
%TA.AperFunction,ComponentPad*%
%ADD24RoundRect,0.250000X-0.600000X-0.750000X0.600000X-0.750000X0.600000X0.750000X-0.600000X0.750000X0*%
%TD*%
%TA.AperFunction,ComponentPad*%
%ADD25C,0.800000*%
%TD*%
%TA.AperFunction,ComponentPad*%
%ADD26C,6.400000*%
%TD*%
%TA.AperFunction,ComponentPad*%
%ADD27R,1.500000X2.300000*%
%TD*%
%TA.AperFunction,ComponentPad*%
%ADD28O,1.500000X2.300000*%
%TD*%
%TA.AperFunction,ComponentPad*%
%ADD29RoundRect,0.250000X0.600000X0.725000X-0.600000X0.725000X-0.600000X-0.725000X0.600000X-0.725000X0*%
%TD*%
%TA.AperFunction,ComponentPad*%
%ADD30C,2.600000*%
%TD*%
%TA.AperFunction,ComponentPad*%
%ADD31RoundRect,0.250000X-0.725000X0.600000X-0.725000X-0.600000X0.725000X-0.600000X0.725000X0.600000X0*%
%TD*%
%TA.AperFunction,ComponentPad*%
%ADD32RoundRect,0.250001X-0.899999X-0.899999X0.899999X-0.899999X0.899999X0.899999X-0.899999X0.899999X0*%
%TD*%
%TA.AperFunction,ComponentPad*%
%ADD33C,2.300000*%
%TD*%
%TA.AperFunction,ComponentPad*%
%ADD34RoundRect,0.250001X0.899999X0.899999X-0.899999X0.899999X-0.899999X-0.899999X0.899999X-0.899999X0*%
%TD*%
%TA.AperFunction,ViaPad*%
%ADD35C,0.900000*%
%TD*%
%TA.AperFunction,ViaPad*%
%ADD36C,0.600000*%
%TD*%
G04 APERTURE END LIST*
D10*
%TO.N,Net-(U2-GPB7)*%
%TO.C,U5*%
X162700000Y-83820000D03*
D11*
X160160000Y-83820000D03*
%TO.N,Net-(U2-GPB6)*%
X157620000Y-83820000D03*
X155080000Y-83820000D03*
%TO.N,Net-(U2-GPB5)*%
X152540000Y-83820000D03*
X150000000Y-83820000D03*
%TO.N,Net-(U2-GPB4)*%
X147460000Y-83820000D03*
X144920000Y-83820000D03*
%TO.N,VPP*%
X142380000Y-83820000D03*
%TO.N,GND*%
X142380000Y-91440000D03*
%TO.N,Net-(J13-Pin_4)*%
X144920000Y-91440000D03*
X147460000Y-91440000D03*
%TO.N,Net-(J13-Pin_3)*%
X150000000Y-91440000D03*
X152540000Y-91440000D03*
%TO.N,Net-(J13-Pin_2)*%
X155080000Y-91440000D03*
X157620000Y-91440000D03*
%TO.N,Net-(J13-Pin_1)*%
X160160000Y-91440000D03*
X162700000Y-91440000D03*
%TD*%
D12*
%TO.N,/RF_LEVEL*%
%TO.C,RV6*%
X85090000Y-54610000D03*
%TO.N,/A4*%
X85090000Y-57150000D03*
%TO.N,GND*%
X85090000Y-59690000D03*
%TD*%
D13*
%TO.N,/A4*%
%TO.C,D6*%
X95250000Y-55885000D03*
D14*
%TO.N,GND*%
X95250000Y-48265000D03*
%TD*%
D15*
%TO.N,Net-(J7-Pin_4)*%
%TO.C,R16*%
X147500000Y-56190000D03*
D11*
%TO.N,Net-(R16-Pad2)*%
X147500000Y-63810000D03*
%TD*%
D16*
%TO.N,GND*%
%TO.C,J6*%
X114380000Y-47500000D03*
D17*
%TO.N,/A2*%
X116880000Y-47500000D03*
%TO.N,+5V*%
X119380000Y-47500000D03*
%TD*%
D15*
%TO.N,/A4*%
%TO.C,C6*%
X95250000Y-58460000D03*
%TO.N,GND*%
X95250000Y-60960000D03*
%TD*%
%TO.N,/currrent*%
%TO.C,R5*%
X82550000Y-64770000D03*
D11*
%TO.N,/A5*%
X90170000Y-64770000D03*
%TD*%
D15*
%TO.N,+5V*%
%TO.C,C9*%
X100000000Y-102500000D03*
%TO.N,GND*%
X100000000Y-97500000D03*
%TD*%
D13*
%TO.N,/A6*%
%TO.C,D2*%
X95250000Y-86360000D03*
D14*
%TO.N,GND*%
X95250000Y-78740000D03*
%TD*%
D18*
%TO.N,GND*%
%TO.C,J4*%
X77470000Y-58420000D03*
D19*
%TO.N,/RF_LEVEL*%
X77470000Y-55920000D03*
%TD*%
D20*
%TO.N,Net-(A1-RXD2)*%
%TO.C,J14*%
X132100000Y-140000000D03*
D21*
%TO.N,Net-(A1-TXD2)*%
X129600000Y-140000000D03*
%TD*%
D15*
%TO.N,/A26*%
%TO.C,R8*%
X91440000Y-115570000D03*
D11*
%TO.N,GND*%
X91440000Y-123190000D03*
%TD*%
D22*
%TO.N,GND*%
%TO.C,J2*%
X77500000Y-105410000D03*
D23*
%TO.N,/REV2*%
X77500000Y-102910000D03*
%TO.N,/FWD2*%
X77500000Y-100410000D03*
%TD*%
D15*
%TO.N,/A5*%
%TO.C,C3*%
X95250000Y-73700000D03*
%TO.N,GND*%
X95250000Y-76200000D03*
%TD*%
D24*
%TO.N,GND*%
%TO.C,J17*%
X127040000Y-47500000D03*
D21*
%TO.N,/PWM*%
X129540000Y-47500000D03*
%TD*%
D25*
%TO.N,GND*%
%TO.C,H1*%
X192600000Y-140100000D03*
X193302944Y-138402944D03*
X193302944Y-141797056D03*
X195000000Y-137700000D03*
D26*
X195000000Y-140100000D03*
D25*
X195000000Y-142500000D03*
X196697056Y-138402944D03*
X196697056Y-141797056D03*
X197400000Y-140100000D03*
%TD*%
D13*
%TO.N,/A7*%
%TO.C,D1*%
X95250000Y-101605000D03*
D14*
%TO.N,GND*%
X95250000Y-93985000D03*
%TD*%
D16*
%TO.N,Net-(J7-Pin_1)*%
%TO.C,J7*%
X137220000Y-47200000D03*
D17*
%TO.N,Net-(J7-Pin_2)*%
X139720000Y-47200000D03*
%TO.N,Net-(J7-Pin_3)*%
X142220000Y-47200000D03*
%TO.N,Net-(J7-Pin_4)*%
X144720000Y-47200000D03*
%TD*%
D27*
%TO.N,VD*%
%TO.C,U6*%
X177553000Y-114207500D03*
D28*
%TO.N,GND*%
X180093000Y-114207500D03*
%TO.N,+5F*%
X182633000Y-114207500D03*
%TD*%
D15*
%TO.N,/D8*%
%TO.C,R30*%
X115570000Y-95250000D03*
D11*
%TO.N,+5V*%
X115570000Y-102870000D03*
%TD*%
D10*
%TO.N,Net-(U2-GPA7)*%
%TO.C,U4*%
X180000000Y-62230000D03*
D11*
%TO.N,Net-(U2-GPA6)*%
X180000000Y-64770000D03*
%TO.N,Net-(U2-GPA5)*%
X180000000Y-67310000D03*
%TO.N,Net-(U2-GPA4)*%
X180000000Y-69850000D03*
%TO.N,Net-(U2-GPA3)*%
X180000000Y-72390000D03*
%TO.N,Net-(U2-GPA2)*%
X180000000Y-74930000D03*
%TO.N,Net-(U2-GPA1)*%
X180000000Y-77470000D03*
%TO.N,Net-(U2-GPA0)*%
X180000000Y-80010000D03*
%TO.N,VCC*%
X180000000Y-82550000D03*
%TO.N,GND*%
X187620000Y-82550000D03*
%TO.N,Net-(J11-Pin_8)*%
X187620000Y-80010000D03*
%TO.N,Net-(J11-Pin_7)*%
X187620000Y-77470000D03*
%TO.N,Net-(J11-Pin_6)*%
X187620000Y-74930000D03*
%TO.N,Net-(J11-Pin_5)*%
X187620000Y-72390000D03*
%TO.N,Net-(J11-Pin_4)*%
X187620000Y-69850000D03*
%TO.N,Net-(J11-Pin_3)*%
X187620000Y-67310000D03*
%TO.N,Net-(J11-Pin_2)*%
X187620000Y-64770000D03*
%TO.N,Net-(J11-Pin_1)*%
X187620000Y-62230000D03*
%TD*%
D15*
%TO.N,Net-(J7-Pin_1)*%
%TO.C,R19*%
X132260000Y-56190000D03*
D11*
%TO.N,Net-(R19-Pad2)*%
X132260000Y-63810000D03*
%TD*%
D13*
%TO.N,/A5*%
%TO.C,D3*%
X95250000Y-71120000D03*
D14*
%TO.N,GND*%
X95250000Y-63500000D03*
%TD*%
D29*
%TO.N,GND*%
%TO.C,J19*%
X187500000Y-140000000D03*
D17*
%TO.N,VCC*%
X185000000Y-140000000D03*
%TO.N,+5F*%
X182500000Y-140000000D03*
%TD*%
D15*
%TO.N,/D12*%
%TO.C,R20*%
X154000000Y-76810000D03*
D11*
%TO.N,+5V*%
X154000000Y-69190000D03*
%TD*%
D29*
%TO.N,Net-(J13-Pin_1)*%
%TO.C,J13*%
X175000000Y-140000000D03*
D17*
%TO.N,Net-(J13-Pin_2)*%
X172500000Y-140000000D03*
%TO.N,Net-(J13-Pin_3)*%
X170000000Y-140000000D03*
%TO.N,Net-(J13-Pin_4)*%
X167500000Y-140000000D03*
%TD*%
D29*
%TO.N,GND*%
%TO.C,J9*%
X109000000Y-140000000D03*
D17*
%TO.N,/SDA*%
X106500000Y-140000000D03*
%TO.N,/SCL*%
X104000000Y-140000000D03*
%TO.N,+5V*%
X101500000Y-140000000D03*
%TD*%
D30*
%TO.N,Net-(A1-UDPI)*%
%TO.C,J18*%
X121500000Y-127500000D03*
%TD*%
D15*
%TO.N,/D9*%
%TO.C,R31*%
X111760000Y-95250000D03*
D11*
%TO.N,+5V*%
X111760000Y-102870000D03*
%TD*%
D15*
%TO.N,/A11*%
%TO.C,R14*%
X104140000Y-64770000D03*
D11*
%TO.N,GND*%
X104140000Y-72390000D03*
%TD*%
D15*
%TO.N,/RF_LEVEL*%
%TO.C,R11*%
X83690000Y-49530000D03*
D11*
%TO.N,/A4*%
X91310000Y-49530000D03*
%TD*%
D15*
%TO.N,/D23*%
%TO.C,R21*%
X118110000Y-67310000D03*
D11*
%TO.N,+5V*%
X118110000Y-59690000D03*
%TD*%
D15*
%TO.N,/A24*%
%TO.C,R10*%
X91440000Y-130810000D03*
D11*
%TO.N,GND*%
X91440000Y-138430000D03*
%TD*%
D15*
%TO.N,Net-(J10-Pin_2)*%
%TO.C,R28*%
X147000000Y-123310000D03*
D11*
%TO.N,Net-(R28-Pad2)*%
X147000000Y-115690000D03*
%TD*%
D24*
%TO.N,GND*%
%TO.C,J16*%
X152440000Y-47500000D03*
D21*
%TO.N,Net-(J16-Pin_2)*%
X154940000Y-47500000D03*
%TD*%
D15*
%TO.N,/A2*%
%TO.C,R15*%
X111760000Y-55000000D03*
D11*
%TO.N,+5V*%
X119380000Y-55000000D03*
%TD*%
D20*
%TO.N,GND*%
%TO.C,J8*%
X159500000Y-140000000D03*
D21*
%TO.N,VCC*%
X157000000Y-140000000D03*
%TD*%
D13*
%TO.N,/A26*%
%TO.C,D4*%
X95250000Y-118115000D03*
D14*
%TO.N,GND*%
X95250000Y-110495000D03*
%TD*%
D15*
%TO.N,/A26*%
%TO.C,C4*%
X95250000Y-120650000D03*
%TO.N,GND*%
X95250000Y-123150000D03*
%TD*%
D12*
%TO.N,/currrent*%
%TO.C,RV3*%
X85090000Y-69850000D03*
%TO.N,/A5*%
X85090000Y-72390000D03*
%TO.N,GND*%
X85090000Y-74930000D03*
%TD*%
D31*
%TO.N,Net-(J11-Pin_1)*%
%TO.C,J11*%
X195000000Y-62500000D03*
D23*
%TO.N,Net-(J11-Pin_2)*%
X195000000Y-65000000D03*
%TO.N,Net-(J11-Pin_3)*%
X195000000Y-67500000D03*
%TO.N,Net-(J11-Pin_4)*%
X195000000Y-70000000D03*
%TO.N,Net-(J11-Pin_5)*%
X195000000Y-72500000D03*
%TO.N,Net-(J11-Pin_6)*%
X195000000Y-75000000D03*
%TO.N,Net-(J11-Pin_7)*%
X195000000Y-77500000D03*
%TO.N,Net-(J11-Pin_8)*%
X195000000Y-80000000D03*
%TD*%
D10*
%TO.N,Net-(R16-Pad2)*%
%TO.C,U1*%
X147500000Y-67380000D03*
D11*
%TO.N,GND*%
X144960000Y-67380000D03*
%TO.N,Net-(R17-Pad2)*%
X142420000Y-67380000D03*
%TO.N,GND*%
X139880000Y-67380000D03*
%TO.N,Net-(R18-Pad2)*%
X137340000Y-67380000D03*
%TO.N,GND*%
X134800000Y-67380000D03*
%TO.N,Net-(R19-Pad2)*%
X132260000Y-67380000D03*
%TO.N,GND*%
X129720000Y-67380000D03*
X129720000Y-75000000D03*
%TO.N,/D15*%
X132260000Y-75000000D03*
%TO.N,GND*%
X134800000Y-75000000D03*
%TO.N,/D14*%
X137340000Y-75000000D03*
%TO.N,GND*%
X139880000Y-75000000D03*
%TO.N,/D23*%
X142420000Y-75000000D03*
%TO.N,GND*%
X144960000Y-75000000D03*
%TO.N,/D12*%
X147500000Y-75000000D03*
%TD*%
D15*
%TO.N,/50V_IN*%
%TO.C,R13*%
X104140000Y-53340000D03*
D11*
%TO.N,/A11*%
X104140000Y-60960000D03*
%TD*%
D15*
%TO.N,/A6*%
%TO.C,R4*%
X91440000Y-83820000D03*
D11*
%TO.N,GND*%
X91440000Y-91440000D03*
%TD*%
D15*
%TO.N,Net-(J10-Pin_4)*%
%TO.C,R26*%
X139380000Y-123310000D03*
D11*
%TO.N,Net-(R26-Pad2)*%
X139380000Y-115690000D03*
%TD*%
D12*
%TO.N,/REV2*%
%TO.C,RV2*%
X85090000Y-85090000D03*
%TO.N,/A6*%
X85090000Y-87630000D03*
%TO.N,GND*%
X85090000Y-90170000D03*
%TD*%
D15*
%TO.N,/A24*%
%TO.C,C5*%
X95250000Y-135890000D03*
%TO.N,GND*%
X95250000Y-138390000D03*
%TD*%
D20*
%TO.N,Net-(A1-RXD0)*%
%TO.C,J15*%
X120750000Y-140000000D03*
D21*
%TO.N,Net-(A1-TXD0)*%
X118250000Y-140000000D03*
%TD*%
D25*
%TO.N,GND*%
%TO.C,H2*%
X75200000Y-140000000D03*
X75902944Y-138302944D03*
X75902944Y-141697056D03*
X77600000Y-137600000D03*
D26*
X77600000Y-140000000D03*
D25*
X77600000Y-142400000D03*
X79297056Y-138302944D03*
X79297056Y-141697056D03*
X80000000Y-140000000D03*
%TD*%
D15*
%TO.N,/REV2*%
%TO.C,R3*%
X82550000Y-80010000D03*
D11*
%TO.N,/A6*%
X90170000Y-80010000D03*
%TD*%
D16*
%TO.N,Net-(J12-Pin_1)*%
%TO.C,J12*%
X163910000Y-47500000D03*
D17*
%TO.N,Net-(J12-Pin_2)*%
X166410000Y-47500000D03*
%TO.N,Net-(J12-Pin_3)*%
X168910000Y-47500000D03*
%TO.N,Net-(J12-Pin_4)*%
X171410000Y-47500000D03*
%TD*%
D15*
%TO.N,/A7*%
%TO.C,C1*%
X95250000Y-104140000D03*
%TO.N,GND*%
X95250000Y-106640000D03*
%TD*%
D24*
%TO.N,GND*%
%TO.C,J5*%
X104180000Y-47500000D03*
D21*
%TO.N,/50V_IN*%
X106680000Y-47500000D03*
%TD*%
D25*
%TO.N,GND*%
%TO.C,H3*%
X192700000Y-48302944D03*
X193402944Y-46605888D03*
X193402944Y-50000000D03*
X195100000Y-45902944D03*
D26*
X195100000Y-48302944D03*
D25*
X195100000Y-50702944D03*
X196797056Y-46605888D03*
X196797056Y-50000000D03*
X197500000Y-48302944D03*
%TD*%
D15*
%TO.N,/D14*%
%TO.C,R22*%
X114300000Y-67310000D03*
D11*
%TO.N,+5V*%
X114300000Y-59690000D03*
%TD*%
D15*
%TO.N,/A7*%
%TO.C,R2*%
X91440000Y-99060000D03*
D11*
%TO.N,GND*%
X91440000Y-106680000D03*
%TD*%
D15*
%TO.N,Net-(J16-Pin_2)*%
%TO.C,R34*%
X155500000Y-56190000D03*
D11*
%TO.N,/D13*%
X155500000Y-63810000D03*
%TD*%
%TO.N,+5V*%
%TO.C,R33*%
X111760000Y-83820000D03*
D15*
%TO.N,/D11*%
X111760000Y-91440000D03*
%TD*%
%TO.N,/A5*%
%TO.C,R6*%
X91440000Y-68580000D03*
D11*
%TO.N,GND*%
X91440000Y-76200000D03*
%TD*%
D15*
%TO.N,Net-(J7-Pin_2)*%
%TO.C,R18*%
X137340000Y-56190000D03*
D11*
%TO.N,Net-(R18-Pad2)*%
X137340000Y-63810000D03*
%TD*%
D12*
%TO.N,/REV1*%
%TO.C,RV4*%
X85090000Y-116840000D03*
%TO.N,/A26*%
X85090000Y-119380000D03*
%TO.N,GND*%
X85090000Y-121920000D03*
%TD*%
D15*
%TO.N,/D15*%
%TO.C,R23*%
X110490000Y-67310000D03*
D11*
%TO.N,+5V*%
X110490000Y-59690000D03*
%TD*%
D15*
%TO.N,/FWD2*%
%TO.C,R1*%
X82550000Y-95250000D03*
D11*
%TO.N,/A7*%
X90170000Y-95250000D03*
%TD*%
D15*
%TO.N,/A4*%
%TO.C,R12*%
X91440000Y-53340000D03*
D11*
%TO.N,GND*%
X91440000Y-60960000D03*
%TD*%
D22*
%TO.N,GND*%
%TO.C,J1*%
X77500000Y-130000000D03*
D23*
%TO.N,/REV1*%
X77500000Y-127500000D03*
%TO.N,/FWD1*%
X77500000Y-125000000D03*
%TD*%
D13*
%TO.N,/A24*%
%TO.C,D5*%
X95250000Y-133350000D03*
D14*
%TO.N,GND*%
X95250000Y-125730000D03*
%TD*%
D15*
%TO.N,Net-(J10-Pin_3)*%
%TO.C,R27*%
X143190000Y-123310000D03*
D11*
%TO.N,Net-(R27-Pad2)*%
X143190000Y-115690000D03*
%TD*%
D15*
%TO.N,/FWD1*%
%TO.C,R9*%
X82550000Y-127000000D03*
D11*
%TO.N,/A24*%
X90170000Y-127000000D03*
%TD*%
D10*
%TO.N,Net-(R26-Pad2)*%
%TO.C,U3*%
X134810000Y-99890000D03*
D11*
%TO.N,GND*%
X134810000Y-97350000D03*
%TO.N,Net-(R27-Pad2)*%
X134810000Y-94810000D03*
%TO.N,GND*%
X134810000Y-92270000D03*
%TO.N,Net-(R28-Pad2)*%
X134810000Y-89730000D03*
%TO.N,GND*%
X134810000Y-87190000D03*
%TO.N,Net-(R29-Pad2)*%
X134810000Y-84650000D03*
%TO.N,GND*%
X134810000Y-82110000D03*
X127190000Y-82110000D03*
%TO.N,/D11*%
X127190000Y-84650000D03*
%TO.N,GND*%
X127190000Y-87190000D03*
%TO.N,/D10*%
X127190000Y-89730000D03*
%TO.N,GND*%
X127190000Y-92270000D03*
%TO.N,/D9*%
X127190000Y-94810000D03*
%TO.N,GND*%
X127190000Y-97350000D03*
%TO.N,/D8*%
X127190000Y-99890000D03*
%TD*%
D15*
%TO.N,Net-(J10-Pin_1)*%
%TO.C,R29*%
X150810000Y-123310000D03*
D11*
%TO.N,Net-(R29-Pad2)*%
X150810000Y-115690000D03*
%TD*%
D10*
%TO.N,Net-(A1-UDPI)*%
%TO.C,A1*%
X121920000Y-121250000D03*
D11*
%TO.N,Net-(A1-TXD0)*%
X121920000Y-118710000D03*
%TO.N,Net-(A1-RXD0)*%
X121920000Y-116170000D03*
%TO.N,unconnected-(A1-RST_D26-Pad4)*%
X121920000Y-113630000D03*
%TO.N,GND*%
X121920000Y-111090000D03*
%TO.N,Net-(A1-TXD2)*%
X121920000Y-108550000D03*
%TO.N,Net-(A1-RXD2)*%
X121920000Y-106010000D03*
%TO.N,/SDA*%
X121920000Y-103470000D03*
%TO.N,/SCL*%
X121920000Y-100930000D03*
%TO.N,/D6*%
X121920000Y-98390000D03*
%TO.N,/D7*%
X121920000Y-95850000D03*
%TO.N,/D8*%
X121920000Y-93310000D03*
%TO.N,/D9*%
X121920000Y-90770000D03*
%TO.N,/D10*%
X121920000Y-88230000D03*
%TO.N,/D11*%
X121920000Y-85690000D03*
%TO.N,/D12*%
X121920000Y-83150000D03*
%TO.N,/PWM*%
X121920000Y-80610000D03*
%TO.N,/A24*%
X106680000Y-121250000D03*
%TO.N,VCC*%
X106680000Y-118710000D03*
%TO.N,GND*%
X106680000Y-116170000D03*
%TO.N,/A26*%
X106680000Y-113630000D03*
%TO.N,+5V*%
X106680000Y-111090000D03*
%TO.N,/A7*%
X106680000Y-108550000D03*
%TO.N,/A6*%
X106680000Y-106010000D03*
%TO.N,/A5*%
X106680000Y-103470000D03*
%TO.N,/A4*%
X106680000Y-100930000D03*
%TO.N,unconnected-(A1-D17{slash}A3-Pad27)*%
X106680000Y-98390000D03*
%TO.N,/A2*%
X106680000Y-95850000D03*
%TO.N,/D15*%
X106680000Y-93310000D03*
%TO.N,/D14*%
X106680000Y-90770000D03*
%TO.N,/A11*%
X106680000Y-88230000D03*
%TO.N,unconnected-(A1-+3.3v-Pad32)*%
X106680000Y-85690000D03*
%TO.N,/D13*%
X106680000Y-83150000D03*
%TO.N,/D23*%
X106680000Y-80610000D03*
%TD*%
D15*
%TO.N,+5V*%
%TO.C,R24*%
X115570000Y-114300000D03*
D11*
%TO.N,/SDA*%
X115570000Y-106680000D03*
%TD*%
D15*
%TO.N,/REV1*%
%TO.C,R7*%
X82550000Y-111760000D03*
D11*
%TO.N,/A26*%
X90170000Y-111760000D03*
%TD*%
D18*
%TO.N,GND*%
%TO.C,J3*%
X77500000Y-73660000D03*
D19*
%TO.N,/currrent*%
X77500000Y-71160000D03*
%TD*%
D29*
%TO.N,Net-(J10-Pin_1)*%
%TO.C,J10*%
X148500000Y-140000000D03*
D17*
%TO.N,Net-(J10-Pin_2)*%
X146000000Y-140000000D03*
%TO.N,Net-(J10-Pin_3)*%
X143500000Y-140000000D03*
%TO.N,Net-(J10-Pin_4)*%
X141000000Y-140000000D03*
%TD*%
D15*
%TO.N,/D13*%
%TO.C,R35*%
X151750000Y-63810000D03*
D11*
%TO.N,GND*%
X151750000Y-56190000D03*
%TD*%
D15*
%TO.N,/D10*%
%TO.C,R32*%
X115570000Y-91440000D03*
D11*
%TO.N,+5V*%
X115570000Y-83820000D03*
%TD*%
D15*
%TO.N,GND*%
%TO.C,C8*%
X180000000Y-92670000D03*
%TO.N,+5V*%
X180000000Y-87670000D03*
%TD*%
D32*
%TO.N,+5F*%
%TO.C,JP2*%
X187500000Y-102500000D03*
D33*
%TO.N,VPP*%
X192300000Y-102500000D03*
%TD*%
D34*
%TO.N,VCC*%
%TO.C,JP1*%
X192300000Y-96150000D03*
D33*
%TO.N,VPP*%
X187500000Y-96150000D03*
%TD*%
D10*
%TO.N,VD*%
%TO.C,C10*%
X178000000Y-123000000D03*
D15*
%TO.N,GND*%
X180000000Y-123000000D03*
%TD*%
%TO.N,/A6*%
%TO.C,C2*%
X95250000Y-88940000D03*
%TO.N,GND*%
X95250000Y-91440000D03*
%TD*%
D10*
%TO.N,+5V*%
%TO.C,C7*%
X102330000Y-110490000D03*
D15*
%TO.N,GND*%
X100330000Y-110490000D03*
%TD*%
D30*
%TO.N,VD*%
%TO.C,L1*%
X187500000Y-123722500D03*
%TO.N,VCC*%
X187500000Y-120722500D03*
%TD*%
D12*
%TO.N,/FWD2*%
%TO.C,RV1*%
X85090000Y-100330000D03*
%TO.N,/A7*%
X85090000Y-102870000D03*
%TO.N,GND*%
X85090000Y-105410000D03*
%TD*%
D15*
%TO.N,Net-(J7-Pin_3)*%
%TO.C,R17*%
X142420000Y-56190000D03*
D11*
%TO.N,Net-(R17-Pad2)*%
X142420000Y-63810000D03*
%TD*%
D15*
%TO.N,+5V*%
%TO.C,R25*%
X111760000Y-114300000D03*
D11*
%TO.N,/SCL*%
X111760000Y-106680000D03*
%TD*%
D25*
%TO.N,GND*%
%TO.C,H4*%
X74897056Y-48302944D03*
X75600000Y-46605888D03*
X75600000Y-50000000D03*
X77297056Y-45902944D03*
D26*
X77297056Y-48302944D03*
D25*
X77297056Y-50702944D03*
X78994112Y-46605888D03*
X78994112Y-50000000D03*
X79697056Y-48302944D03*
%TD*%
D12*
%TO.N,/FWD1*%
%TO.C,RV5*%
X85090000Y-132080000D03*
%TO.N,/A24*%
X85090000Y-134620000D03*
%TO.N,GND*%
X85090000Y-137160000D03*
%TD*%
D10*
%TO.N,Net-(J12-Pin_4)*%
%TO.C,U2*%
X167500000Y-62230000D03*
D11*
%TO.N,Net-(J12-Pin_3)*%
X167500000Y-64770000D03*
%TO.N,Net-(J12-Pin_2)*%
X167500000Y-67310000D03*
%TO.N,Net-(J12-Pin_1)*%
X167500000Y-69850000D03*
%TO.N,Net-(U2-GPB4)*%
X167500000Y-72390000D03*
%TO.N,Net-(U2-GPB5)*%
X167500000Y-74930000D03*
%TO.N,Net-(U2-GPB6)*%
X167500000Y-77470000D03*
%TO.N,Net-(U2-GPB7)*%
X167500000Y-80010000D03*
%TO.N,+5V*%
X167500000Y-82550000D03*
%TO.N,GND*%
X167500000Y-85090000D03*
%TO.N,unconnected-(U2-NC-Pad11)*%
X167500000Y-87630000D03*
%TO.N,/SCL*%
X167500000Y-90170000D03*
%TO.N,/SDA*%
X167500000Y-92710000D03*
%TO.N,unconnected-(U2-NC-Pad14)*%
X167500000Y-95250000D03*
%TO.N,GND*%
X175120000Y-95250000D03*
X175120000Y-92710000D03*
X175120000Y-90170000D03*
%TO.N,+5V*%
X175120000Y-87630000D03*
%TO.N,/D6*%
X175120000Y-85090000D03*
%TO.N,unconnected-(U2-INTA-Pad20)*%
X175120000Y-82550000D03*
%TO.N,Net-(U2-GPA0)*%
X175120000Y-80010000D03*
%TO.N,Net-(U2-GPA1)*%
X175120000Y-77470000D03*
%TO.N,Net-(U2-GPA2)*%
X175120000Y-74930000D03*
%TO.N,Net-(U2-GPA3)*%
X175120000Y-72390000D03*
%TO.N,Net-(U2-GPA4)*%
X175120000Y-69850000D03*
%TO.N,Net-(U2-GPA5)*%
X175120000Y-67310000D03*
%TO.N,Net-(U2-GPA6)*%
X175120000Y-64770000D03*
%TO.N,Net-(U2-GPA7)*%
X175120000Y-62230000D03*
%TD*%
D35*
%TO.N,GND*%
X129500000Y-97500000D03*
X124500000Y-98500000D03*
X165000000Y-84500000D03*
X124500000Y-90000000D03*
X124500000Y-87000000D03*
X124500000Y-83000000D03*
X137500000Y-90000000D03*
X137500000Y-72500000D03*
X136000000Y-108000000D03*
%TO.N,VCC*%
X114500000Y-119000000D03*
%TO.N,+5V*%
X158000000Y-61000000D03*
D36*
%TO.N,/D13*%
X124000000Y-70000000D03*
%TO.N,/D14*%
X109975000Y-87475000D03*
X110000000Y-79500000D03*
%TO.N,/D15*%
X121180000Y-78000000D03*
%TO.N,/D14*%
X119000000Y-72000000D03*
%TD*%
M02*
