%TF.GenerationSoftware,KiCad,Pcbnew,8.0.8-8.0.8-0~ubuntu24.04.1*%
%TF.CreationDate,2025-02-11T18:51:59+00:00*%
%TF.ProjectId,kicad-all-band-amp,6b696361-642d-4616-9c6c-2d62616e642d,rev?*%
%TF.SameCoordinates,Original*%
%TF.FileFunction,Legend,Top*%
%TF.FilePolarity,Positive*%
%FSLAX46Y46*%
G04 Gerber Fmt 4.6, Leading zero omitted, Abs format (unit mm)*
G04 Created by KiCad (PCBNEW 8.0.8-8.0.8-0~ubuntu24.04.1) date 2025-02-11 18:51:59*
%MOMM*%
%LPD*%
G01*
G04 APERTURE LIST*
%ADD10C,0.150000*%
%ADD11C,0.120000*%
G04 APERTURE END LIST*
D10*
X164484819Y-88391904D02*
X165294342Y-88391904D01*
X165294342Y-88391904D02*
X165389580Y-88344285D01*
X165389580Y-88344285D02*
X165437200Y-88296666D01*
X165437200Y-88296666D02*
X165484819Y-88201428D01*
X165484819Y-88201428D02*
X165484819Y-88010952D01*
X165484819Y-88010952D02*
X165437200Y-87915714D01*
X165437200Y-87915714D02*
X165389580Y-87868095D01*
X165389580Y-87868095D02*
X165294342Y-87820476D01*
X165294342Y-87820476D02*
X164484819Y-87820476D01*
X164484819Y-86868095D02*
X164484819Y-87344285D01*
X164484819Y-87344285D02*
X164961009Y-87391904D01*
X164961009Y-87391904D02*
X164913390Y-87344285D01*
X164913390Y-87344285D02*
X164865771Y-87249047D01*
X164865771Y-87249047D02*
X164865771Y-87010952D01*
X164865771Y-87010952D02*
X164913390Y-86915714D01*
X164913390Y-86915714D02*
X164961009Y-86868095D01*
X164961009Y-86868095D02*
X165056247Y-86820476D01*
X165056247Y-86820476D02*
X165294342Y-86820476D01*
X165294342Y-86820476D02*
X165389580Y-86868095D01*
X165389580Y-86868095D02*
X165437200Y-86915714D01*
X165437200Y-86915714D02*
X165484819Y-87010952D01*
X165484819Y-87010952D02*
X165484819Y-87249047D01*
X165484819Y-87249047D02*
X165437200Y-87344285D01*
X165437200Y-87344285D02*
X165389580Y-87391904D01*
X81884819Y-57745238D02*
X81408628Y-58078571D01*
X81884819Y-58316666D02*
X80884819Y-58316666D01*
X80884819Y-58316666D02*
X80884819Y-57935714D01*
X80884819Y-57935714D02*
X80932438Y-57840476D01*
X80932438Y-57840476D02*
X80980057Y-57792857D01*
X80980057Y-57792857D02*
X81075295Y-57745238D01*
X81075295Y-57745238D02*
X81218152Y-57745238D01*
X81218152Y-57745238D02*
X81313390Y-57792857D01*
X81313390Y-57792857D02*
X81361009Y-57840476D01*
X81361009Y-57840476D02*
X81408628Y-57935714D01*
X81408628Y-57935714D02*
X81408628Y-58316666D01*
X80884819Y-57459523D02*
X81884819Y-57126190D01*
X81884819Y-57126190D02*
X80884819Y-56792857D01*
X80884819Y-56030952D02*
X80884819Y-56221428D01*
X80884819Y-56221428D02*
X80932438Y-56316666D01*
X80932438Y-56316666D02*
X80980057Y-56364285D01*
X80980057Y-56364285D02*
X81122914Y-56459523D01*
X81122914Y-56459523D02*
X81313390Y-56507142D01*
X81313390Y-56507142D02*
X81694342Y-56507142D01*
X81694342Y-56507142D02*
X81789580Y-56459523D01*
X81789580Y-56459523D02*
X81837200Y-56411904D01*
X81837200Y-56411904D02*
X81884819Y-56316666D01*
X81884819Y-56316666D02*
X81884819Y-56126190D01*
X81884819Y-56126190D02*
X81837200Y-56030952D01*
X81837200Y-56030952D02*
X81789580Y-55983333D01*
X81789580Y-55983333D02*
X81694342Y-55935714D01*
X81694342Y-55935714D02*
X81456247Y-55935714D01*
X81456247Y-55935714D02*
X81361009Y-55983333D01*
X81361009Y-55983333D02*
X81313390Y-56030952D01*
X81313390Y-56030952D02*
X81265771Y-56126190D01*
X81265771Y-56126190D02*
X81265771Y-56316666D01*
X81265771Y-56316666D02*
X81313390Y-56411904D01*
X81313390Y-56411904D02*
X81361009Y-56459523D01*
X81361009Y-56459523D02*
X81456247Y-56507142D01*
X98244819Y-52808094D02*
X97244819Y-52808094D01*
X97244819Y-52808094D02*
X97244819Y-52569999D01*
X97244819Y-52569999D02*
X97292438Y-52427142D01*
X97292438Y-52427142D02*
X97387676Y-52331904D01*
X97387676Y-52331904D02*
X97482914Y-52284285D01*
X97482914Y-52284285D02*
X97673390Y-52236666D01*
X97673390Y-52236666D02*
X97816247Y-52236666D01*
X97816247Y-52236666D02*
X98006723Y-52284285D01*
X98006723Y-52284285D02*
X98101961Y-52331904D01*
X98101961Y-52331904D02*
X98197200Y-52427142D01*
X98197200Y-52427142D02*
X98244819Y-52569999D01*
X98244819Y-52569999D02*
X98244819Y-52808094D01*
X97244819Y-51379523D02*
X97244819Y-51569999D01*
X97244819Y-51569999D02*
X97292438Y-51665237D01*
X97292438Y-51665237D02*
X97340057Y-51712856D01*
X97340057Y-51712856D02*
X97482914Y-51808094D01*
X97482914Y-51808094D02*
X97673390Y-51855713D01*
X97673390Y-51855713D02*
X98054342Y-51855713D01*
X98054342Y-51855713D02*
X98149580Y-51808094D01*
X98149580Y-51808094D02*
X98197200Y-51760475D01*
X98197200Y-51760475D02*
X98244819Y-51665237D01*
X98244819Y-51665237D02*
X98244819Y-51474761D01*
X98244819Y-51474761D02*
X98197200Y-51379523D01*
X98197200Y-51379523D02*
X98149580Y-51331904D01*
X98149580Y-51331904D02*
X98054342Y-51284285D01*
X98054342Y-51284285D02*
X97816247Y-51284285D01*
X97816247Y-51284285D02*
X97721009Y-51331904D01*
X97721009Y-51331904D02*
X97673390Y-51379523D01*
X97673390Y-51379523D02*
X97625771Y-51474761D01*
X97625771Y-51474761D02*
X97625771Y-51665237D01*
X97625771Y-51665237D02*
X97673390Y-51760475D01*
X97673390Y-51760475D02*
X97721009Y-51808094D01*
X97721009Y-51808094D02*
X97816247Y-51855713D01*
X98244819Y-56141904D02*
X97244819Y-56141904D01*
X98244819Y-55570476D02*
X97673390Y-55999047D01*
X97244819Y-55570476D02*
X97816247Y-56141904D01*
X147954819Y-60642857D02*
X147478628Y-60976190D01*
X147954819Y-61214285D02*
X146954819Y-61214285D01*
X146954819Y-61214285D02*
X146954819Y-60833333D01*
X146954819Y-60833333D02*
X147002438Y-60738095D01*
X147002438Y-60738095D02*
X147050057Y-60690476D01*
X147050057Y-60690476D02*
X147145295Y-60642857D01*
X147145295Y-60642857D02*
X147288152Y-60642857D01*
X147288152Y-60642857D02*
X147383390Y-60690476D01*
X147383390Y-60690476D02*
X147431009Y-60738095D01*
X147431009Y-60738095D02*
X147478628Y-60833333D01*
X147478628Y-60833333D02*
X147478628Y-61214285D01*
X147954819Y-59690476D02*
X147954819Y-60261904D01*
X147954819Y-59976190D02*
X146954819Y-59976190D01*
X146954819Y-59976190D02*
X147097676Y-60071428D01*
X147097676Y-60071428D02*
X147192914Y-60166666D01*
X147192914Y-60166666D02*
X147240533Y-60261904D01*
X146954819Y-58833333D02*
X146954819Y-59023809D01*
X146954819Y-59023809D02*
X147002438Y-59119047D01*
X147002438Y-59119047D02*
X147050057Y-59166666D01*
X147050057Y-59166666D02*
X147192914Y-59261904D01*
X147192914Y-59261904D02*
X147383390Y-59309523D01*
X147383390Y-59309523D02*
X147764342Y-59309523D01*
X147764342Y-59309523D02*
X147859580Y-59261904D01*
X147859580Y-59261904D02*
X147907200Y-59214285D01*
X147907200Y-59214285D02*
X147954819Y-59119047D01*
X147954819Y-59119047D02*
X147954819Y-58928571D01*
X147954819Y-58928571D02*
X147907200Y-58833333D01*
X147907200Y-58833333D02*
X147859580Y-58785714D01*
X147859580Y-58785714D02*
X147764342Y-58738095D01*
X147764342Y-58738095D02*
X147526247Y-58738095D01*
X147526247Y-58738095D02*
X147431009Y-58785714D01*
X147431009Y-58785714D02*
X147383390Y-58833333D01*
X147383390Y-58833333D02*
X147335771Y-58928571D01*
X147335771Y-58928571D02*
X147335771Y-59119047D01*
X147335771Y-59119047D02*
X147383390Y-59214285D01*
X147383390Y-59214285D02*
X147431009Y-59261904D01*
X147431009Y-59261904D02*
X147526247Y-59309523D01*
X116546666Y-44154819D02*
X116546666Y-44869104D01*
X116546666Y-44869104D02*
X116499047Y-45011961D01*
X116499047Y-45011961D02*
X116403809Y-45107200D01*
X116403809Y-45107200D02*
X116260952Y-45154819D01*
X116260952Y-45154819D02*
X116165714Y-45154819D01*
X117451428Y-44154819D02*
X117260952Y-44154819D01*
X117260952Y-44154819D02*
X117165714Y-44202438D01*
X117165714Y-44202438D02*
X117118095Y-44250057D01*
X117118095Y-44250057D02*
X117022857Y-44392914D01*
X117022857Y-44392914D02*
X116975238Y-44583390D01*
X116975238Y-44583390D02*
X116975238Y-44964342D01*
X116975238Y-44964342D02*
X117022857Y-45059580D01*
X117022857Y-45059580D02*
X117070476Y-45107200D01*
X117070476Y-45107200D02*
X117165714Y-45154819D01*
X117165714Y-45154819D02*
X117356190Y-45154819D01*
X117356190Y-45154819D02*
X117451428Y-45107200D01*
X117451428Y-45107200D02*
X117499047Y-45059580D01*
X117499047Y-45059580D02*
X117546666Y-44964342D01*
X117546666Y-44964342D02*
X117546666Y-44726247D01*
X117546666Y-44726247D02*
X117499047Y-44631009D01*
X117499047Y-44631009D02*
X117451428Y-44583390D01*
X117451428Y-44583390D02*
X117356190Y-44535771D01*
X117356190Y-44535771D02*
X117165714Y-44535771D01*
X117165714Y-44535771D02*
X117070476Y-44583390D01*
X117070476Y-44583390D02*
X117022857Y-44631009D01*
X117022857Y-44631009D02*
X116975238Y-44726247D01*
X97909580Y-59876666D02*
X97957200Y-59924285D01*
X97957200Y-59924285D02*
X98004819Y-60067142D01*
X98004819Y-60067142D02*
X98004819Y-60162380D01*
X98004819Y-60162380D02*
X97957200Y-60305237D01*
X97957200Y-60305237D02*
X97861961Y-60400475D01*
X97861961Y-60400475D02*
X97766723Y-60448094D01*
X97766723Y-60448094D02*
X97576247Y-60495713D01*
X97576247Y-60495713D02*
X97433390Y-60495713D01*
X97433390Y-60495713D02*
X97242914Y-60448094D01*
X97242914Y-60448094D02*
X97147676Y-60400475D01*
X97147676Y-60400475D02*
X97052438Y-60305237D01*
X97052438Y-60305237D02*
X97004819Y-60162380D01*
X97004819Y-60162380D02*
X97004819Y-60067142D01*
X97004819Y-60067142D02*
X97052438Y-59924285D01*
X97052438Y-59924285D02*
X97100057Y-59876666D01*
X97004819Y-59019523D02*
X97004819Y-59209999D01*
X97004819Y-59209999D02*
X97052438Y-59305237D01*
X97052438Y-59305237D02*
X97100057Y-59352856D01*
X97100057Y-59352856D02*
X97242914Y-59448094D01*
X97242914Y-59448094D02*
X97433390Y-59495713D01*
X97433390Y-59495713D02*
X97814342Y-59495713D01*
X97814342Y-59495713D02*
X97909580Y-59448094D01*
X97909580Y-59448094D02*
X97957200Y-59400475D01*
X97957200Y-59400475D02*
X98004819Y-59305237D01*
X98004819Y-59305237D02*
X98004819Y-59114761D01*
X98004819Y-59114761D02*
X97957200Y-59019523D01*
X97957200Y-59019523D02*
X97909580Y-58971904D01*
X97909580Y-58971904D02*
X97814342Y-58924285D01*
X97814342Y-58924285D02*
X97576247Y-58924285D01*
X97576247Y-58924285D02*
X97481009Y-58971904D01*
X97481009Y-58971904D02*
X97433390Y-59019523D01*
X97433390Y-59019523D02*
X97385771Y-59114761D01*
X97385771Y-59114761D02*
X97385771Y-59305237D01*
X97385771Y-59305237D02*
X97433390Y-59400475D01*
X97433390Y-59400475D02*
X97481009Y-59448094D01*
X97481009Y-59448094D02*
X97576247Y-59495713D01*
X86193333Y-65224819D02*
X85860000Y-64748628D01*
X85621905Y-65224819D02*
X85621905Y-64224819D01*
X85621905Y-64224819D02*
X86002857Y-64224819D01*
X86002857Y-64224819D02*
X86098095Y-64272438D01*
X86098095Y-64272438D02*
X86145714Y-64320057D01*
X86145714Y-64320057D02*
X86193333Y-64415295D01*
X86193333Y-64415295D02*
X86193333Y-64558152D01*
X86193333Y-64558152D02*
X86145714Y-64653390D01*
X86145714Y-64653390D02*
X86098095Y-64701009D01*
X86098095Y-64701009D02*
X86002857Y-64748628D01*
X86002857Y-64748628D02*
X85621905Y-64748628D01*
X87098095Y-64224819D02*
X86621905Y-64224819D01*
X86621905Y-64224819D02*
X86574286Y-64701009D01*
X86574286Y-64701009D02*
X86621905Y-64653390D01*
X86621905Y-64653390D02*
X86717143Y-64605771D01*
X86717143Y-64605771D02*
X86955238Y-64605771D01*
X86955238Y-64605771D02*
X87050476Y-64653390D01*
X87050476Y-64653390D02*
X87098095Y-64701009D01*
X87098095Y-64701009D02*
X87145714Y-64796247D01*
X87145714Y-64796247D02*
X87145714Y-65034342D01*
X87145714Y-65034342D02*
X87098095Y-65129580D01*
X87098095Y-65129580D02*
X87050476Y-65177200D01*
X87050476Y-65177200D02*
X86955238Y-65224819D01*
X86955238Y-65224819D02*
X86717143Y-65224819D01*
X86717143Y-65224819D02*
X86621905Y-65177200D01*
X86621905Y-65177200D02*
X86574286Y-65129580D01*
X100419580Y-94490666D02*
X100467200Y-94538285D01*
X100467200Y-94538285D02*
X100514819Y-94681142D01*
X100514819Y-94681142D02*
X100514819Y-94776380D01*
X100514819Y-94776380D02*
X100467200Y-94919237D01*
X100467200Y-94919237D02*
X100371961Y-95014475D01*
X100371961Y-95014475D02*
X100276723Y-95062094D01*
X100276723Y-95062094D02*
X100086247Y-95109713D01*
X100086247Y-95109713D02*
X99943390Y-95109713D01*
X99943390Y-95109713D02*
X99752914Y-95062094D01*
X99752914Y-95062094D02*
X99657676Y-95014475D01*
X99657676Y-95014475D02*
X99562438Y-94919237D01*
X99562438Y-94919237D02*
X99514819Y-94776380D01*
X99514819Y-94776380D02*
X99514819Y-94681142D01*
X99514819Y-94681142D02*
X99562438Y-94538285D01*
X99562438Y-94538285D02*
X99610057Y-94490666D01*
X100514819Y-94014475D02*
X100514819Y-93823999D01*
X100514819Y-93823999D02*
X100467200Y-93728761D01*
X100467200Y-93728761D02*
X100419580Y-93681142D01*
X100419580Y-93681142D02*
X100276723Y-93585904D01*
X100276723Y-93585904D02*
X100086247Y-93538285D01*
X100086247Y-93538285D02*
X99705295Y-93538285D01*
X99705295Y-93538285D02*
X99610057Y-93585904D01*
X99610057Y-93585904D02*
X99562438Y-93633523D01*
X99562438Y-93633523D02*
X99514819Y-93728761D01*
X99514819Y-93728761D02*
X99514819Y-93919237D01*
X99514819Y-93919237D02*
X99562438Y-94014475D01*
X99562438Y-94014475D02*
X99610057Y-94062094D01*
X99610057Y-94062094D02*
X99705295Y-94109713D01*
X99705295Y-94109713D02*
X99943390Y-94109713D01*
X99943390Y-94109713D02*
X100038628Y-94062094D01*
X100038628Y-94062094D02*
X100086247Y-94014475D01*
X100086247Y-94014475D02*
X100133866Y-93919237D01*
X100133866Y-93919237D02*
X100133866Y-93728761D01*
X100133866Y-93728761D02*
X100086247Y-93633523D01*
X100086247Y-93633523D02*
X100038628Y-93585904D01*
X100038628Y-93585904D02*
X99943390Y-93538285D01*
X98244819Y-83288094D02*
X97244819Y-83288094D01*
X97244819Y-83288094D02*
X97244819Y-83049999D01*
X97244819Y-83049999D02*
X97292438Y-82907142D01*
X97292438Y-82907142D02*
X97387676Y-82811904D01*
X97387676Y-82811904D02*
X97482914Y-82764285D01*
X97482914Y-82764285D02*
X97673390Y-82716666D01*
X97673390Y-82716666D02*
X97816247Y-82716666D01*
X97816247Y-82716666D02*
X98006723Y-82764285D01*
X98006723Y-82764285D02*
X98101961Y-82811904D01*
X98101961Y-82811904D02*
X98197200Y-82907142D01*
X98197200Y-82907142D02*
X98244819Y-83049999D01*
X98244819Y-83049999D02*
X98244819Y-83288094D01*
X97340057Y-82335713D02*
X97292438Y-82288094D01*
X97292438Y-82288094D02*
X97244819Y-82192856D01*
X97244819Y-82192856D02*
X97244819Y-81954761D01*
X97244819Y-81954761D02*
X97292438Y-81859523D01*
X97292438Y-81859523D02*
X97340057Y-81811904D01*
X97340057Y-81811904D02*
X97435295Y-81764285D01*
X97435295Y-81764285D02*
X97530533Y-81764285D01*
X97530533Y-81764285D02*
X97673390Y-81811904D01*
X97673390Y-81811904D02*
X98244819Y-82383332D01*
X98244819Y-82383332D02*
X98244819Y-81764285D01*
X98244819Y-86621904D02*
X97244819Y-86621904D01*
X98244819Y-86050476D02*
X97673390Y-86479047D01*
X97244819Y-86050476D02*
X97816247Y-86621904D01*
X74124819Y-57503333D02*
X74839104Y-57503333D01*
X74839104Y-57503333D02*
X74981961Y-57550952D01*
X74981961Y-57550952D02*
X75077200Y-57646190D01*
X75077200Y-57646190D02*
X75124819Y-57789047D01*
X75124819Y-57789047D02*
X75124819Y-57884285D01*
X74458152Y-56598571D02*
X75124819Y-56598571D01*
X74077200Y-56836666D02*
X74791485Y-57074761D01*
X74791485Y-57074761D02*
X74791485Y-56455714D01*
X130040476Y-142254819D02*
X130040476Y-142969104D01*
X130040476Y-142969104D02*
X129992857Y-143111961D01*
X129992857Y-143111961D02*
X129897619Y-143207200D01*
X129897619Y-143207200D02*
X129754762Y-143254819D01*
X129754762Y-143254819D02*
X129659524Y-143254819D01*
X131040476Y-143254819D02*
X130469048Y-143254819D01*
X130754762Y-143254819D02*
X130754762Y-142254819D01*
X130754762Y-142254819D02*
X130659524Y-142397676D01*
X130659524Y-142397676D02*
X130564286Y-142492914D01*
X130564286Y-142492914D02*
X130469048Y-142540533D01*
X131897619Y-142588152D02*
X131897619Y-143254819D01*
X131659524Y-142207200D02*
X131421429Y-142921485D01*
X131421429Y-142921485D02*
X132040476Y-142921485D01*
X91894819Y-119546666D02*
X91418628Y-119879999D01*
X91894819Y-120118094D02*
X90894819Y-120118094D01*
X90894819Y-120118094D02*
X90894819Y-119737142D01*
X90894819Y-119737142D02*
X90942438Y-119641904D01*
X90942438Y-119641904D02*
X90990057Y-119594285D01*
X90990057Y-119594285D02*
X91085295Y-119546666D01*
X91085295Y-119546666D02*
X91228152Y-119546666D01*
X91228152Y-119546666D02*
X91323390Y-119594285D01*
X91323390Y-119594285D02*
X91371009Y-119641904D01*
X91371009Y-119641904D02*
X91418628Y-119737142D01*
X91418628Y-119737142D02*
X91418628Y-120118094D01*
X91323390Y-118975237D02*
X91275771Y-119070475D01*
X91275771Y-119070475D02*
X91228152Y-119118094D01*
X91228152Y-119118094D02*
X91132914Y-119165713D01*
X91132914Y-119165713D02*
X91085295Y-119165713D01*
X91085295Y-119165713D02*
X90990057Y-119118094D01*
X90990057Y-119118094D02*
X90942438Y-119070475D01*
X90942438Y-119070475D02*
X90894819Y-118975237D01*
X90894819Y-118975237D02*
X90894819Y-118784761D01*
X90894819Y-118784761D02*
X90942438Y-118689523D01*
X90942438Y-118689523D02*
X90990057Y-118641904D01*
X90990057Y-118641904D02*
X91085295Y-118594285D01*
X91085295Y-118594285D02*
X91132914Y-118594285D01*
X91132914Y-118594285D02*
X91228152Y-118641904D01*
X91228152Y-118641904D02*
X91275771Y-118689523D01*
X91275771Y-118689523D02*
X91323390Y-118784761D01*
X91323390Y-118784761D02*
X91323390Y-118975237D01*
X91323390Y-118975237D02*
X91371009Y-119070475D01*
X91371009Y-119070475D02*
X91418628Y-119118094D01*
X91418628Y-119118094D02*
X91513866Y-119165713D01*
X91513866Y-119165713D02*
X91704342Y-119165713D01*
X91704342Y-119165713D02*
X91799580Y-119118094D01*
X91799580Y-119118094D02*
X91847200Y-119070475D01*
X91847200Y-119070475D02*
X91894819Y-118975237D01*
X91894819Y-118975237D02*
X91894819Y-118784761D01*
X91894819Y-118784761D02*
X91847200Y-118689523D01*
X91847200Y-118689523D02*
X91799580Y-118641904D01*
X91799580Y-118641904D02*
X91704342Y-118594285D01*
X91704342Y-118594285D02*
X91513866Y-118594285D01*
X91513866Y-118594285D02*
X91418628Y-118641904D01*
X91418628Y-118641904D02*
X91371009Y-118689523D01*
X91371009Y-118689523D02*
X91323390Y-118784761D01*
X74154819Y-103243333D02*
X74869104Y-103243333D01*
X74869104Y-103243333D02*
X75011961Y-103290952D01*
X75011961Y-103290952D02*
X75107200Y-103386190D01*
X75107200Y-103386190D02*
X75154819Y-103529047D01*
X75154819Y-103529047D02*
X75154819Y-103624285D01*
X74250057Y-102814761D02*
X74202438Y-102767142D01*
X74202438Y-102767142D02*
X74154819Y-102671904D01*
X74154819Y-102671904D02*
X74154819Y-102433809D01*
X74154819Y-102433809D02*
X74202438Y-102338571D01*
X74202438Y-102338571D02*
X74250057Y-102290952D01*
X74250057Y-102290952D02*
X74345295Y-102243333D01*
X74345295Y-102243333D02*
X74440533Y-102243333D01*
X74440533Y-102243333D02*
X74583390Y-102290952D01*
X74583390Y-102290952D02*
X75154819Y-102862380D01*
X75154819Y-102862380D02*
X75154819Y-102243333D01*
X97909580Y-75116666D02*
X97957200Y-75164285D01*
X97957200Y-75164285D02*
X98004819Y-75307142D01*
X98004819Y-75307142D02*
X98004819Y-75402380D01*
X98004819Y-75402380D02*
X97957200Y-75545237D01*
X97957200Y-75545237D02*
X97861961Y-75640475D01*
X97861961Y-75640475D02*
X97766723Y-75688094D01*
X97766723Y-75688094D02*
X97576247Y-75735713D01*
X97576247Y-75735713D02*
X97433390Y-75735713D01*
X97433390Y-75735713D02*
X97242914Y-75688094D01*
X97242914Y-75688094D02*
X97147676Y-75640475D01*
X97147676Y-75640475D02*
X97052438Y-75545237D01*
X97052438Y-75545237D02*
X97004819Y-75402380D01*
X97004819Y-75402380D02*
X97004819Y-75307142D01*
X97004819Y-75307142D02*
X97052438Y-75164285D01*
X97052438Y-75164285D02*
X97100057Y-75116666D01*
X97004819Y-74783332D02*
X97004819Y-74164285D01*
X97004819Y-74164285D02*
X97385771Y-74497618D01*
X97385771Y-74497618D02*
X97385771Y-74354761D01*
X97385771Y-74354761D02*
X97433390Y-74259523D01*
X97433390Y-74259523D02*
X97481009Y-74211904D01*
X97481009Y-74211904D02*
X97576247Y-74164285D01*
X97576247Y-74164285D02*
X97814342Y-74164285D01*
X97814342Y-74164285D02*
X97909580Y-74211904D01*
X97909580Y-74211904D02*
X97957200Y-74259523D01*
X97957200Y-74259523D02*
X98004819Y-74354761D01*
X98004819Y-74354761D02*
X98004819Y-74640475D01*
X98004819Y-74640475D02*
X97957200Y-74735713D01*
X97957200Y-74735713D02*
X97909580Y-74783332D01*
X127480476Y-44154819D02*
X127480476Y-44869104D01*
X127480476Y-44869104D02*
X127432857Y-45011961D01*
X127432857Y-45011961D02*
X127337619Y-45107200D01*
X127337619Y-45107200D02*
X127194762Y-45154819D01*
X127194762Y-45154819D02*
X127099524Y-45154819D01*
X128480476Y-45154819D02*
X127909048Y-45154819D01*
X128194762Y-45154819D02*
X128194762Y-44154819D01*
X128194762Y-44154819D02*
X128099524Y-44297676D01*
X128099524Y-44297676D02*
X128004286Y-44392914D01*
X128004286Y-44392914D02*
X127909048Y-44440533D01*
X128813810Y-44154819D02*
X129480476Y-44154819D01*
X129480476Y-44154819D02*
X129051905Y-45154819D01*
X194238095Y-136354819D02*
X194238095Y-135354819D01*
X194238095Y-135831009D02*
X194809523Y-135831009D01*
X194809523Y-136354819D02*
X194809523Y-135354819D01*
X195809523Y-136354819D02*
X195238095Y-136354819D01*
X195523809Y-136354819D02*
X195523809Y-135354819D01*
X195523809Y-135354819D02*
X195428571Y-135497676D01*
X195428571Y-135497676D02*
X195333333Y-135592914D01*
X195333333Y-135592914D02*
X195238095Y-135640533D01*
X98244819Y-98528094D02*
X97244819Y-98528094D01*
X97244819Y-98528094D02*
X97244819Y-98289999D01*
X97244819Y-98289999D02*
X97292438Y-98147142D01*
X97292438Y-98147142D02*
X97387676Y-98051904D01*
X97387676Y-98051904D02*
X97482914Y-98004285D01*
X97482914Y-98004285D02*
X97673390Y-97956666D01*
X97673390Y-97956666D02*
X97816247Y-97956666D01*
X97816247Y-97956666D02*
X98006723Y-98004285D01*
X98006723Y-98004285D02*
X98101961Y-98051904D01*
X98101961Y-98051904D02*
X98197200Y-98147142D01*
X98197200Y-98147142D02*
X98244819Y-98289999D01*
X98244819Y-98289999D02*
X98244819Y-98528094D01*
X98244819Y-97004285D02*
X98244819Y-97575713D01*
X98244819Y-97289999D02*
X97244819Y-97289999D01*
X97244819Y-97289999D02*
X97387676Y-97385237D01*
X97387676Y-97385237D02*
X97482914Y-97480475D01*
X97482914Y-97480475D02*
X97530533Y-97575713D01*
X98244819Y-101866904D02*
X97244819Y-101866904D01*
X98244819Y-101295476D02*
X97673390Y-101724047D01*
X97244819Y-101295476D02*
X97816247Y-101866904D01*
X140636666Y-43854819D02*
X140636666Y-44569104D01*
X140636666Y-44569104D02*
X140589047Y-44711961D01*
X140589047Y-44711961D02*
X140493809Y-44807200D01*
X140493809Y-44807200D02*
X140350952Y-44854819D01*
X140350952Y-44854819D02*
X140255714Y-44854819D01*
X141017619Y-43854819D02*
X141684285Y-43854819D01*
X141684285Y-43854819D02*
X141255714Y-44854819D01*
X179331095Y-106102319D02*
X179331095Y-106911842D01*
X179331095Y-106911842D02*
X179378714Y-107007080D01*
X179378714Y-107007080D02*
X179426333Y-107054700D01*
X179426333Y-107054700D02*
X179521571Y-107102319D01*
X179521571Y-107102319D02*
X179712047Y-107102319D01*
X179712047Y-107102319D02*
X179807285Y-107054700D01*
X179807285Y-107054700D02*
X179854904Y-107007080D01*
X179854904Y-107007080D02*
X179902523Y-106911842D01*
X179902523Y-106911842D02*
X179902523Y-106102319D01*
X180807285Y-106102319D02*
X180616809Y-106102319D01*
X180616809Y-106102319D02*
X180521571Y-106149938D01*
X180521571Y-106149938D02*
X180473952Y-106197557D01*
X180473952Y-106197557D02*
X180378714Y-106340414D01*
X180378714Y-106340414D02*
X180331095Y-106530890D01*
X180331095Y-106530890D02*
X180331095Y-106911842D01*
X180331095Y-106911842D02*
X180378714Y-107007080D01*
X180378714Y-107007080D02*
X180426333Y-107054700D01*
X180426333Y-107054700D02*
X180521571Y-107102319D01*
X180521571Y-107102319D02*
X180712047Y-107102319D01*
X180712047Y-107102319D02*
X180807285Y-107054700D01*
X180807285Y-107054700D02*
X180854904Y-107007080D01*
X180854904Y-107007080D02*
X180902523Y-106911842D01*
X180902523Y-106911842D02*
X180902523Y-106673747D01*
X180902523Y-106673747D02*
X180854904Y-106578509D01*
X180854904Y-106578509D02*
X180807285Y-106530890D01*
X180807285Y-106530890D02*
X180712047Y-106483271D01*
X180712047Y-106483271D02*
X180521571Y-106483271D01*
X180521571Y-106483271D02*
X180426333Y-106530890D01*
X180426333Y-106530890D02*
X180378714Y-106578509D01*
X180378714Y-106578509D02*
X180331095Y-106673747D01*
X116024819Y-99328857D02*
X115548628Y-99662190D01*
X116024819Y-99900285D02*
X115024819Y-99900285D01*
X115024819Y-99900285D02*
X115024819Y-99519333D01*
X115024819Y-99519333D02*
X115072438Y-99424095D01*
X115072438Y-99424095D02*
X115120057Y-99376476D01*
X115120057Y-99376476D02*
X115215295Y-99328857D01*
X115215295Y-99328857D02*
X115358152Y-99328857D01*
X115358152Y-99328857D02*
X115453390Y-99376476D01*
X115453390Y-99376476D02*
X115501009Y-99424095D01*
X115501009Y-99424095D02*
X115548628Y-99519333D01*
X115548628Y-99519333D02*
X115548628Y-99900285D01*
X115024819Y-98995523D02*
X115024819Y-98376476D01*
X115024819Y-98376476D02*
X115405771Y-98709809D01*
X115405771Y-98709809D02*
X115405771Y-98566952D01*
X115405771Y-98566952D02*
X115453390Y-98471714D01*
X115453390Y-98471714D02*
X115501009Y-98424095D01*
X115501009Y-98424095D02*
X115596247Y-98376476D01*
X115596247Y-98376476D02*
X115834342Y-98376476D01*
X115834342Y-98376476D02*
X115929580Y-98424095D01*
X115929580Y-98424095D02*
X115977200Y-98471714D01*
X115977200Y-98471714D02*
X116024819Y-98566952D01*
X116024819Y-98566952D02*
X116024819Y-98852666D01*
X116024819Y-98852666D02*
X115977200Y-98947904D01*
X115977200Y-98947904D02*
X115929580Y-98995523D01*
X115024819Y-97757428D02*
X115024819Y-97662190D01*
X115024819Y-97662190D02*
X115072438Y-97566952D01*
X115072438Y-97566952D02*
X115120057Y-97519333D01*
X115120057Y-97519333D02*
X115215295Y-97471714D01*
X115215295Y-97471714D02*
X115405771Y-97424095D01*
X115405771Y-97424095D02*
X115643866Y-97424095D01*
X115643866Y-97424095D02*
X115834342Y-97471714D01*
X115834342Y-97471714D02*
X115929580Y-97519333D01*
X115929580Y-97519333D02*
X115977200Y-97566952D01*
X115977200Y-97566952D02*
X116024819Y-97662190D01*
X116024819Y-97662190D02*
X116024819Y-97757428D01*
X116024819Y-97757428D02*
X115977200Y-97852666D01*
X115977200Y-97852666D02*
X115929580Y-97900285D01*
X115929580Y-97900285D02*
X115834342Y-97947904D01*
X115834342Y-97947904D02*
X115643866Y-97995523D01*
X115643866Y-97995523D02*
X115405771Y-97995523D01*
X115405771Y-97995523D02*
X115215295Y-97947904D01*
X115215295Y-97947904D02*
X115120057Y-97900285D01*
X115120057Y-97900285D02*
X115072438Y-97852666D01*
X115072438Y-97852666D02*
X115024819Y-97757428D01*
X183048095Y-59354819D02*
X183048095Y-60164342D01*
X183048095Y-60164342D02*
X183095714Y-60259580D01*
X183095714Y-60259580D02*
X183143333Y-60307200D01*
X183143333Y-60307200D02*
X183238571Y-60354819D01*
X183238571Y-60354819D02*
X183429047Y-60354819D01*
X183429047Y-60354819D02*
X183524285Y-60307200D01*
X183524285Y-60307200D02*
X183571904Y-60259580D01*
X183571904Y-60259580D02*
X183619523Y-60164342D01*
X183619523Y-60164342D02*
X183619523Y-59354819D01*
X184524285Y-59688152D02*
X184524285Y-60354819D01*
X184286190Y-59307200D02*
X184048095Y-60021485D01*
X184048095Y-60021485D02*
X184667142Y-60021485D01*
X98244819Y-68048094D02*
X97244819Y-68048094D01*
X97244819Y-68048094D02*
X97244819Y-67809999D01*
X97244819Y-67809999D02*
X97292438Y-67667142D01*
X97292438Y-67667142D02*
X97387676Y-67571904D01*
X97387676Y-67571904D02*
X97482914Y-67524285D01*
X97482914Y-67524285D02*
X97673390Y-67476666D01*
X97673390Y-67476666D02*
X97816247Y-67476666D01*
X97816247Y-67476666D02*
X98006723Y-67524285D01*
X98006723Y-67524285D02*
X98101961Y-67571904D01*
X98101961Y-67571904D02*
X98197200Y-67667142D01*
X98197200Y-67667142D02*
X98244819Y-67809999D01*
X98244819Y-67809999D02*
X98244819Y-68048094D01*
X97244819Y-67143332D02*
X97244819Y-66524285D01*
X97244819Y-66524285D02*
X97625771Y-66857618D01*
X97625771Y-66857618D02*
X97625771Y-66714761D01*
X97625771Y-66714761D02*
X97673390Y-66619523D01*
X97673390Y-66619523D02*
X97721009Y-66571904D01*
X97721009Y-66571904D02*
X97816247Y-66524285D01*
X97816247Y-66524285D02*
X98054342Y-66524285D01*
X98054342Y-66524285D02*
X98149580Y-66571904D01*
X98149580Y-66571904D02*
X98197200Y-66619523D01*
X98197200Y-66619523D02*
X98244819Y-66714761D01*
X98244819Y-66714761D02*
X98244819Y-67000475D01*
X98244819Y-67000475D02*
X98197200Y-67095713D01*
X98197200Y-67095713D02*
X98149580Y-67143332D01*
X98244819Y-71381904D02*
X97244819Y-71381904D01*
X98244819Y-70810476D02*
X97673390Y-71239047D01*
X97244819Y-70810476D02*
X97816247Y-71381904D01*
X184190476Y-142254819D02*
X184190476Y-142969104D01*
X184190476Y-142969104D02*
X184142857Y-143111961D01*
X184142857Y-143111961D02*
X184047619Y-143207200D01*
X184047619Y-143207200D02*
X183904762Y-143254819D01*
X183904762Y-143254819D02*
X183809524Y-143254819D01*
X185190476Y-143254819D02*
X184619048Y-143254819D01*
X184904762Y-143254819D02*
X184904762Y-142254819D01*
X184904762Y-142254819D02*
X184809524Y-142397676D01*
X184809524Y-142397676D02*
X184714286Y-142492914D01*
X184714286Y-142492914D02*
X184619048Y-142540533D01*
X185666667Y-143254819D02*
X185857143Y-143254819D01*
X185857143Y-143254819D02*
X185952381Y-143207200D01*
X185952381Y-143207200D02*
X186000000Y-143159580D01*
X186000000Y-143159580D02*
X186095238Y-143016723D01*
X186095238Y-143016723D02*
X186142857Y-142826247D01*
X186142857Y-142826247D02*
X186142857Y-142445295D01*
X186142857Y-142445295D02*
X186095238Y-142350057D01*
X186095238Y-142350057D02*
X186047619Y-142302438D01*
X186047619Y-142302438D02*
X185952381Y-142254819D01*
X185952381Y-142254819D02*
X185761905Y-142254819D01*
X185761905Y-142254819D02*
X185666667Y-142302438D01*
X185666667Y-142302438D02*
X185619048Y-142350057D01*
X185619048Y-142350057D02*
X185571429Y-142445295D01*
X185571429Y-142445295D02*
X185571429Y-142683390D01*
X185571429Y-142683390D02*
X185619048Y-142778628D01*
X185619048Y-142778628D02*
X185666667Y-142826247D01*
X185666667Y-142826247D02*
X185761905Y-142873866D01*
X185761905Y-142873866D02*
X185952381Y-142873866D01*
X185952381Y-142873866D02*
X186047619Y-142826247D01*
X186047619Y-142826247D02*
X186095238Y-142778628D01*
X186095238Y-142778628D02*
X186142857Y-142683390D01*
X154454819Y-73642857D02*
X153978628Y-73976190D01*
X154454819Y-74214285D02*
X153454819Y-74214285D01*
X153454819Y-74214285D02*
X153454819Y-73833333D01*
X153454819Y-73833333D02*
X153502438Y-73738095D01*
X153502438Y-73738095D02*
X153550057Y-73690476D01*
X153550057Y-73690476D02*
X153645295Y-73642857D01*
X153645295Y-73642857D02*
X153788152Y-73642857D01*
X153788152Y-73642857D02*
X153883390Y-73690476D01*
X153883390Y-73690476D02*
X153931009Y-73738095D01*
X153931009Y-73738095D02*
X153978628Y-73833333D01*
X153978628Y-73833333D02*
X153978628Y-74214285D01*
X153550057Y-73261904D02*
X153502438Y-73214285D01*
X153502438Y-73214285D02*
X153454819Y-73119047D01*
X153454819Y-73119047D02*
X153454819Y-72880952D01*
X153454819Y-72880952D02*
X153502438Y-72785714D01*
X153502438Y-72785714D02*
X153550057Y-72738095D01*
X153550057Y-72738095D02*
X153645295Y-72690476D01*
X153645295Y-72690476D02*
X153740533Y-72690476D01*
X153740533Y-72690476D02*
X153883390Y-72738095D01*
X153883390Y-72738095D02*
X154454819Y-73309523D01*
X154454819Y-73309523D02*
X154454819Y-72690476D01*
X153454819Y-72071428D02*
X153454819Y-71976190D01*
X153454819Y-71976190D02*
X153502438Y-71880952D01*
X153502438Y-71880952D02*
X153550057Y-71833333D01*
X153550057Y-71833333D02*
X153645295Y-71785714D01*
X153645295Y-71785714D02*
X153835771Y-71738095D01*
X153835771Y-71738095D02*
X154073866Y-71738095D01*
X154073866Y-71738095D02*
X154264342Y-71785714D01*
X154264342Y-71785714D02*
X154359580Y-71833333D01*
X154359580Y-71833333D02*
X154407200Y-71880952D01*
X154407200Y-71880952D02*
X154454819Y-71976190D01*
X154454819Y-71976190D02*
X154454819Y-72071428D01*
X154454819Y-72071428D02*
X154407200Y-72166666D01*
X154407200Y-72166666D02*
X154359580Y-72214285D01*
X154359580Y-72214285D02*
X154264342Y-72261904D01*
X154264342Y-72261904D02*
X154073866Y-72309523D01*
X154073866Y-72309523D02*
X153835771Y-72309523D01*
X153835771Y-72309523D02*
X153645295Y-72261904D01*
X153645295Y-72261904D02*
X153550057Y-72214285D01*
X153550057Y-72214285D02*
X153502438Y-72166666D01*
X153502438Y-72166666D02*
X153454819Y-72071428D01*
X170440476Y-142254819D02*
X170440476Y-142969104D01*
X170440476Y-142969104D02*
X170392857Y-143111961D01*
X170392857Y-143111961D02*
X170297619Y-143207200D01*
X170297619Y-143207200D02*
X170154762Y-143254819D01*
X170154762Y-143254819D02*
X170059524Y-143254819D01*
X171440476Y-143254819D02*
X170869048Y-143254819D01*
X171154762Y-143254819D02*
X171154762Y-142254819D01*
X171154762Y-142254819D02*
X171059524Y-142397676D01*
X171059524Y-142397676D02*
X170964286Y-142492914D01*
X170964286Y-142492914D02*
X170869048Y-142540533D01*
X171773810Y-142254819D02*
X172392857Y-142254819D01*
X172392857Y-142254819D02*
X172059524Y-142635771D01*
X172059524Y-142635771D02*
X172202381Y-142635771D01*
X172202381Y-142635771D02*
X172297619Y-142683390D01*
X172297619Y-142683390D02*
X172345238Y-142731009D01*
X172345238Y-142731009D02*
X172392857Y-142826247D01*
X172392857Y-142826247D02*
X172392857Y-143064342D01*
X172392857Y-143064342D02*
X172345238Y-143159580D01*
X172345238Y-143159580D02*
X172297619Y-143207200D01*
X172297619Y-143207200D02*
X172202381Y-143254819D01*
X172202381Y-143254819D02*
X171916667Y-143254819D01*
X171916667Y-143254819D02*
X171821429Y-143207200D01*
X171821429Y-143207200D02*
X171773810Y-143159580D01*
X104916666Y-142254819D02*
X104916666Y-142969104D01*
X104916666Y-142969104D02*
X104869047Y-143111961D01*
X104869047Y-143111961D02*
X104773809Y-143207200D01*
X104773809Y-143207200D02*
X104630952Y-143254819D01*
X104630952Y-143254819D02*
X104535714Y-143254819D01*
X105440476Y-143254819D02*
X105630952Y-143254819D01*
X105630952Y-143254819D02*
X105726190Y-143207200D01*
X105726190Y-143207200D02*
X105773809Y-143159580D01*
X105773809Y-143159580D02*
X105869047Y-143016723D01*
X105869047Y-143016723D02*
X105916666Y-142826247D01*
X105916666Y-142826247D02*
X105916666Y-142445295D01*
X105916666Y-142445295D02*
X105869047Y-142350057D01*
X105869047Y-142350057D02*
X105821428Y-142302438D01*
X105821428Y-142302438D02*
X105726190Y-142254819D01*
X105726190Y-142254819D02*
X105535714Y-142254819D01*
X105535714Y-142254819D02*
X105440476Y-142302438D01*
X105440476Y-142302438D02*
X105392857Y-142350057D01*
X105392857Y-142350057D02*
X105345238Y-142445295D01*
X105345238Y-142445295D02*
X105345238Y-142683390D01*
X105345238Y-142683390D02*
X105392857Y-142778628D01*
X105392857Y-142778628D02*
X105440476Y-142826247D01*
X105440476Y-142826247D02*
X105535714Y-142873866D01*
X105535714Y-142873866D02*
X105726190Y-142873866D01*
X105726190Y-142873866D02*
X105821428Y-142826247D01*
X105821428Y-142826247D02*
X105869047Y-142778628D01*
X105869047Y-142778628D02*
X105916666Y-142683390D01*
X120690476Y-129204819D02*
X120690476Y-129919104D01*
X120690476Y-129919104D02*
X120642857Y-130061961D01*
X120642857Y-130061961D02*
X120547619Y-130157200D01*
X120547619Y-130157200D02*
X120404762Y-130204819D01*
X120404762Y-130204819D02*
X120309524Y-130204819D01*
X121690476Y-130204819D02*
X121119048Y-130204819D01*
X121404762Y-130204819D02*
X121404762Y-129204819D01*
X121404762Y-129204819D02*
X121309524Y-129347676D01*
X121309524Y-129347676D02*
X121214286Y-129442914D01*
X121214286Y-129442914D02*
X121119048Y-129490533D01*
X122261905Y-129633390D02*
X122166667Y-129585771D01*
X122166667Y-129585771D02*
X122119048Y-129538152D01*
X122119048Y-129538152D02*
X122071429Y-129442914D01*
X122071429Y-129442914D02*
X122071429Y-129395295D01*
X122071429Y-129395295D02*
X122119048Y-129300057D01*
X122119048Y-129300057D02*
X122166667Y-129252438D01*
X122166667Y-129252438D02*
X122261905Y-129204819D01*
X122261905Y-129204819D02*
X122452381Y-129204819D01*
X122452381Y-129204819D02*
X122547619Y-129252438D01*
X122547619Y-129252438D02*
X122595238Y-129300057D01*
X122595238Y-129300057D02*
X122642857Y-129395295D01*
X122642857Y-129395295D02*
X122642857Y-129442914D01*
X122642857Y-129442914D02*
X122595238Y-129538152D01*
X122595238Y-129538152D02*
X122547619Y-129585771D01*
X122547619Y-129585771D02*
X122452381Y-129633390D01*
X122452381Y-129633390D02*
X122261905Y-129633390D01*
X122261905Y-129633390D02*
X122166667Y-129681009D01*
X122166667Y-129681009D02*
X122119048Y-129728628D01*
X122119048Y-129728628D02*
X122071429Y-129823866D01*
X122071429Y-129823866D02*
X122071429Y-130014342D01*
X122071429Y-130014342D02*
X122119048Y-130109580D01*
X122119048Y-130109580D02*
X122166667Y-130157200D01*
X122166667Y-130157200D02*
X122261905Y-130204819D01*
X122261905Y-130204819D02*
X122452381Y-130204819D01*
X122452381Y-130204819D02*
X122547619Y-130157200D01*
X122547619Y-130157200D02*
X122595238Y-130109580D01*
X122595238Y-130109580D02*
X122642857Y-130014342D01*
X122642857Y-130014342D02*
X122642857Y-129823866D01*
X122642857Y-129823866D02*
X122595238Y-129728628D01*
X122595238Y-129728628D02*
X122547619Y-129681009D01*
X122547619Y-129681009D02*
X122452381Y-129633390D01*
X112214819Y-99702857D02*
X111738628Y-100036190D01*
X112214819Y-100274285D02*
X111214819Y-100274285D01*
X111214819Y-100274285D02*
X111214819Y-99893333D01*
X111214819Y-99893333D02*
X111262438Y-99798095D01*
X111262438Y-99798095D02*
X111310057Y-99750476D01*
X111310057Y-99750476D02*
X111405295Y-99702857D01*
X111405295Y-99702857D02*
X111548152Y-99702857D01*
X111548152Y-99702857D02*
X111643390Y-99750476D01*
X111643390Y-99750476D02*
X111691009Y-99798095D01*
X111691009Y-99798095D02*
X111738628Y-99893333D01*
X111738628Y-99893333D02*
X111738628Y-100274285D01*
X111214819Y-99369523D02*
X111214819Y-98750476D01*
X111214819Y-98750476D02*
X111595771Y-99083809D01*
X111595771Y-99083809D02*
X111595771Y-98940952D01*
X111595771Y-98940952D02*
X111643390Y-98845714D01*
X111643390Y-98845714D02*
X111691009Y-98798095D01*
X111691009Y-98798095D02*
X111786247Y-98750476D01*
X111786247Y-98750476D02*
X112024342Y-98750476D01*
X112024342Y-98750476D02*
X112119580Y-98798095D01*
X112119580Y-98798095D02*
X112167200Y-98845714D01*
X112167200Y-98845714D02*
X112214819Y-98940952D01*
X112214819Y-98940952D02*
X112214819Y-99226666D01*
X112214819Y-99226666D02*
X112167200Y-99321904D01*
X112167200Y-99321904D02*
X112119580Y-99369523D01*
X112214819Y-97798095D02*
X112214819Y-98369523D01*
X112214819Y-98083809D02*
X111214819Y-98083809D01*
X111214819Y-98083809D02*
X111357676Y-98179047D01*
X111357676Y-98179047D02*
X111452914Y-98274285D01*
X111452914Y-98274285D02*
X111500533Y-98369523D01*
X104594819Y-69222857D02*
X104118628Y-69556190D01*
X104594819Y-69794285D02*
X103594819Y-69794285D01*
X103594819Y-69794285D02*
X103594819Y-69413333D01*
X103594819Y-69413333D02*
X103642438Y-69318095D01*
X103642438Y-69318095D02*
X103690057Y-69270476D01*
X103690057Y-69270476D02*
X103785295Y-69222857D01*
X103785295Y-69222857D02*
X103928152Y-69222857D01*
X103928152Y-69222857D02*
X104023390Y-69270476D01*
X104023390Y-69270476D02*
X104071009Y-69318095D01*
X104071009Y-69318095D02*
X104118628Y-69413333D01*
X104118628Y-69413333D02*
X104118628Y-69794285D01*
X104594819Y-68270476D02*
X104594819Y-68841904D01*
X104594819Y-68556190D02*
X103594819Y-68556190D01*
X103594819Y-68556190D02*
X103737676Y-68651428D01*
X103737676Y-68651428D02*
X103832914Y-68746666D01*
X103832914Y-68746666D02*
X103880533Y-68841904D01*
X103928152Y-67413333D02*
X104594819Y-67413333D01*
X103547200Y-67651428D02*
X104261485Y-67889523D01*
X104261485Y-67889523D02*
X104261485Y-67270476D01*
X86857142Y-49984819D02*
X86523809Y-49508628D01*
X86285714Y-49984819D02*
X86285714Y-48984819D01*
X86285714Y-48984819D02*
X86666666Y-48984819D01*
X86666666Y-48984819D02*
X86761904Y-49032438D01*
X86761904Y-49032438D02*
X86809523Y-49080057D01*
X86809523Y-49080057D02*
X86857142Y-49175295D01*
X86857142Y-49175295D02*
X86857142Y-49318152D01*
X86857142Y-49318152D02*
X86809523Y-49413390D01*
X86809523Y-49413390D02*
X86761904Y-49461009D01*
X86761904Y-49461009D02*
X86666666Y-49508628D01*
X86666666Y-49508628D02*
X86285714Y-49508628D01*
X87809523Y-49984819D02*
X87238095Y-49984819D01*
X87523809Y-49984819D02*
X87523809Y-48984819D01*
X87523809Y-48984819D02*
X87428571Y-49127676D01*
X87428571Y-49127676D02*
X87333333Y-49222914D01*
X87333333Y-49222914D02*
X87238095Y-49270533D01*
X88761904Y-49984819D02*
X88190476Y-49984819D01*
X88476190Y-49984819D02*
X88476190Y-48984819D01*
X88476190Y-48984819D02*
X88380952Y-49127676D01*
X88380952Y-49127676D02*
X88285714Y-49222914D01*
X88285714Y-49222914D02*
X88190476Y-49270533D01*
X118564819Y-64142857D02*
X118088628Y-64476190D01*
X118564819Y-64714285D02*
X117564819Y-64714285D01*
X117564819Y-64714285D02*
X117564819Y-64333333D01*
X117564819Y-64333333D02*
X117612438Y-64238095D01*
X117612438Y-64238095D02*
X117660057Y-64190476D01*
X117660057Y-64190476D02*
X117755295Y-64142857D01*
X117755295Y-64142857D02*
X117898152Y-64142857D01*
X117898152Y-64142857D02*
X117993390Y-64190476D01*
X117993390Y-64190476D02*
X118041009Y-64238095D01*
X118041009Y-64238095D02*
X118088628Y-64333333D01*
X118088628Y-64333333D02*
X118088628Y-64714285D01*
X117660057Y-63761904D02*
X117612438Y-63714285D01*
X117612438Y-63714285D02*
X117564819Y-63619047D01*
X117564819Y-63619047D02*
X117564819Y-63380952D01*
X117564819Y-63380952D02*
X117612438Y-63285714D01*
X117612438Y-63285714D02*
X117660057Y-63238095D01*
X117660057Y-63238095D02*
X117755295Y-63190476D01*
X117755295Y-63190476D02*
X117850533Y-63190476D01*
X117850533Y-63190476D02*
X117993390Y-63238095D01*
X117993390Y-63238095D02*
X118564819Y-63809523D01*
X118564819Y-63809523D02*
X118564819Y-63190476D01*
X118564819Y-62238095D02*
X118564819Y-62809523D01*
X118564819Y-62523809D02*
X117564819Y-62523809D01*
X117564819Y-62523809D02*
X117707676Y-62619047D01*
X117707676Y-62619047D02*
X117802914Y-62714285D01*
X117802914Y-62714285D02*
X117850533Y-62809523D01*
X91894819Y-135262857D02*
X91418628Y-135596190D01*
X91894819Y-135834285D02*
X90894819Y-135834285D01*
X90894819Y-135834285D02*
X90894819Y-135453333D01*
X90894819Y-135453333D02*
X90942438Y-135358095D01*
X90942438Y-135358095D02*
X90990057Y-135310476D01*
X90990057Y-135310476D02*
X91085295Y-135262857D01*
X91085295Y-135262857D02*
X91228152Y-135262857D01*
X91228152Y-135262857D02*
X91323390Y-135310476D01*
X91323390Y-135310476D02*
X91371009Y-135358095D01*
X91371009Y-135358095D02*
X91418628Y-135453333D01*
X91418628Y-135453333D02*
X91418628Y-135834285D01*
X91894819Y-134310476D02*
X91894819Y-134881904D01*
X91894819Y-134596190D02*
X90894819Y-134596190D01*
X90894819Y-134596190D02*
X91037676Y-134691428D01*
X91037676Y-134691428D02*
X91132914Y-134786666D01*
X91132914Y-134786666D02*
X91180533Y-134881904D01*
X90894819Y-133691428D02*
X90894819Y-133596190D01*
X90894819Y-133596190D02*
X90942438Y-133500952D01*
X90942438Y-133500952D02*
X90990057Y-133453333D01*
X90990057Y-133453333D02*
X91085295Y-133405714D01*
X91085295Y-133405714D02*
X91275771Y-133358095D01*
X91275771Y-133358095D02*
X91513866Y-133358095D01*
X91513866Y-133358095D02*
X91704342Y-133405714D01*
X91704342Y-133405714D02*
X91799580Y-133453333D01*
X91799580Y-133453333D02*
X91847200Y-133500952D01*
X91847200Y-133500952D02*
X91894819Y-133596190D01*
X91894819Y-133596190D02*
X91894819Y-133691428D01*
X91894819Y-133691428D02*
X91847200Y-133786666D01*
X91847200Y-133786666D02*
X91799580Y-133834285D01*
X91799580Y-133834285D02*
X91704342Y-133881904D01*
X91704342Y-133881904D02*
X91513866Y-133929523D01*
X91513866Y-133929523D02*
X91275771Y-133929523D01*
X91275771Y-133929523D02*
X91085295Y-133881904D01*
X91085295Y-133881904D02*
X90990057Y-133834285D01*
X90990057Y-133834285D02*
X90942438Y-133786666D01*
X90942438Y-133786666D02*
X90894819Y-133691428D01*
X147564819Y-120516857D02*
X147088628Y-120850190D01*
X147564819Y-121088285D02*
X146564819Y-121088285D01*
X146564819Y-121088285D02*
X146564819Y-120707333D01*
X146564819Y-120707333D02*
X146612438Y-120612095D01*
X146612438Y-120612095D02*
X146660057Y-120564476D01*
X146660057Y-120564476D02*
X146755295Y-120516857D01*
X146755295Y-120516857D02*
X146898152Y-120516857D01*
X146898152Y-120516857D02*
X146993390Y-120564476D01*
X146993390Y-120564476D02*
X147041009Y-120612095D01*
X147041009Y-120612095D02*
X147088628Y-120707333D01*
X147088628Y-120707333D02*
X147088628Y-121088285D01*
X146660057Y-120135904D02*
X146612438Y-120088285D01*
X146612438Y-120088285D02*
X146564819Y-119993047D01*
X146564819Y-119993047D02*
X146564819Y-119754952D01*
X146564819Y-119754952D02*
X146612438Y-119659714D01*
X146612438Y-119659714D02*
X146660057Y-119612095D01*
X146660057Y-119612095D02*
X146755295Y-119564476D01*
X146755295Y-119564476D02*
X146850533Y-119564476D01*
X146850533Y-119564476D02*
X146993390Y-119612095D01*
X146993390Y-119612095D02*
X147564819Y-120183523D01*
X147564819Y-120183523D02*
X147564819Y-119564476D01*
X146993390Y-118993047D02*
X146945771Y-119088285D01*
X146945771Y-119088285D02*
X146898152Y-119135904D01*
X146898152Y-119135904D02*
X146802914Y-119183523D01*
X146802914Y-119183523D02*
X146755295Y-119183523D01*
X146755295Y-119183523D02*
X146660057Y-119135904D01*
X146660057Y-119135904D02*
X146612438Y-119088285D01*
X146612438Y-119088285D02*
X146564819Y-118993047D01*
X146564819Y-118993047D02*
X146564819Y-118802571D01*
X146564819Y-118802571D02*
X146612438Y-118707333D01*
X146612438Y-118707333D02*
X146660057Y-118659714D01*
X146660057Y-118659714D02*
X146755295Y-118612095D01*
X146755295Y-118612095D02*
X146802914Y-118612095D01*
X146802914Y-118612095D02*
X146898152Y-118659714D01*
X146898152Y-118659714D02*
X146945771Y-118707333D01*
X146945771Y-118707333D02*
X146993390Y-118802571D01*
X146993390Y-118802571D02*
X146993390Y-118993047D01*
X146993390Y-118993047D02*
X147041009Y-119088285D01*
X147041009Y-119088285D02*
X147088628Y-119135904D01*
X147088628Y-119135904D02*
X147183866Y-119183523D01*
X147183866Y-119183523D02*
X147374342Y-119183523D01*
X147374342Y-119183523D02*
X147469580Y-119135904D01*
X147469580Y-119135904D02*
X147517200Y-119088285D01*
X147517200Y-119088285D02*
X147564819Y-118993047D01*
X147564819Y-118993047D02*
X147564819Y-118802571D01*
X147564819Y-118802571D02*
X147517200Y-118707333D01*
X147517200Y-118707333D02*
X147469580Y-118659714D01*
X147469580Y-118659714D02*
X147374342Y-118612095D01*
X147374342Y-118612095D02*
X147183866Y-118612095D01*
X147183866Y-118612095D02*
X147088628Y-118659714D01*
X147088628Y-118659714D02*
X147041009Y-118707333D01*
X147041009Y-118707333D02*
X146993390Y-118802571D01*
X151630476Y-44154819D02*
X151630476Y-44869104D01*
X151630476Y-44869104D02*
X151582857Y-45011961D01*
X151582857Y-45011961D02*
X151487619Y-45107200D01*
X151487619Y-45107200D02*
X151344762Y-45154819D01*
X151344762Y-45154819D02*
X151249524Y-45154819D01*
X152630476Y-45154819D02*
X152059048Y-45154819D01*
X152344762Y-45154819D02*
X152344762Y-44154819D01*
X152344762Y-44154819D02*
X152249524Y-44297676D01*
X152249524Y-44297676D02*
X152154286Y-44392914D01*
X152154286Y-44392914D02*
X152059048Y-44440533D01*
X153487619Y-44154819D02*
X153297143Y-44154819D01*
X153297143Y-44154819D02*
X153201905Y-44202438D01*
X153201905Y-44202438D02*
X153154286Y-44250057D01*
X153154286Y-44250057D02*
X153059048Y-44392914D01*
X153059048Y-44392914D02*
X153011429Y-44583390D01*
X153011429Y-44583390D02*
X153011429Y-44964342D01*
X153011429Y-44964342D02*
X153059048Y-45059580D01*
X153059048Y-45059580D02*
X153106667Y-45107200D01*
X153106667Y-45107200D02*
X153201905Y-45154819D01*
X153201905Y-45154819D02*
X153392381Y-45154819D01*
X153392381Y-45154819D02*
X153487619Y-45107200D01*
X153487619Y-45107200D02*
X153535238Y-45059580D01*
X153535238Y-45059580D02*
X153582857Y-44964342D01*
X153582857Y-44964342D02*
X153582857Y-44726247D01*
X153582857Y-44726247D02*
X153535238Y-44631009D01*
X153535238Y-44631009D02*
X153487619Y-44583390D01*
X153487619Y-44583390D02*
X153392381Y-44535771D01*
X153392381Y-44535771D02*
X153201905Y-44535771D01*
X153201905Y-44535771D02*
X153106667Y-44583390D01*
X153106667Y-44583390D02*
X153059048Y-44631009D01*
X153059048Y-44631009D02*
X153011429Y-44726247D01*
X114927142Y-55454819D02*
X114593809Y-54978628D01*
X114355714Y-55454819D02*
X114355714Y-54454819D01*
X114355714Y-54454819D02*
X114736666Y-54454819D01*
X114736666Y-54454819D02*
X114831904Y-54502438D01*
X114831904Y-54502438D02*
X114879523Y-54550057D01*
X114879523Y-54550057D02*
X114927142Y-54645295D01*
X114927142Y-54645295D02*
X114927142Y-54788152D01*
X114927142Y-54788152D02*
X114879523Y-54883390D01*
X114879523Y-54883390D02*
X114831904Y-54931009D01*
X114831904Y-54931009D02*
X114736666Y-54978628D01*
X114736666Y-54978628D02*
X114355714Y-54978628D01*
X115879523Y-55454819D02*
X115308095Y-55454819D01*
X115593809Y-55454819D02*
X115593809Y-54454819D01*
X115593809Y-54454819D02*
X115498571Y-54597676D01*
X115498571Y-54597676D02*
X115403333Y-54692914D01*
X115403333Y-54692914D02*
X115308095Y-54740533D01*
X116784285Y-54454819D02*
X116308095Y-54454819D01*
X116308095Y-54454819D02*
X116260476Y-54931009D01*
X116260476Y-54931009D02*
X116308095Y-54883390D01*
X116308095Y-54883390D02*
X116403333Y-54835771D01*
X116403333Y-54835771D02*
X116641428Y-54835771D01*
X116641428Y-54835771D02*
X116736666Y-54883390D01*
X116736666Y-54883390D02*
X116784285Y-54931009D01*
X116784285Y-54931009D02*
X116831904Y-55026247D01*
X116831904Y-55026247D02*
X116831904Y-55264342D01*
X116831904Y-55264342D02*
X116784285Y-55359580D01*
X116784285Y-55359580D02*
X116736666Y-55407200D01*
X116736666Y-55407200D02*
X116641428Y-55454819D01*
X116641428Y-55454819D02*
X116403333Y-55454819D01*
X116403333Y-55454819D02*
X116308095Y-55407200D01*
X116308095Y-55407200D02*
X116260476Y-55359580D01*
X157916666Y-142254819D02*
X157916666Y-142969104D01*
X157916666Y-142969104D02*
X157869047Y-143111961D01*
X157869047Y-143111961D02*
X157773809Y-143207200D01*
X157773809Y-143207200D02*
X157630952Y-143254819D01*
X157630952Y-143254819D02*
X157535714Y-143254819D01*
X158535714Y-142683390D02*
X158440476Y-142635771D01*
X158440476Y-142635771D02*
X158392857Y-142588152D01*
X158392857Y-142588152D02*
X158345238Y-142492914D01*
X158345238Y-142492914D02*
X158345238Y-142445295D01*
X158345238Y-142445295D02*
X158392857Y-142350057D01*
X158392857Y-142350057D02*
X158440476Y-142302438D01*
X158440476Y-142302438D02*
X158535714Y-142254819D01*
X158535714Y-142254819D02*
X158726190Y-142254819D01*
X158726190Y-142254819D02*
X158821428Y-142302438D01*
X158821428Y-142302438D02*
X158869047Y-142350057D01*
X158869047Y-142350057D02*
X158916666Y-142445295D01*
X158916666Y-142445295D02*
X158916666Y-142492914D01*
X158916666Y-142492914D02*
X158869047Y-142588152D01*
X158869047Y-142588152D02*
X158821428Y-142635771D01*
X158821428Y-142635771D02*
X158726190Y-142683390D01*
X158726190Y-142683390D02*
X158535714Y-142683390D01*
X158535714Y-142683390D02*
X158440476Y-142731009D01*
X158440476Y-142731009D02*
X158392857Y-142778628D01*
X158392857Y-142778628D02*
X158345238Y-142873866D01*
X158345238Y-142873866D02*
X158345238Y-143064342D01*
X158345238Y-143064342D02*
X158392857Y-143159580D01*
X158392857Y-143159580D02*
X158440476Y-143207200D01*
X158440476Y-143207200D02*
X158535714Y-143254819D01*
X158535714Y-143254819D02*
X158726190Y-143254819D01*
X158726190Y-143254819D02*
X158821428Y-143207200D01*
X158821428Y-143207200D02*
X158869047Y-143159580D01*
X158869047Y-143159580D02*
X158916666Y-143064342D01*
X158916666Y-143064342D02*
X158916666Y-142873866D01*
X158916666Y-142873866D02*
X158869047Y-142778628D01*
X158869047Y-142778628D02*
X158821428Y-142731009D01*
X158821428Y-142731009D02*
X158726190Y-142683390D01*
X98244819Y-115038094D02*
X97244819Y-115038094D01*
X97244819Y-115038094D02*
X97244819Y-114799999D01*
X97244819Y-114799999D02*
X97292438Y-114657142D01*
X97292438Y-114657142D02*
X97387676Y-114561904D01*
X97387676Y-114561904D02*
X97482914Y-114514285D01*
X97482914Y-114514285D02*
X97673390Y-114466666D01*
X97673390Y-114466666D02*
X97816247Y-114466666D01*
X97816247Y-114466666D02*
X98006723Y-114514285D01*
X98006723Y-114514285D02*
X98101961Y-114561904D01*
X98101961Y-114561904D02*
X98197200Y-114657142D01*
X98197200Y-114657142D02*
X98244819Y-114799999D01*
X98244819Y-114799999D02*
X98244819Y-115038094D01*
X97578152Y-113609523D02*
X98244819Y-113609523D01*
X97197200Y-113847618D02*
X97911485Y-114085713D01*
X97911485Y-114085713D02*
X97911485Y-113466666D01*
X98244819Y-118376904D02*
X97244819Y-118376904D01*
X98244819Y-117805476D02*
X97673390Y-118234047D01*
X97244819Y-117805476D02*
X97816247Y-118376904D01*
X97909580Y-122066666D02*
X97957200Y-122114285D01*
X97957200Y-122114285D02*
X98004819Y-122257142D01*
X98004819Y-122257142D02*
X98004819Y-122352380D01*
X98004819Y-122352380D02*
X97957200Y-122495237D01*
X97957200Y-122495237D02*
X97861961Y-122590475D01*
X97861961Y-122590475D02*
X97766723Y-122638094D01*
X97766723Y-122638094D02*
X97576247Y-122685713D01*
X97576247Y-122685713D02*
X97433390Y-122685713D01*
X97433390Y-122685713D02*
X97242914Y-122638094D01*
X97242914Y-122638094D02*
X97147676Y-122590475D01*
X97147676Y-122590475D02*
X97052438Y-122495237D01*
X97052438Y-122495237D02*
X97004819Y-122352380D01*
X97004819Y-122352380D02*
X97004819Y-122257142D01*
X97004819Y-122257142D02*
X97052438Y-122114285D01*
X97052438Y-122114285D02*
X97100057Y-122066666D01*
X97338152Y-121209523D02*
X98004819Y-121209523D01*
X96957200Y-121447618D02*
X97671485Y-121685713D01*
X97671485Y-121685713D02*
X97671485Y-121066666D01*
X81884819Y-72985238D02*
X81408628Y-73318571D01*
X81884819Y-73556666D02*
X80884819Y-73556666D01*
X80884819Y-73556666D02*
X80884819Y-73175714D01*
X80884819Y-73175714D02*
X80932438Y-73080476D01*
X80932438Y-73080476D02*
X80980057Y-73032857D01*
X80980057Y-73032857D02*
X81075295Y-72985238D01*
X81075295Y-72985238D02*
X81218152Y-72985238D01*
X81218152Y-72985238D02*
X81313390Y-73032857D01*
X81313390Y-73032857D02*
X81361009Y-73080476D01*
X81361009Y-73080476D02*
X81408628Y-73175714D01*
X81408628Y-73175714D02*
X81408628Y-73556666D01*
X80884819Y-72699523D02*
X81884819Y-72366190D01*
X81884819Y-72366190D02*
X80884819Y-72032857D01*
X80884819Y-71794761D02*
X80884819Y-71175714D01*
X80884819Y-71175714D02*
X81265771Y-71509047D01*
X81265771Y-71509047D02*
X81265771Y-71366190D01*
X81265771Y-71366190D02*
X81313390Y-71270952D01*
X81313390Y-71270952D02*
X81361009Y-71223333D01*
X81361009Y-71223333D02*
X81456247Y-71175714D01*
X81456247Y-71175714D02*
X81694342Y-71175714D01*
X81694342Y-71175714D02*
X81789580Y-71223333D01*
X81789580Y-71223333D02*
X81837200Y-71270952D01*
X81837200Y-71270952D02*
X81884819Y-71366190D01*
X81884819Y-71366190D02*
X81884819Y-71651904D01*
X81884819Y-71651904D02*
X81837200Y-71747142D01*
X81837200Y-71747142D02*
X81789580Y-71794761D01*
X194190476Y-56954819D02*
X194190476Y-57669104D01*
X194190476Y-57669104D02*
X194142857Y-57811961D01*
X194142857Y-57811961D02*
X194047619Y-57907200D01*
X194047619Y-57907200D02*
X193904762Y-57954819D01*
X193904762Y-57954819D02*
X193809524Y-57954819D01*
X195190476Y-57954819D02*
X194619048Y-57954819D01*
X194904762Y-57954819D02*
X194904762Y-56954819D01*
X194904762Y-56954819D02*
X194809524Y-57097676D01*
X194809524Y-57097676D02*
X194714286Y-57192914D01*
X194714286Y-57192914D02*
X194619048Y-57240533D01*
X196142857Y-57954819D02*
X195571429Y-57954819D01*
X195857143Y-57954819D02*
X195857143Y-56954819D01*
X195857143Y-56954819D02*
X195761905Y-57097676D01*
X195761905Y-57097676D02*
X195666667Y-57192914D01*
X195666667Y-57192914D02*
X195571429Y-57240533D01*
X149284819Y-71951904D02*
X150094342Y-71951904D01*
X150094342Y-71951904D02*
X150189580Y-71904285D01*
X150189580Y-71904285D02*
X150237200Y-71856666D01*
X150237200Y-71856666D02*
X150284819Y-71761428D01*
X150284819Y-71761428D02*
X150284819Y-71570952D01*
X150284819Y-71570952D02*
X150237200Y-71475714D01*
X150237200Y-71475714D02*
X150189580Y-71428095D01*
X150189580Y-71428095D02*
X150094342Y-71380476D01*
X150094342Y-71380476D02*
X149284819Y-71380476D01*
X150284819Y-70380476D02*
X150284819Y-70951904D01*
X150284819Y-70666190D02*
X149284819Y-70666190D01*
X149284819Y-70666190D02*
X149427676Y-70761428D01*
X149427676Y-70761428D02*
X149522914Y-70856666D01*
X149522914Y-70856666D02*
X149570533Y-70951904D01*
X104594819Y-57792857D02*
X104118628Y-58126190D01*
X104594819Y-58364285D02*
X103594819Y-58364285D01*
X103594819Y-58364285D02*
X103594819Y-57983333D01*
X103594819Y-57983333D02*
X103642438Y-57888095D01*
X103642438Y-57888095D02*
X103690057Y-57840476D01*
X103690057Y-57840476D02*
X103785295Y-57792857D01*
X103785295Y-57792857D02*
X103928152Y-57792857D01*
X103928152Y-57792857D02*
X104023390Y-57840476D01*
X104023390Y-57840476D02*
X104071009Y-57888095D01*
X104071009Y-57888095D02*
X104118628Y-57983333D01*
X104118628Y-57983333D02*
X104118628Y-58364285D01*
X104594819Y-56840476D02*
X104594819Y-57411904D01*
X104594819Y-57126190D02*
X103594819Y-57126190D01*
X103594819Y-57126190D02*
X103737676Y-57221428D01*
X103737676Y-57221428D02*
X103832914Y-57316666D01*
X103832914Y-57316666D02*
X103880533Y-57411904D01*
X103594819Y-56507142D02*
X103594819Y-55888095D01*
X103594819Y-55888095D02*
X103975771Y-56221428D01*
X103975771Y-56221428D02*
X103975771Y-56078571D01*
X103975771Y-56078571D02*
X104023390Y-55983333D01*
X104023390Y-55983333D02*
X104071009Y-55935714D01*
X104071009Y-55935714D02*
X104166247Y-55888095D01*
X104166247Y-55888095D02*
X104404342Y-55888095D01*
X104404342Y-55888095D02*
X104499580Y-55935714D01*
X104499580Y-55935714D02*
X104547200Y-55983333D01*
X104547200Y-55983333D02*
X104594819Y-56078571D01*
X104594819Y-56078571D02*
X104594819Y-56364285D01*
X104594819Y-56364285D02*
X104547200Y-56459523D01*
X104547200Y-56459523D02*
X104499580Y-56507142D01*
X91894819Y-87796666D02*
X91418628Y-88129999D01*
X91894819Y-88368094D02*
X90894819Y-88368094D01*
X90894819Y-88368094D02*
X90894819Y-87987142D01*
X90894819Y-87987142D02*
X90942438Y-87891904D01*
X90942438Y-87891904D02*
X90990057Y-87844285D01*
X90990057Y-87844285D02*
X91085295Y-87796666D01*
X91085295Y-87796666D02*
X91228152Y-87796666D01*
X91228152Y-87796666D02*
X91323390Y-87844285D01*
X91323390Y-87844285D02*
X91371009Y-87891904D01*
X91371009Y-87891904D02*
X91418628Y-87987142D01*
X91418628Y-87987142D02*
X91418628Y-88368094D01*
X91228152Y-86939523D02*
X91894819Y-86939523D01*
X90847200Y-87177618D02*
X91561485Y-87415713D01*
X91561485Y-87415713D02*
X91561485Y-86796666D01*
X139534819Y-120142857D02*
X139058628Y-120476190D01*
X139534819Y-120714285D02*
X138534819Y-120714285D01*
X138534819Y-120714285D02*
X138534819Y-120333333D01*
X138534819Y-120333333D02*
X138582438Y-120238095D01*
X138582438Y-120238095D02*
X138630057Y-120190476D01*
X138630057Y-120190476D02*
X138725295Y-120142857D01*
X138725295Y-120142857D02*
X138868152Y-120142857D01*
X138868152Y-120142857D02*
X138963390Y-120190476D01*
X138963390Y-120190476D02*
X139011009Y-120238095D01*
X139011009Y-120238095D02*
X139058628Y-120333333D01*
X139058628Y-120333333D02*
X139058628Y-120714285D01*
X138630057Y-119761904D02*
X138582438Y-119714285D01*
X138582438Y-119714285D02*
X138534819Y-119619047D01*
X138534819Y-119619047D02*
X138534819Y-119380952D01*
X138534819Y-119380952D02*
X138582438Y-119285714D01*
X138582438Y-119285714D02*
X138630057Y-119238095D01*
X138630057Y-119238095D02*
X138725295Y-119190476D01*
X138725295Y-119190476D02*
X138820533Y-119190476D01*
X138820533Y-119190476D02*
X138963390Y-119238095D01*
X138963390Y-119238095D02*
X139534819Y-119809523D01*
X139534819Y-119809523D02*
X139534819Y-119190476D01*
X138534819Y-118333333D02*
X138534819Y-118523809D01*
X138534819Y-118523809D02*
X138582438Y-118619047D01*
X138582438Y-118619047D02*
X138630057Y-118666666D01*
X138630057Y-118666666D02*
X138772914Y-118761904D01*
X138772914Y-118761904D02*
X138963390Y-118809523D01*
X138963390Y-118809523D02*
X139344342Y-118809523D01*
X139344342Y-118809523D02*
X139439580Y-118761904D01*
X139439580Y-118761904D02*
X139487200Y-118714285D01*
X139487200Y-118714285D02*
X139534819Y-118619047D01*
X139534819Y-118619047D02*
X139534819Y-118428571D01*
X139534819Y-118428571D02*
X139487200Y-118333333D01*
X139487200Y-118333333D02*
X139439580Y-118285714D01*
X139439580Y-118285714D02*
X139344342Y-118238095D01*
X139344342Y-118238095D02*
X139106247Y-118238095D01*
X139106247Y-118238095D02*
X139011009Y-118285714D01*
X139011009Y-118285714D02*
X138963390Y-118333333D01*
X138963390Y-118333333D02*
X138915771Y-118428571D01*
X138915771Y-118428571D02*
X138915771Y-118619047D01*
X138915771Y-118619047D02*
X138963390Y-118714285D01*
X138963390Y-118714285D02*
X139011009Y-118761904D01*
X139011009Y-118761904D02*
X139106247Y-118809523D01*
X81884819Y-88225238D02*
X81408628Y-88558571D01*
X81884819Y-88796666D02*
X80884819Y-88796666D01*
X80884819Y-88796666D02*
X80884819Y-88415714D01*
X80884819Y-88415714D02*
X80932438Y-88320476D01*
X80932438Y-88320476D02*
X80980057Y-88272857D01*
X80980057Y-88272857D02*
X81075295Y-88225238D01*
X81075295Y-88225238D02*
X81218152Y-88225238D01*
X81218152Y-88225238D02*
X81313390Y-88272857D01*
X81313390Y-88272857D02*
X81361009Y-88320476D01*
X81361009Y-88320476D02*
X81408628Y-88415714D01*
X81408628Y-88415714D02*
X81408628Y-88796666D01*
X80884819Y-87939523D02*
X81884819Y-87606190D01*
X81884819Y-87606190D02*
X80884819Y-87272857D01*
X80980057Y-86987142D02*
X80932438Y-86939523D01*
X80932438Y-86939523D02*
X80884819Y-86844285D01*
X80884819Y-86844285D02*
X80884819Y-86606190D01*
X80884819Y-86606190D02*
X80932438Y-86510952D01*
X80932438Y-86510952D02*
X80980057Y-86463333D01*
X80980057Y-86463333D02*
X81075295Y-86415714D01*
X81075295Y-86415714D02*
X81170533Y-86415714D01*
X81170533Y-86415714D02*
X81313390Y-86463333D01*
X81313390Y-86463333D02*
X81884819Y-87034761D01*
X81884819Y-87034761D02*
X81884819Y-86415714D01*
X97909580Y-137306666D02*
X97957200Y-137354285D01*
X97957200Y-137354285D02*
X98004819Y-137497142D01*
X98004819Y-137497142D02*
X98004819Y-137592380D01*
X98004819Y-137592380D02*
X97957200Y-137735237D01*
X97957200Y-137735237D02*
X97861961Y-137830475D01*
X97861961Y-137830475D02*
X97766723Y-137878094D01*
X97766723Y-137878094D02*
X97576247Y-137925713D01*
X97576247Y-137925713D02*
X97433390Y-137925713D01*
X97433390Y-137925713D02*
X97242914Y-137878094D01*
X97242914Y-137878094D02*
X97147676Y-137830475D01*
X97147676Y-137830475D02*
X97052438Y-137735237D01*
X97052438Y-137735237D02*
X97004819Y-137592380D01*
X97004819Y-137592380D02*
X97004819Y-137497142D01*
X97004819Y-137497142D02*
X97052438Y-137354285D01*
X97052438Y-137354285D02*
X97100057Y-137306666D01*
X97004819Y-136401904D02*
X97004819Y-136878094D01*
X97004819Y-136878094D02*
X97481009Y-136925713D01*
X97481009Y-136925713D02*
X97433390Y-136878094D01*
X97433390Y-136878094D02*
X97385771Y-136782856D01*
X97385771Y-136782856D02*
X97385771Y-136544761D01*
X97385771Y-136544761D02*
X97433390Y-136449523D01*
X97433390Y-136449523D02*
X97481009Y-136401904D01*
X97481009Y-136401904D02*
X97576247Y-136354285D01*
X97576247Y-136354285D02*
X97814342Y-136354285D01*
X97814342Y-136354285D02*
X97909580Y-136401904D01*
X97909580Y-136401904D02*
X97957200Y-136449523D01*
X97957200Y-136449523D02*
X98004819Y-136544761D01*
X98004819Y-136544761D02*
X98004819Y-136782856D01*
X98004819Y-136782856D02*
X97957200Y-136878094D01*
X97957200Y-136878094D02*
X97909580Y-136925713D01*
X118690476Y-142254819D02*
X118690476Y-142969104D01*
X118690476Y-142969104D02*
X118642857Y-143111961D01*
X118642857Y-143111961D02*
X118547619Y-143207200D01*
X118547619Y-143207200D02*
X118404762Y-143254819D01*
X118404762Y-143254819D02*
X118309524Y-143254819D01*
X119690476Y-143254819D02*
X119119048Y-143254819D01*
X119404762Y-143254819D02*
X119404762Y-142254819D01*
X119404762Y-142254819D02*
X119309524Y-142397676D01*
X119309524Y-142397676D02*
X119214286Y-142492914D01*
X119214286Y-142492914D02*
X119119048Y-142540533D01*
X120595238Y-142254819D02*
X120119048Y-142254819D01*
X120119048Y-142254819D02*
X120071429Y-142731009D01*
X120071429Y-142731009D02*
X120119048Y-142683390D01*
X120119048Y-142683390D02*
X120214286Y-142635771D01*
X120214286Y-142635771D02*
X120452381Y-142635771D01*
X120452381Y-142635771D02*
X120547619Y-142683390D01*
X120547619Y-142683390D02*
X120595238Y-142731009D01*
X120595238Y-142731009D02*
X120642857Y-142826247D01*
X120642857Y-142826247D02*
X120642857Y-143064342D01*
X120642857Y-143064342D02*
X120595238Y-143159580D01*
X120595238Y-143159580D02*
X120547619Y-143207200D01*
X120547619Y-143207200D02*
X120452381Y-143254819D01*
X120452381Y-143254819D02*
X120214286Y-143254819D01*
X120214286Y-143254819D02*
X120119048Y-143207200D01*
X120119048Y-143207200D02*
X120071429Y-143159580D01*
X76838095Y-136254819D02*
X76838095Y-135254819D01*
X76838095Y-135731009D02*
X77409523Y-135731009D01*
X77409523Y-136254819D02*
X77409523Y-135254819D01*
X77838095Y-135350057D02*
X77885714Y-135302438D01*
X77885714Y-135302438D02*
X77980952Y-135254819D01*
X77980952Y-135254819D02*
X78219047Y-135254819D01*
X78219047Y-135254819D02*
X78314285Y-135302438D01*
X78314285Y-135302438D02*
X78361904Y-135350057D01*
X78361904Y-135350057D02*
X78409523Y-135445295D01*
X78409523Y-135445295D02*
X78409523Y-135540533D01*
X78409523Y-135540533D02*
X78361904Y-135683390D01*
X78361904Y-135683390D02*
X77790476Y-136254819D01*
X77790476Y-136254819D02*
X78409523Y-136254819D01*
X86193333Y-80464819D02*
X85860000Y-79988628D01*
X85621905Y-80464819D02*
X85621905Y-79464819D01*
X85621905Y-79464819D02*
X86002857Y-79464819D01*
X86002857Y-79464819D02*
X86098095Y-79512438D01*
X86098095Y-79512438D02*
X86145714Y-79560057D01*
X86145714Y-79560057D02*
X86193333Y-79655295D01*
X86193333Y-79655295D02*
X86193333Y-79798152D01*
X86193333Y-79798152D02*
X86145714Y-79893390D01*
X86145714Y-79893390D02*
X86098095Y-79941009D01*
X86098095Y-79941009D02*
X86002857Y-79988628D01*
X86002857Y-79988628D02*
X85621905Y-79988628D01*
X86526667Y-79464819D02*
X87145714Y-79464819D01*
X87145714Y-79464819D02*
X86812381Y-79845771D01*
X86812381Y-79845771D02*
X86955238Y-79845771D01*
X86955238Y-79845771D02*
X87050476Y-79893390D01*
X87050476Y-79893390D02*
X87098095Y-79941009D01*
X87098095Y-79941009D02*
X87145714Y-80036247D01*
X87145714Y-80036247D02*
X87145714Y-80274342D01*
X87145714Y-80274342D02*
X87098095Y-80369580D01*
X87098095Y-80369580D02*
X87050476Y-80417200D01*
X87050476Y-80417200D02*
X86955238Y-80464819D01*
X86955238Y-80464819D02*
X86669524Y-80464819D01*
X86669524Y-80464819D02*
X86574286Y-80417200D01*
X86574286Y-80417200D02*
X86526667Y-80369580D01*
X166850476Y-44154819D02*
X166850476Y-44869104D01*
X166850476Y-44869104D02*
X166802857Y-45011961D01*
X166802857Y-45011961D02*
X166707619Y-45107200D01*
X166707619Y-45107200D02*
X166564762Y-45154819D01*
X166564762Y-45154819D02*
X166469524Y-45154819D01*
X167850476Y-45154819D02*
X167279048Y-45154819D01*
X167564762Y-45154819D02*
X167564762Y-44154819D01*
X167564762Y-44154819D02*
X167469524Y-44297676D01*
X167469524Y-44297676D02*
X167374286Y-44392914D01*
X167374286Y-44392914D02*
X167279048Y-44440533D01*
X168231429Y-44250057D02*
X168279048Y-44202438D01*
X168279048Y-44202438D02*
X168374286Y-44154819D01*
X168374286Y-44154819D02*
X168612381Y-44154819D01*
X168612381Y-44154819D02*
X168707619Y-44202438D01*
X168707619Y-44202438D02*
X168755238Y-44250057D01*
X168755238Y-44250057D02*
X168802857Y-44345295D01*
X168802857Y-44345295D02*
X168802857Y-44440533D01*
X168802857Y-44440533D02*
X168755238Y-44583390D01*
X168755238Y-44583390D02*
X168183810Y-45154819D01*
X168183810Y-45154819D02*
X168802857Y-45154819D01*
X97909580Y-105556666D02*
X97957200Y-105604285D01*
X97957200Y-105604285D02*
X98004819Y-105747142D01*
X98004819Y-105747142D02*
X98004819Y-105842380D01*
X98004819Y-105842380D02*
X97957200Y-105985237D01*
X97957200Y-105985237D02*
X97861961Y-106080475D01*
X97861961Y-106080475D02*
X97766723Y-106128094D01*
X97766723Y-106128094D02*
X97576247Y-106175713D01*
X97576247Y-106175713D02*
X97433390Y-106175713D01*
X97433390Y-106175713D02*
X97242914Y-106128094D01*
X97242914Y-106128094D02*
X97147676Y-106080475D01*
X97147676Y-106080475D02*
X97052438Y-105985237D01*
X97052438Y-105985237D02*
X97004819Y-105842380D01*
X97004819Y-105842380D02*
X97004819Y-105747142D01*
X97004819Y-105747142D02*
X97052438Y-105604285D01*
X97052438Y-105604285D02*
X97100057Y-105556666D01*
X98004819Y-104604285D02*
X98004819Y-105175713D01*
X98004819Y-104889999D02*
X97004819Y-104889999D01*
X97004819Y-104889999D02*
X97147676Y-104985237D01*
X97147676Y-104985237D02*
X97242914Y-105080475D01*
X97242914Y-105080475D02*
X97290533Y-105175713D01*
X105096666Y-44154819D02*
X105096666Y-44869104D01*
X105096666Y-44869104D02*
X105049047Y-45011961D01*
X105049047Y-45011961D02*
X104953809Y-45107200D01*
X104953809Y-45107200D02*
X104810952Y-45154819D01*
X104810952Y-45154819D02*
X104715714Y-45154819D01*
X106049047Y-44154819D02*
X105572857Y-44154819D01*
X105572857Y-44154819D02*
X105525238Y-44631009D01*
X105525238Y-44631009D02*
X105572857Y-44583390D01*
X105572857Y-44583390D02*
X105668095Y-44535771D01*
X105668095Y-44535771D02*
X105906190Y-44535771D01*
X105906190Y-44535771D02*
X106001428Y-44583390D01*
X106001428Y-44583390D02*
X106049047Y-44631009D01*
X106049047Y-44631009D02*
X106096666Y-44726247D01*
X106096666Y-44726247D02*
X106096666Y-44964342D01*
X106096666Y-44964342D02*
X106049047Y-45059580D01*
X106049047Y-45059580D02*
X106001428Y-45107200D01*
X106001428Y-45107200D02*
X105906190Y-45154819D01*
X105906190Y-45154819D02*
X105668095Y-45154819D01*
X105668095Y-45154819D02*
X105572857Y-45107200D01*
X105572857Y-45107200D02*
X105525238Y-45059580D01*
X189035151Y-48454819D02*
X189035151Y-47454819D01*
X189035151Y-47931009D02*
X189606579Y-47931009D01*
X189606579Y-48454819D02*
X189606579Y-47454819D01*
X189987532Y-47454819D02*
X190606579Y-47454819D01*
X190606579Y-47454819D02*
X190273246Y-47835771D01*
X190273246Y-47835771D02*
X190416103Y-47835771D01*
X190416103Y-47835771D02*
X190511341Y-47883390D01*
X190511341Y-47883390D02*
X190558960Y-47931009D01*
X190558960Y-47931009D02*
X190606579Y-48026247D01*
X190606579Y-48026247D02*
X190606579Y-48264342D01*
X190606579Y-48264342D02*
X190558960Y-48359580D01*
X190558960Y-48359580D02*
X190511341Y-48407200D01*
X190511341Y-48407200D02*
X190416103Y-48454819D01*
X190416103Y-48454819D02*
X190130389Y-48454819D01*
X190130389Y-48454819D02*
X190035151Y-48407200D01*
X190035151Y-48407200D02*
X189987532Y-48359580D01*
X114754819Y-64142857D02*
X114278628Y-64476190D01*
X114754819Y-64714285D02*
X113754819Y-64714285D01*
X113754819Y-64714285D02*
X113754819Y-64333333D01*
X113754819Y-64333333D02*
X113802438Y-64238095D01*
X113802438Y-64238095D02*
X113850057Y-64190476D01*
X113850057Y-64190476D02*
X113945295Y-64142857D01*
X113945295Y-64142857D02*
X114088152Y-64142857D01*
X114088152Y-64142857D02*
X114183390Y-64190476D01*
X114183390Y-64190476D02*
X114231009Y-64238095D01*
X114231009Y-64238095D02*
X114278628Y-64333333D01*
X114278628Y-64333333D02*
X114278628Y-64714285D01*
X113850057Y-63761904D02*
X113802438Y-63714285D01*
X113802438Y-63714285D02*
X113754819Y-63619047D01*
X113754819Y-63619047D02*
X113754819Y-63380952D01*
X113754819Y-63380952D02*
X113802438Y-63285714D01*
X113802438Y-63285714D02*
X113850057Y-63238095D01*
X113850057Y-63238095D02*
X113945295Y-63190476D01*
X113945295Y-63190476D02*
X114040533Y-63190476D01*
X114040533Y-63190476D02*
X114183390Y-63238095D01*
X114183390Y-63238095D02*
X114754819Y-63809523D01*
X114754819Y-63809523D02*
X114754819Y-63190476D01*
X113850057Y-62809523D02*
X113802438Y-62761904D01*
X113802438Y-62761904D02*
X113754819Y-62666666D01*
X113754819Y-62666666D02*
X113754819Y-62428571D01*
X113754819Y-62428571D02*
X113802438Y-62333333D01*
X113802438Y-62333333D02*
X113850057Y-62285714D01*
X113850057Y-62285714D02*
X113945295Y-62238095D01*
X113945295Y-62238095D02*
X114040533Y-62238095D01*
X114040533Y-62238095D02*
X114183390Y-62285714D01*
X114183390Y-62285714D02*
X114754819Y-62857142D01*
X114754819Y-62857142D02*
X114754819Y-62238095D01*
X91894819Y-103036666D02*
X91418628Y-103369999D01*
X91894819Y-103608094D02*
X90894819Y-103608094D01*
X90894819Y-103608094D02*
X90894819Y-103227142D01*
X90894819Y-103227142D02*
X90942438Y-103131904D01*
X90942438Y-103131904D02*
X90990057Y-103084285D01*
X90990057Y-103084285D02*
X91085295Y-103036666D01*
X91085295Y-103036666D02*
X91228152Y-103036666D01*
X91228152Y-103036666D02*
X91323390Y-103084285D01*
X91323390Y-103084285D02*
X91371009Y-103131904D01*
X91371009Y-103131904D02*
X91418628Y-103227142D01*
X91418628Y-103227142D02*
X91418628Y-103608094D01*
X90990057Y-102655713D02*
X90942438Y-102608094D01*
X90942438Y-102608094D02*
X90894819Y-102512856D01*
X90894819Y-102512856D02*
X90894819Y-102274761D01*
X90894819Y-102274761D02*
X90942438Y-102179523D01*
X90942438Y-102179523D02*
X90990057Y-102131904D01*
X90990057Y-102131904D02*
X91085295Y-102084285D01*
X91085295Y-102084285D02*
X91180533Y-102084285D01*
X91180533Y-102084285D02*
X91323390Y-102131904D01*
X91323390Y-102131904D02*
X91894819Y-102703332D01*
X91894819Y-102703332D02*
X91894819Y-102084285D01*
X156014819Y-60642857D02*
X155538628Y-60976190D01*
X156014819Y-61214285D02*
X155014819Y-61214285D01*
X155014819Y-61214285D02*
X155014819Y-60833333D01*
X155014819Y-60833333D02*
X155062438Y-60738095D01*
X155062438Y-60738095D02*
X155110057Y-60690476D01*
X155110057Y-60690476D02*
X155205295Y-60642857D01*
X155205295Y-60642857D02*
X155348152Y-60642857D01*
X155348152Y-60642857D02*
X155443390Y-60690476D01*
X155443390Y-60690476D02*
X155491009Y-60738095D01*
X155491009Y-60738095D02*
X155538628Y-60833333D01*
X155538628Y-60833333D02*
X155538628Y-61214285D01*
X155014819Y-60309523D02*
X155014819Y-59690476D01*
X155014819Y-59690476D02*
X155395771Y-60023809D01*
X155395771Y-60023809D02*
X155395771Y-59880952D01*
X155395771Y-59880952D02*
X155443390Y-59785714D01*
X155443390Y-59785714D02*
X155491009Y-59738095D01*
X155491009Y-59738095D02*
X155586247Y-59690476D01*
X155586247Y-59690476D02*
X155824342Y-59690476D01*
X155824342Y-59690476D02*
X155919580Y-59738095D01*
X155919580Y-59738095D02*
X155967200Y-59785714D01*
X155967200Y-59785714D02*
X156014819Y-59880952D01*
X156014819Y-59880952D02*
X156014819Y-60166666D01*
X156014819Y-60166666D02*
X155967200Y-60261904D01*
X155967200Y-60261904D02*
X155919580Y-60309523D01*
X155348152Y-58833333D02*
X156014819Y-58833333D01*
X154967200Y-59071428D02*
X155681485Y-59309523D01*
X155681485Y-59309523D02*
X155681485Y-58690476D01*
X112394819Y-88272857D02*
X111918628Y-88606190D01*
X112394819Y-88844285D02*
X111394819Y-88844285D01*
X111394819Y-88844285D02*
X111394819Y-88463333D01*
X111394819Y-88463333D02*
X111442438Y-88368095D01*
X111442438Y-88368095D02*
X111490057Y-88320476D01*
X111490057Y-88320476D02*
X111585295Y-88272857D01*
X111585295Y-88272857D02*
X111728152Y-88272857D01*
X111728152Y-88272857D02*
X111823390Y-88320476D01*
X111823390Y-88320476D02*
X111871009Y-88368095D01*
X111871009Y-88368095D02*
X111918628Y-88463333D01*
X111918628Y-88463333D02*
X111918628Y-88844285D01*
X111394819Y-87939523D02*
X111394819Y-87320476D01*
X111394819Y-87320476D02*
X111775771Y-87653809D01*
X111775771Y-87653809D02*
X111775771Y-87510952D01*
X111775771Y-87510952D02*
X111823390Y-87415714D01*
X111823390Y-87415714D02*
X111871009Y-87368095D01*
X111871009Y-87368095D02*
X111966247Y-87320476D01*
X111966247Y-87320476D02*
X112204342Y-87320476D01*
X112204342Y-87320476D02*
X112299580Y-87368095D01*
X112299580Y-87368095D02*
X112347200Y-87415714D01*
X112347200Y-87415714D02*
X112394819Y-87510952D01*
X112394819Y-87510952D02*
X112394819Y-87796666D01*
X112394819Y-87796666D02*
X112347200Y-87891904D01*
X112347200Y-87891904D02*
X112299580Y-87939523D01*
X111394819Y-86987142D02*
X111394819Y-86368095D01*
X111394819Y-86368095D02*
X111775771Y-86701428D01*
X111775771Y-86701428D02*
X111775771Y-86558571D01*
X111775771Y-86558571D02*
X111823390Y-86463333D01*
X111823390Y-86463333D02*
X111871009Y-86415714D01*
X111871009Y-86415714D02*
X111966247Y-86368095D01*
X111966247Y-86368095D02*
X112204342Y-86368095D01*
X112204342Y-86368095D02*
X112299580Y-86415714D01*
X112299580Y-86415714D02*
X112347200Y-86463333D01*
X112347200Y-86463333D02*
X112394819Y-86558571D01*
X112394819Y-86558571D02*
X112394819Y-86844285D01*
X112394819Y-86844285D02*
X112347200Y-86939523D01*
X112347200Y-86939523D02*
X112299580Y-86987142D01*
X91894819Y-72556666D02*
X91418628Y-72889999D01*
X91894819Y-73128094D02*
X90894819Y-73128094D01*
X90894819Y-73128094D02*
X90894819Y-72747142D01*
X90894819Y-72747142D02*
X90942438Y-72651904D01*
X90942438Y-72651904D02*
X90990057Y-72604285D01*
X90990057Y-72604285D02*
X91085295Y-72556666D01*
X91085295Y-72556666D02*
X91228152Y-72556666D01*
X91228152Y-72556666D02*
X91323390Y-72604285D01*
X91323390Y-72604285D02*
X91371009Y-72651904D01*
X91371009Y-72651904D02*
X91418628Y-72747142D01*
X91418628Y-72747142D02*
X91418628Y-73128094D01*
X90894819Y-71699523D02*
X90894819Y-71889999D01*
X90894819Y-71889999D02*
X90942438Y-71985237D01*
X90942438Y-71985237D02*
X90990057Y-72032856D01*
X90990057Y-72032856D02*
X91132914Y-72128094D01*
X91132914Y-72128094D02*
X91323390Y-72175713D01*
X91323390Y-72175713D02*
X91704342Y-72175713D01*
X91704342Y-72175713D02*
X91799580Y-72128094D01*
X91799580Y-72128094D02*
X91847200Y-72080475D01*
X91847200Y-72080475D02*
X91894819Y-71985237D01*
X91894819Y-71985237D02*
X91894819Y-71794761D01*
X91894819Y-71794761D02*
X91847200Y-71699523D01*
X91847200Y-71699523D02*
X91799580Y-71651904D01*
X91799580Y-71651904D02*
X91704342Y-71604285D01*
X91704342Y-71604285D02*
X91466247Y-71604285D01*
X91466247Y-71604285D02*
X91371009Y-71651904D01*
X91371009Y-71651904D02*
X91323390Y-71699523D01*
X91323390Y-71699523D02*
X91275771Y-71794761D01*
X91275771Y-71794761D02*
X91275771Y-71985237D01*
X91275771Y-71985237D02*
X91323390Y-72080475D01*
X91323390Y-72080475D02*
X91371009Y-72128094D01*
X91371009Y-72128094D02*
X91466247Y-72175713D01*
X137794819Y-60642857D02*
X137318628Y-60976190D01*
X137794819Y-61214285D02*
X136794819Y-61214285D01*
X136794819Y-61214285D02*
X136794819Y-60833333D01*
X136794819Y-60833333D02*
X136842438Y-60738095D01*
X136842438Y-60738095D02*
X136890057Y-60690476D01*
X136890057Y-60690476D02*
X136985295Y-60642857D01*
X136985295Y-60642857D02*
X137128152Y-60642857D01*
X137128152Y-60642857D02*
X137223390Y-60690476D01*
X137223390Y-60690476D02*
X137271009Y-60738095D01*
X137271009Y-60738095D02*
X137318628Y-60833333D01*
X137318628Y-60833333D02*
X137318628Y-61214285D01*
X137794819Y-59690476D02*
X137794819Y-60261904D01*
X137794819Y-59976190D02*
X136794819Y-59976190D01*
X136794819Y-59976190D02*
X136937676Y-60071428D01*
X136937676Y-60071428D02*
X137032914Y-60166666D01*
X137032914Y-60166666D02*
X137080533Y-60261904D01*
X137223390Y-59119047D02*
X137175771Y-59214285D01*
X137175771Y-59214285D02*
X137128152Y-59261904D01*
X137128152Y-59261904D02*
X137032914Y-59309523D01*
X137032914Y-59309523D02*
X136985295Y-59309523D01*
X136985295Y-59309523D02*
X136890057Y-59261904D01*
X136890057Y-59261904D02*
X136842438Y-59214285D01*
X136842438Y-59214285D02*
X136794819Y-59119047D01*
X136794819Y-59119047D02*
X136794819Y-58928571D01*
X136794819Y-58928571D02*
X136842438Y-58833333D01*
X136842438Y-58833333D02*
X136890057Y-58785714D01*
X136890057Y-58785714D02*
X136985295Y-58738095D01*
X136985295Y-58738095D02*
X137032914Y-58738095D01*
X137032914Y-58738095D02*
X137128152Y-58785714D01*
X137128152Y-58785714D02*
X137175771Y-58833333D01*
X137175771Y-58833333D02*
X137223390Y-58928571D01*
X137223390Y-58928571D02*
X137223390Y-59119047D01*
X137223390Y-59119047D02*
X137271009Y-59214285D01*
X137271009Y-59214285D02*
X137318628Y-59261904D01*
X137318628Y-59261904D02*
X137413866Y-59309523D01*
X137413866Y-59309523D02*
X137604342Y-59309523D01*
X137604342Y-59309523D02*
X137699580Y-59261904D01*
X137699580Y-59261904D02*
X137747200Y-59214285D01*
X137747200Y-59214285D02*
X137794819Y-59119047D01*
X137794819Y-59119047D02*
X137794819Y-58928571D01*
X137794819Y-58928571D02*
X137747200Y-58833333D01*
X137747200Y-58833333D02*
X137699580Y-58785714D01*
X137699580Y-58785714D02*
X137604342Y-58738095D01*
X137604342Y-58738095D02*
X137413866Y-58738095D01*
X137413866Y-58738095D02*
X137318628Y-58785714D01*
X137318628Y-58785714D02*
X137271009Y-58833333D01*
X137271009Y-58833333D02*
X137223390Y-58928571D01*
X81884819Y-119975238D02*
X81408628Y-120308571D01*
X81884819Y-120546666D02*
X80884819Y-120546666D01*
X80884819Y-120546666D02*
X80884819Y-120165714D01*
X80884819Y-120165714D02*
X80932438Y-120070476D01*
X80932438Y-120070476D02*
X80980057Y-120022857D01*
X80980057Y-120022857D02*
X81075295Y-119975238D01*
X81075295Y-119975238D02*
X81218152Y-119975238D01*
X81218152Y-119975238D02*
X81313390Y-120022857D01*
X81313390Y-120022857D02*
X81361009Y-120070476D01*
X81361009Y-120070476D02*
X81408628Y-120165714D01*
X81408628Y-120165714D02*
X81408628Y-120546666D01*
X80884819Y-119689523D02*
X81884819Y-119356190D01*
X81884819Y-119356190D02*
X80884819Y-119022857D01*
X81218152Y-118260952D02*
X81884819Y-118260952D01*
X80837200Y-118499047D02*
X81551485Y-118737142D01*
X81551485Y-118737142D02*
X81551485Y-118118095D01*
X110944819Y-64142857D02*
X110468628Y-64476190D01*
X110944819Y-64714285D02*
X109944819Y-64714285D01*
X109944819Y-64714285D02*
X109944819Y-64333333D01*
X109944819Y-64333333D02*
X109992438Y-64238095D01*
X109992438Y-64238095D02*
X110040057Y-64190476D01*
X110040057Y-64190476D02*
X110135295Y-64142857D01*
X110135295Y-64142857D02*
X110278152Y-64142857D01*
X110278152Y-64142857D02*
X110373390Y-64190476D01*
X110373390Y-64190476D02*
X110421009Y-64238095D01*
X110421009Y-64238095D02*
X110468628Y-64333333D01*
X110468628Y-64333333D02*
X110468628Y-64714285D01*
X110040057Y-63761904D02*
X109992438Y-63714285D01*
X109992438Y-63714285D02*
X109944819Y-63619047D01*
X109944819Y-63619047D02*
X109944819Y-63380952D01*
X109944819Y-63380952D02*
X109992438Y-63285714D01*
X109992438Y-63285714D02*
X110040057Y-63238095D01*
X110040057Y-63238095D02*
X110135295Y-63190476D01*
X110135295Y-63190476D02*
X110230533Y-63190476D01*
X110230533Y-63190476D02*
X110373390Y-63238095D01*
X110373390Y-63238095D02*
X110944819Y-63809523D01*
X110944819Y-63809523D02*
X110944819Y-63190476D01*
X109944819Y-62857142D02*
X109944819Y-62238095D01*
X109944819Y-62238095D02*
X110325771Y-62571428D01*
X110325771Y-62571428D02*
X110325771Y-62428571D01*
X110325771Y-62428571D02*
X110373390Y-62333333D01*
X110373390Y-62333333D02*
X110421009Y-62285714D01*
X110421009Y-62285714D02*
X110516247Y-62238095D01*
X110516247Y-62238095D02*
X110754342Y-62238095D01*
X110754342Y-62238095D02*
X110849580Y-62285714D01*
X110849580Y-62285714D02*
X110897200Y-62333333D01*
X110897200Y-62333333D02*
X110944819Y-62428571D01*
X110944819Y-62428571D02*
X110944819Y-62714285D01*
X110944819Y-62714285D02*
X110897200Y-62809523D01*
X110897200Y-62809523D02*
X110849580Y-62857142D01*
X86193333Y-95704819D02*
X85860000Y-95228628D01*
X85621905Y-95704819D02*
X85621905Y-94704819D01*
X85621905Y-94704819D02*
X86002857Y-94704819D01*
X86002857Y-94704819D02*
X86098095Y-94752438D01*
X86098095Y-94752438D02*
X86145714Y-94800057D01*
X86145714Y-94800057D02*
X86193333Y-94895295D01*
X86193333Y-94895295D02*
X86193333Y-95038152D01*
X86193333Y-95038152D02*
X86145714Y-95133390D01*
X86145714Y-95133390D02*
X86098095Y-95181009D01*
X86098095Y-95181009D02*
X86002857Y-95228628D01*
X86002857Y-95228628D02*
X85621905Y-95228628D01*
X87145714Y-95704819D02*
X86574286Y-95704819D01*
X86860000Y-95704819D02*
X86860000Y-94704819D01*
X86860000Y-94704819D02*
X86764762Y-94847676D01*
X86764762Y-94847676D02*
X86669524Y-94942914D01*
X86669524Y-94942914D02*
X86574286Y-94990533D01*
X91894819Y-57792857D02*
X91418628Y-58126190D01*
X91894819Y-58364285D02*
X90894819Y-58364285D01*
X90894819Y-58364285D02*
X90894819Y-57983333D01*
X90894819Y-57983333D02*
X90942438Y-57888095D01*
X90942438Y-57888095D02*
X90990057Y-57840476D01*
X90990057Y-57840476D02*
X91085295Y-57792857D01*
X91085295Y-57792857D02*
X91228152Y-57792857D01*
X91228152Y-57792857D02*
X91323390Y-57840476D01*
X91323390Y-57840476D02*
X91371009Y-57888095D01*
X91371009Y-57888095D02*
X91418628Y-57983333D01*
X91418628Y-57983333D02*
X91418628Y-58364285D01*
X91894819Y-56840476D02*
X91894819Y-57411904D01*
X91894819Y-57126190D02*
X90894819Y-57126190D01*
X90894819Y-57126190D02*
X91037676Y-57221428D01*
X91037676Y-57221428D02*
X91132914Y-57316666D01*
X91132914Y-57316666D02*
X91180533Y-57411904D01*
X90990057Y-56459523D02*
X90942438Y-56411904D01*
X90942438Y-56411904D02*
X90894819Y-56316666D01*
X90894819Y-56316666D02*
X90894819Y-56078571D01*
X90894819Y-56078571D02*
X90942438Y-55983333D01*
X90942438Y-55983333D02*
X90990057Y-55935714D01*
X90990057Y-55935714D02*
X91085295Y-55888095D01*
X91085295Y-55888095D02*
X91180533Y-55888095D01*
X91180533Y-55888095D02*
X91323390Y-55935714D01*
X91323390Y-55935714D02*
X91894819Y-56507142D01*
X91894819Y-56507142D02*
X91894819Y-55888095D01*
X74154819Y-127833333D02*
X74869104Y-127833333D01*
X74869104Y-127833333D02*
X75011961Y-127880952D01*
X75011961Y-127880952D02*
X75107200Y-127976190D01*
X75107200Y-127976190D02*
X75154819Y-128119047D01*
X75154819Y-128119047D02*
X75154819Y-128214285D01*
X75154819Y-126833333D02*
X75154819Y-127404761D01*
X75154819Y-127119047D02*
X74154819Y-127119047D01*
X74154819Y-127119047D02*
X74297676Y-127214285D01*
X74297676Y-127214285D02*
X74392914Y-127309523D01*
X74392914Y-127309523D02*
X74440533Y-127404761D01*
X98244819Y-130278094D02*
X97244819Y-130278094D01*
X97244819Y-130278094D02*
X97244819Y-130039999D01*
X97244819Y-130039999D02*
X97292438Y-129897142D01*
X97292438Y-129897142D02*
X97387676Y-129801904D01*
X97387676Y-129801904D02*
X97482914Y-129754285D01*
X97482914Y-129754285D02*
X97673390Y-129706666D01*
X97673390Y-129706666D02*
X97816247Y-129706666D01*
X97816247Y-129706666D02*
X98006723Y-129754285D01*
X98006723Y-129754285D02*
X98101961Y-129801904D01*
X98101961Y-129801904D02*
X98197200Y-129897142D01*
X98197200Y-129897142D02*
X98244819Y-130039999D01*
X98244819Y-130039999D02*
X98244819Y-130278094D01*
X97244819Y-128801904D02*
X97244819Y-129278094D01*
X97244819Y-129278094D02*
X97721009Y-129325713D01*
X97721009Y-129325713D02*
X97673390Y-129278094D01*
X97673390Y-129278094D02*
X97625771Y-129182856D01*
X97625771Y-129182856D02*
X97625771Y-128944761D01*
X97625771Y-128944761D02*
X97673390Y-128849523D01*
X97673390Y-128849523D02*
X97721009Y-128801904D01*
X97721009Y-128801904D02*
X97816247Y-128754285D01*
X97816247Y-128754285D02*
X98054342Y-128754285D01*
X98054342Y-128754285D02*
X98149580Y-128801904D01*
X98149580Y-128801904D02*
X98197200Y-128849523D01*
X98197200Y-128849523D02*
X98244819Y-128944761D01*
X98244819Y-128944761D02*
X98244819Y-129182856D01*
X98244819Y-129182856D02*
X98197200Y-129278094D01*
X98197200Y-129278094D02*
X98149580Y-129325713D01*
X98244819Y-133611904D02*
X97244819Y-133611904D01*
X98244819Y-133040476D02*
X97673390Y-133469047D01*
X97244819Y-133040476D02*
X97816247Y-133611904D01*
X143644819Y-120142857D02*
X143168628Y-120476190D01*
X143644819Y-120714285D02*
X142644819Y-120714285D01*
X142644819Y-120714285D02*
X142644819Y-120333333D01*
X142644819Y-120333333D02*
X142692438Y-120238095D01*
X142692438Y-120238095D02*
X142740057Y-120190476D01*
X142740057Y-120190476D02*
X142835295Y-120142857D01*
X142835295Y-120142857D02*
X142978152Y-120142857D01*
X142978152Y-120142857D02*
X143073390Y-120190476D01*
X143073390Y-120190476D02*
X143121009Y-120238095D01*
X143121009Y-120238095D02*
X143168628Y-120333333D01*
X143168628Y-120333333D02*
X143168628Y-120714285D01*
X142740057Y-119761904D02*
X142692438Y-119714285D01*
X142692438Y-119714285D02*
X142644819Y-119619047D01*
X142644819Y-119619047D02*
X142644819Y-119380952D01*
X142644819Y-119380952D02*
X142692438Y-119285714D01*
X142692438Y-119285714D02*
X142740057Y-119238095D01*
X142740057Y-119238095D02*
X142835295Y-119190476D01*
X142835295Y-119190476D02*
X142930533Y-119190476D01*
X142930533Y-119190476D02*
X143073390Y-119238095D01*
X143073390Y-119238095D02*
X143644819Y-119809523D01*
X143644819Y-119809523D02*
X143644819Y-119190476D01*
X142644819Y-118857142D02*
X142644819Y-118190476D01*
X142644819Y-118190476D02*
X143644819Y-118619047D01*
X86193333Y-127454819D02*
X85860000Y-126978628D01*
X85621905Y-127454819D02*
X85621905Y-126454819D01*
X85621905Y-126454819D02*
X86002857Y-126454819D01*
X86002857Y-126454819D02*
X86098095Y-126502438D01*
X86098095Y-126502438D02*
X86145714Y-126550057D01*
X86145714Y-126550057D02*
X86193333Y-126645295D01*
X86193333Y-126645295D02*
X86193333Y-126788152D01*
X86193333Y-126788152D02*
X86145714Y-126883390D01*
X86145714Y-126883390D02*
X86098095Y-126931009D01*
X86098095Y-126931009D02*
X86002857Y-126978628D01*
X86002857Y-126978628D02*
X85621905Y-126978628D01*
X86669524Y-127454819D02*
X86860000Y-127454819D01*
X86860000Y-127454819D02*
X86955238Y-127407200D01*
X86955238Y-127407200D02*
X87002857Y-127359580D01*
X87002857Y-127359580D02*
X87098095Y-127216723D01*
X87098095Y-127216723D02*
X87145714Y-127026247D01*
X87145714Y-127026247D02*
X87145714Y-126645295D01*
X87145714Y-126645295D02*
X87098095Y-126550057D01*
X87098095Y-126550057D02*
X87050476Y-126502438D01*
X87050476Y-126502438D02*
X86955238Y-126454819D01*
X86955238Y-126454819D02*
X86764762Y-126454819D01*
X86764762Y-126454819D02*
X86669524Y-126502438D01*
X86669524Y-126502438D02*
X86621905Y-126550057D01*
X86621905Y-126550057D02*
X86574286Y-126645295D01*
X86574286Y-126645295D02*
X86574286Y-126883390D01*
X86574286Y-126883390D02*
X86621905Y-126978628D01*
X86621905Y-126978628D02*
X86669524Y-127026247D01*
X86669524Y-127026247D02*
X86764762Y-127073866D01*
X86764762Y-127073866D02*
X86955238Y-127073866D01*
X86955238Y-127073866D02*
X87050476Y-127026247D01*
X87050476Y-127026247D02*
X87098095Y-126978628D01*
X87098095Y-126978628D02*
X87145714Y-126883390D01*
X130238095Y-101674819D02*
X130238095Y-102484342D01*
X130238095Y-102484342D02*
X130285714Y-102579580D01*
X130285714Y-102579580D02*
X130333333Y-102627200D01*
X130333333Y-102627200D02*
X130428571Y-102674819D01*
X130428571Y-102674819D02*
X130619047Y-102674819D01*
X130619047Y-102674819D02*
X130714285Y-102627200D01*
X130714285Y-102627200D02*
X130761904Y-102579580D01*
X130761904Y-102579580D02*
X130809523Y-102484342D01*
X130809523Y-102484342D02*
X130809523Y-101674819D01*
X131190476Y-101674819D02*
X131809523Y-101674819D01*
X131809523Y-101674819D02*
X131476190Y-102055771D01*
X131476190Y-102055771D02*
X131619047Y-102055771D01*
X131619047Y-102055771D02*
X131714285Y-102103390D01*
X131714285Y-102103390D02*
X131761904Y-102151009D01*
X131761904Y-102151009D02*
X131809523Y-102246247D01*
X131809523Y-102246247D02*
X131809523Y-102484342D01*
X131809523Y-102484342D02*
X131761904Y-102579580D01*
X131761904Y-102579580D02*
X131714285Y-102627200D01*
X131714285Y-102627200D02*
X131619047Y-102674819D01*
X131619047Y-102674819D02*
X131333333Y-102674819D01*
X131333333Y-102674819D02*
X131238095Y-102627200D01*
X131238095Y-102627200D02*
X131190476Y-102579580D01*
X151134819Y-120516857D02*
X150658628Y-120850190D01*
X151134819Y-121088285D02*
X150134819Y-121088285D01*
X150134819Y-121088285D02*
X150134819Y-120707333D01*
X150134819Y-120707333D02*
X150182438Y-120612095D01*
X150182438Y-120612095D02*
X150230057Y-120564476D01*
X150230057Y-120564476D02*
X150325295Y-120516857D01*
X150325295Y-120516857D02*
X150468152Y-120516857D01*
X150468152Y-120516857D02*
X150563390Y-120564476D01*
X150563390Y-120564476D02*
X150611009Y-120612095D01*
X150611009Y-120612095D02*
X150658628Y-120707333D01*
X150658628Y-120707333D02*
X150658628Y-121088285D01*
X150230057Y-120135904D02*
X150182438Y-120088285D01*
X150182438Y-120088285D02*
X150134819Y-119993047D01*
X150134819Y-119993047D02*
X150134819Y-119754952D01*
X150134819Y-119754952D02*
X150182438Y-119659714D01*
X150182438Y-119659714D02*
X150230057Y-119612095D01*
X150230057Y-119612095D02*
X150325295Y-119564476D01*
X150325295Y-119564476D02*
X150420533Y-119564476D01*
X150420533Y-119564476D02*
X150563390Y-119612095D01*
X150563390Y-119612095D02*
X151134819Y-120183523D01*
X151134819Y-120183523D02*
X151134819Y-119564476D01*
X151134819Y-119088285D02*
X151134819Y-118897809D01*
X151134819Y-118897809D02*
X151087200Y-118802571D01*
X151087200Y-118802571D02*
X151039580Y-118754952D01*
X151039580Y-118754952D02*
X150896723Y-118659714D01*
X150896723Y-118659714D02*
X150706247Y-118612095D01*
X150706247Y-118612095D02*
X150325295Y-118612095D01*
X150325295Y-118612095D02*
X150230057Y-118659714D01*
X150230057Y-118659714D02*
X150182438Y-118707333D01*
X150182438Y-118707333D02*
X150134819Y-118802571D01*
X150134819Y-118802571D02*
X150134819Y-118993047D01*
X150134819Y-118993047D02*
X150182438Y-119088285D01*
X150182438Y-119088285D02*
X150230057Y-119135904D01*
X150230057Y-119135904D02*
X150325295Y-119183523D01*
X150325295Y-119183523D02*
X150563390Y-119183523D01*
X150563390Y-119183523D02*
X150658628Y-119135904D01*
X150658628Y-119135904D02*
X150706247Y-119088285D01*
X150706247Y-119088285D02*
X150753866Y-118993047D01*
X150753866Y-118993047D02*
X150753866Y-118802571D01*
X150753866Y-118802571D02*
X150706247Y-118707333D01*
X150706247Y-118707333D02*
X150658628Y-118659714D01*
X150658628Y-118659714D02*
X150563390Y-118612095D01*
X113585714Y-123749104D02*
X114061904Y-123749104D01*
X113490476Y-124034819D02*
X113823809Y-123034819D01*
X113823809Y-123034819D02*
X114157142Y-124034819D01*
X115014285Y-124034819D02*
X114442857Y-124034819D01*
X114728571Y-124034819D02*
X114728571Y-123034819D01*
X114728571Y-123034819D02*
X114633333Y-123177676D01*
X114633333Y-123177676D02*
X114538095Y-123272914D01*
X114538095Y-123272914D02*
X114442857Y-123320533D01*
X116204819Y-111132857D02*
X115728628Y-111466190D01*
X116204819Y-111704285D02*
X115204819Y-111704285D01*
X115204819Y-111704285D02*
X115204819Y-111323333D01*
X115204819Y-111323333D02*
X115252438Y-111228095D01*
X115252438Y-111228095D02*
X115300057Y-111180476D01*
X115300057Y-111180476D02*
X115395295Y-111132857D01*
X115395295Y-111132857D02*
X115538152Y-111132857D01*
X115538152Y-111132857D02*
X115633390Y-111180476D01*
X115633390Y-111180476D02*
X115681009Y-111228095D01*
X115681009Y-111228095D02*
X115728628Y-111323333D01*
X115728628Y-111323333D02*
X115728628Y-111704285D01*
X115300057Y-110751904D02*
X115252438Y-110704285D01*
X115252438Y-110704285D02*
X115204819Y-110609047D01*
X115204819Y-110609047D02*
X115204819Y-110370952D01*
X115204819Y-110370952D02*
X115252438Y-110275714D01*
X115252438Y-110275714D02*
X115300057Y-110228095D01*
X115300057Y-110228095D02*
X115395295Y-110180476D01*
X115395295Y-110180476D02*
X115490533Y-110180476D01*
X115490533Y-110180476D02*
X115633390Y-110228095D01*
X115633390Y-110228095D02*
X116204819Y-110799523D01*
X116204819Y-110799523D02*
X116204819Y-110180476D01*
X115538152Y-109323333D02*
X116204819Y-109323333D01*
X115157200Y-109561428D02*
X115871485Y-109799523D01*
X115871485Y-109799523D02*
X115871485Y-109180476D01*
X86193333Y-112214819D02*
X85860000Y-111738628D01*
X85621905Y-112214819D02*
X85621905Y-111214819D01*
X85621905Y-111214819D02*
X86002857Y-111214819D01*
X86002857Y-111214819D02*
X86098095Y-111262438D01*
X86098095Y-111262438D02*
X86145714Y-111310057D01*
X86145714Y-111310057D02*
X86193333Y-111405295D01*
X86193333Y-111405295D02*
X86193333Y-111548152D01*
X86193333Y-111548152D02*
X86145714Y-111643390D01*
X86145714Y-111643390D02*
X86098095Y-111691009D01*
X86098095Y-111691009D02*
X86002857Y-111738628D01*
X86002857Y-111738628D02*
X85621905Y-111738628D01*
X86526667Y-111214819D02*
X87193333Y-111214819D01*
X87193333Y-111214819D02*
X86764762Y-112214819D01*
X74154819Y-72743333D02*
X74869104Y-72743333D01*
X74869104Y-72743333D02*
X75011961Y-72790952D01*
X75011961Y-72790952D02*
X75107200Y-72886190D01*
X75107200Y-72886190D02*
X75154819Y-73029047D01*
X75154819Y-73029047D02*
X75154819Y-73124285D01*
X74154819Y-72362380D02*
X74154819Y-71743333D01*
X74154819Y-71743333D02*
X74535771Y-72076666D01*
X74535771Y-72076666D02*
X74535771Y-71933809D01*
X74535771Y-71933809D02*
X74583390Y-71838571D01*
X74583390Y-71838571D02*
X74631009Y-71790952D01*
X74631009Y-71790952D02*
X74726247Y-71743333D01*
X74726247Y-71743333D02*
X74964342Y-71743333D01*
X74964342Y-71743333D02*
X75059580Y-71790952D01*
X75059580Y-71790952D02*
X75107200Y-71838571D01*
X75107200Y-71838571D02*
X75154819Y-71933809D01*
X75154819Y-71933809D02*
X75154819Y-72219523D01*
X75154819Y-72219523D02*
X75107200Y-72314761D01*
X75107200Y-72314761D02*
X75059580Y-72362380D01*
X143940476Y-142254819D02*
X143940476Y-142969104D01*
X143940476Y-142969104D02*
X143892857Y-143111961D01*
X143892857Y-143111961D02*
X143797619Y-143207200D01*
X143797619Y-143207200D02*
X143654762Y-143254819D01*
X143654762Y-143254819D02*
X143559524Y-143254819D01*
X144940476Y-143254819D02*
X144369048Y-143254819D01*
X144654762Y-143254819D02*
X144654762Y-142254819D01*
X144654762Y-142254819D02*
X144559524Y-142397676D01*
X144559524Y-142397676D02*
X144464286Y-142492914D01*
X144464286Y-142492914D02*
X144369048Y-142540533D01*
X145559524Y-142254819D02*
X145654762Y-142254819D01*
X145654762Y-142254819D02*
X145750000Y-142302438D01*
X145750000Y-142302438D02*
X145797619Y-142350057D01*
X145797619Y-142350057D02*
X145845238Y-142445295D01*
X145845238Y-142445295D02*
X145892857Y-142635771D01*
X145892857Y-142635771D02*
X145892857Y-142873866D01*
X145892857Y-142873866D02*
X145845238Y-143064342D01*
X145845238Y-143064342D02*
X145797619Y-143159580D01*
X145797619Y-143159580D02*
X145750000Y-143207200D01*
X145750000Y-143207200D02*
X145654762Y-143254819D01*
X145654762Y-143254819D02*
X145559524Y-143254819D01*
X145559524Y-143254819D02*
X145464286Y-143207200D01*
X145464286Y-143207200D02*
X145416667Y-143159580D01*
X145416667Y-143159580D02*
X145369048Y-143064342D01*
X145369048Y-143064342D02*
X145321429Y-142873866D01*
X145321429Y-142873866D02*
X145321429Y-142635771D01*
X145321429Y-142635771D02*
X145369048Y-142445295D01*
X145369048Y-142445295D02*
X145416667Y-142350057D01*
X145416667Y-142350057D02*
X145464286Y-142302438D01*
X145464286Y-142302438D02*
X145559524Y-142254819D01*
X151904819Y-61016857D02*
X151428628Y-61350190D01*
X151904819Y-61588285D02*
X150904819Y-61588285D01*
X150904819Y-61588285D02*
X150904819Y-61207333D01*
X150904819Y-61207333D02*
X150952438Y-61112095D01*
X150952438Y-61112095D02*
X151000057Y-61064476D01*
X151000057Y-61064476D02*
X151095295Y-61016857D01*
X151095295Y-61016857D02*
X151238152Y-61016857D01*
X151238152Y-61016857D02*
X151333390Y-61064476D01*
X151333390Y-61064476D02*
X151381009Y-61112095D01*
X151381009Y-61112095D02*
X151428628Y-61207333D01*
X151428628Y-61207333D02*
X151428628Y-61588285D01*
X150904819Y-60683523D02*
X150904819Y-60064476D01*
X150904819Y-60064476D02*
X151285771Y-60397809D01*
X151285771Y-60397809D02*
X151285771Y-60254952D01*
X151285771Y-60254952D02*
X151333390Y-60159714D01*
X151333390Y-60159714D02*
X151381009Y-60112095D01*
X151381009Y-60112095D02*
X151476247Y-60064476D01*
X151476247Y-60064476D02*
X151714342Y-60064476D01*
X151714342Y-60064476D02*
X151809580Y-60112095D01*
X151809580Y-60112095D02*
X151857200Y-60159714D01*
X151857200Y-60159714D02*
X151904819Y-60254952D01*
X151904819Y-60254952D02*
X151904819Y-60540666D01*
X151904819Y-60540666D02*
X151857200Y-60635904D01*
X151857200Y-60635904D02*
X151809580Y-60683523D01*
X150904819Y-59159714D02*
X150904819Y-59635904D01*
X150904819Y-59635904D02*
X151381009Y-59683523D01*
X151381009Y-59683523D02*
X151333390Y-59635904D01*
X151333390Y-59635904D02*
X151285771Y-59540666D01*
X151285771Y-59540666D02*
X151285771Y-59302571D01*
X151285771Y-59302571D02*
X151333390Y-59207333D01*
X151333390Y-59207333D02*
X151381009Y-59159714D01*
X151381009Y-59159714D02*
X151476247Y-59112095D01*
X151476247Y-59112095D02*
X151714342Y-59112095D01*
X151714342Y-59112095D02*
X151809580Y-59159714D01*
X151809580Y-59159714D02*
X151857200Y-59207333D01*
X151857200Y-59207333D02*
X151904819Y-59302571D01*
X151904819Y-59302571D02*
X151904819Y-59540666D01*
X151904819Y-59540666D02*
X151857200Y-59635904D01*
X151857200Y-59635904D02*
X151809580Y-59683523D01*
X116444819Y-88646857D02*
X115968628Y-88980190D01*
X116444819Y-89218285D02*
X115444819Y-89218285D01*
X115444819Y-89218285D02*
X115444819Y-88837333D01*
X115444819Y-88837333D02*
X115492438Y-88742095D01*
X115492438Y-88742095D02*
X115540057Y-88694476D01*
X115540057Y-88694476D02*
X115635295Y-88646857D01*
X115635295Y-88646857D02*
X115778152Y-88646857D01*
X115778152Y-88646857D02*
X115873390Y-88694476D01*
X115873390Y-88694476D02*
X115921009Y-88742095D01*
X115921009Y-88742095D02*
X115968628Y-88837333D01*
X115968628Y-88837333D02*
X115968628Y-89218285D01*
X115444819Y-88313523D02*
X115444819Y-87694476D01*
X115444819Y-87694476D02*
X115825771Y-88027809D01*
X115825771Y-88027809D02*
X115825771Y-87884952D01*
X115825771Y-87884952D02*
X115873390Y-87789714D01*
X115873390Y-87789714D02*
X115921009Y-87742095D01*
X115921009Y-87742095D02*
X116016247Y-87694476D01*
X116016247Y-87694476D02*
X116254342Y-87694476D01*
X116254342Y-87694476D02*
X116349580Y-87742095D01*
X116349580Y-87742095D02*
X116397200Y-87789714D01*
X116397200Y-87789714D02*
X116444819Y-87884952D01*
X116444819Y-87884952D02*
X116444819Y-88170666D01*
X116444819Y-88170666D02*
X116397200Y-88265904D01*
X116397200Y-88265904D02*
X116349580Y-88313523D01*
X115540057Y-87313523D02*
X115492438Y-87265904D01*
X115492438Y-87265904D02*
X115444819Y-87170666D01*
X115444819Y-87170666D02*
X115444819Y-86932571D01*
X115444819Y-86932571D02*
X115492438Y-86837333D01*
X115492438Y-86837333D02*
X115540057Y-86789714D01*
X115540057Y-86789714D02*
X115635295Y-86742095D01*
X115635295Y-86742095D02*
X115730533Y-86742095D01*
X115730533Y-86742095D02*
X115873390Y-86789714D01*
X115873390Y-86789714D02*
X116444819Y-87361142D01*
X116444819Y-87361142D02*
X116444819Y-86742095D01*
X183709580Y-90166666D02*
X183757200Y-90214285D01*
X183757200Y-90214285D02*
X183804819Y-90357142D01*
X183804819Y-90357142D02*
X183804819Y-90452380D01*
X183804819Y-90452380D02*
X183757200Y-90595237D01*
X183757200Y-90595237D02*
X183661961Y-90690475D01*
X183661961Y-90690475D02*
X183566723Y-90738094D01*
X183566723Y-90738094D02*
X183376247Y-90785713D01*
X183376247Y-90785713D02*
X183233390Y-90785713D01*
X183233390Y-90785713D02*
X183042914Y-90738094D01*
X183042914Y-90738094D02*
X182947676Y-90690475D01*
X182947676Y-90690475D02*
X182852438Y-90595237D01*
X182852438Y-90595237D02*
X182804819Y-90452380D01*
X182804819Y-90452380D02*
X182804819Y-90357142D01*
X182804819Y-90357142D02*
X182852438Y-90214285D01*
X182852438Y-90214285D02*
X182900057Y-90166666D01*
X183233390Y-89595237D02*
X183185771Y-89690475D01*
X183185771Y-89690475D02*
X183138152Y-89738094D01*
X183138152Y-89738094D02*
X183042914Y-89785713D01*
X183042914Y-89785713D02*
X182995295Y-89785713D01*
X182995295Y-89785713D02*
X182900057Y-89738094D01*
X182900057Y-89738094D02*
X182852438Y-89690475D01*
X182852438Y-89690475D02*
X182804819Y-89595237D01*
X182804819Y-89595237D02*
X182804819Y-89404761D01*
X182804819Y-89404761D02*
X182852438Y-89309523D01*
X182852438Y-89309523D02*
X182900057Y-89261904D01*
X182900057Y-89261904D02*
X182995295Y-89214285D01*
X182995295Y-89214285D02*
X183042914Y-89214285D01*
X183042914Y-89214285D02*
X183138152Y-89261904D01*
X183138152Y-89261904D02*
X183185771Y-89309523D01*
X183185771Y-89309523D02*
X183233390Y-89404761D01*
X183233390Y-89404761D02*
X183233390Y-89595237D01*
X183233390Y-89595237D02*
X183281009Y-89690475D01*
X183281009Y-89690475D02*
X183328628Y-89738094D01*
X183328628Y-89738094D02*
X183423866Y-89785713D01*
X183423866Y-89785713D02*
X183614342Y-89785713D01*
X183614342Y-89785713D02*
X183709580Y-89738094D01*
X183709580Y-89738094D02*
X183757200Y-89690475D01*
X183757200Y-89690475D02*
X183804819Y-89595237D01*
X183804819Y-89595237D02*
X183804819Y-89404761D01*
X183804819Y-89404761D02*
X183757200Y-89309523D01*
X183757200Y-89309523D02*
X183709580Y-89261904D01*
X183709580Y-89261904D02*
X183614342Y-89214285D01*
X183614342Y-89214285D02*
X183423866Y-89214285D01*
X183423866Y-89214285D02*
X183328628Y-89261904D01*
X183328628Y-89261904D02*
X183281009Y-89309523D01*
X183281009Y-89309523D02*
X183233390Y-89404761D01*
X191466666Y-104494819D02*
X191466666Y-105209104D01*
X191466666Y-105209104D02*
X191419047Y-105351961D01*
X191419047Y-105351961D02*
X191323809Y-105447200D01*
X191323809Y-105447200D02*
X191180952Y-105494819D01*
X191180952Y-105494819D02*
X191085714Y-105494819D01*
X191942857Y-105494819D02*
X191942857Y-104494819D01*
X191942857Y-104494819D02*
X192323809Y-104494819D01*
X192323809Y-104494819D02*
X192419047Y-104542438D01*
X192419047Y-104542438D02*
X192466666Y-104590057D01*
X192466666Y-104590057D02*
X192514285Y-104685295D01*
X192514285Y-104685295D02*
X192514285Y-104828152D01*
X192514285Y-104828152D02*
X192466666Y-104923390D01*
X192466666Y-104923390D02*
X192419047Y-104971009D01*
X192419047Y-104971009D02*
X192323809Y-105018628D01*
X192323809Y-105018628D02*
X191942857Y-105018628D01*
X192895238Y-104590057D02*
X192942857Y-104542438D01*
X192942857Y-104542438D02*
X193038095Y-104494819D01*
X193038095Y-104494819D02*
X193276190Y-104494819D01*
X193276190Y-104494819D02*
X193371428Y-104542438D01*
X193371428Y-104542438D02*
X193419047Y-104590057D01*
X193419047Y-104590057D02*
X193466666Y-104685295D01*
X193466666Y-104685295D02*
X193466666Y-104780533D01*
X193466666Y-104780533D02*
X193419047Y-104923390D01*
X193419047Y-104923390D02*
X192847619Y-105494819D01*
X192847619Y-105494819D02*
X193466666Y-105494819D01*
X189066666Y-97954819D02*
X189066666Y-98669104D01*
X189066666Y-98669104D02*
X189019047Y-98811961D01*
X189019047Y-98811961D02*
X188923809Y-98907200D01*
X188923809Y-98907200D02*
X188780952Y-98954819D01*
X188780952Y-98954819D02*
X188685714Y-98954819D01*
X189542857Y-98954819D02*
X189542857Y-97954819D01*
X189542857Y-97954819D02*
X189923809Y-97954819D01*
X189923809Y-97954819D02*
X190019047Y-98002438D01*
X190019047Y-98002438D02*
X190066666Y-98050057D01*
X190066666Y-98050057D02*
X190114285Y-98145295D01*
X190114285Y-98145295D02*
X190114285Y-98288152D01*
X190114285Y-98288152D02*
X190066666Y-98383390D01*
X190066666Y-98383390D02*
X190019047Y-98431009D01*
X190019047Y-98431009D02*
X189923809Y-98478628D01*
X189923809Y-98478628D02*
X189542857Y-98478628D01*
X191066666Y-98954819D02*
X190495238Y-98954819D01*
X190780952Y-98954819D02*
X190780952Y-97954819D01*
X190780952Y-97954819D02*
X190685714Y-98097676D01*
X190685714Y-98097676D02*
X190590476Y-98192914D01*
X190590476Y-98192914D02*
X190495238Y-98240533D01*
X178357142Y-119609580D02*
X178309523Y-119657200D01*
X178309523Y-119657200D02*
X178166666Y-119704819D01*
X178166666Y-119704819D02*
X178071428Y-119704819D01*
X178071428Y-119704819D02*
X177928571Y-119657200D01*
X177928571Y-119657200D02*
X177833333Y-119561961D01*
X177833333Y-119561961D02*
X177785714Y-119466723D01*
X177785714Y-119466723D02*
X177738095Y-119276247D01*
X177738095Y-119276247D02*
X177738095Y-119133390D01*
X177738095Y-119133390D02*
X177785714Y-118942914D01*
X177785714Y-118942914D02*
X177833333Y-118847676D01*
X177833333Y-118847676D02*
X177928571Y-118752438D01*
X177928571Y-118752438D02*
X178071428Y-118704819D01*
X178071428Y-118704819D02*
X178166666Y-118704819D01*
X178166666Y-118704819D02*
X178309523Y-118752438D01*
X178309523Y-118752438D02*
X178357142Y-118800057D01*
X179309523Y-119704819D02*
X178738095Y-119704819D01*
X179023809Y-119704819D02*
X179023809Y-118704819D01*
X179023809Y-118704819D02*
X178928571Y-118847676D01*
X178928571Y-118847676D02*
X178833333Y-118942914D01*
X178833333Y-118942914D02*
X178738095Y-118990533D01*
X179928571Y-118704819D02*
X180023809Y-118704819D01*
X180023809Y-118704819D02*
X180119047Y-118752438D01*
X180119047Y-118752438D02*
X180166666Y-118800057D01*
X180166666Y-118800057D02*
X180214285Y-118895295D01*
X180214285Y-118895295D02*
X180261904Y-119085771D01*
X180261904Y-119085771D02*
X180261904Y-119323866D01*
X180261904Y-119323866D02*
X180214285Y-119514342D01*
X180214285Y-119514342D02*
X180166666Y-119609580D01*
X180166666Y-119609580D02*
X180119047Y-119657200D01*
X180119047Y-119657200D02*
X180023809Y-119704819D01*
X180023809Y-119704819D02*
X179928571Y-119704819D01*
X179928571Y-119704819D02*
X179833333Y-119657200D01*
X179833333Y-119657200D02*
X179785714Y-119609580D01*
X179785714Y-119609580D02*
X179738095Y-119514342D01*
X179738095Y-119514342D02*
X179690476Y-119323866D01*
X179690476Y-119323866D02*
X179690476Y-119085771D01*
X179690476Y-119085771D02*
X179738095Y-118895295D01*
X179738095Y-118895295D02*
X179785714Y-118800057D01*
X179785714Y-118800057D02*
X179833333Y-118752438D01*
X179833333Y-118752438D02*
X179928571Y-118704819D01*
X97909580Y-90356666D02*
X97957200Y-90404285D01*
X97957200Y-90404285D02*
X98004819Y-90547142D01*
X98004819Y-90547142D02*
X98004819Y-90642380D01*
X98004819Y-90642380D02*
X97957200Y-90785237D01*
X97957200Y-90785237D02*
X97861961Y-90880475D01*
X97861961Y-90880475D02*
X97766723Y-90928094D01*
X97766723Y-90928094D02*
X97576247Y-90975713D01*
X97576247Y-90975713D02*
X97433390Y-90975713D01*
X97433390Y-90975713D02*
X97242914Y-90928094D01*
X97242914Y-90928094D02*
X97147676Y-90880475D01*
X97147676Y-90880475D02*
X97052438Y-90785237D01*
X97052438Y-90785237D02*
X97004819Y-90642380D01*
X97004819Y-90642380D02*
X97004819Y-90547142D01*
X97004819Y-90547142D02*
X97052438Y-90404285D01*
X97052438Y-90404285D02*
X97100057Y-90356666D01*
X97100057Y-89975713D02*
X97052438Y-89928094D01*
X97052438Y-89928094D02*
X97004819Y-89832856D01*
X97004819Y-89832856D02*
X97004819Y-89594761D01*
X97004819Y-89594761D02*
X97052438Y-89499523D01*
X97052438Y-89499523D02*
X97100057Y-89451904D01*
X97100057Y-89451904D02*
X97195295Y-89404285D01*
X97195295Y-89404285D02*
X97290533Y-89404285D01*
X97290533Y-89404285D02*
X97433390Y-89451904D01*
X97433390Y-89451904D02*
X98004819Y-90023332D01*
X98004819Y-90023332D02*
X98004819Y-89404285D01*
X101163333Y-114599580D02*
X101115714Y-114647200D01*
X101115714Y-114647200D02*
X100972857Y-114694819D01*
X100972857Y-114694819D02*
X100877619Y-114694819D01*
X100877619Y-114694819D02*
X100734762Y-114647200D01*
X100734762Y-114647200D02*
X100639524Y-114551961D01*
X100639524Y-114551961D02*
X100591905Y-114456723D01*
X100591905Y-114456723D02*
X100544286Y-114266247D01*
X100544286Y-114266247D02*
X100544286Y-114123390D01*
X100544286Y-114123390D02*
X100591905Y-113932914D01*
X100591905Y-113932914D02*
X100639524Y-113837676D01*
X100639524Y-113837676D02*
X100734762Y-113742438D01*
X100734762Y-113742438D02*
X100877619Y-113694819D01*
X100877619Y-113694819D02*
X100972857Y-113694819D01*
X100972857Y-113694819D02*
X101115714Y-113742438D01*
X101115714Y-113742438D02*
X101163333Y-113790057D01*
X101496667Y-113694819D02*
X102163333Y-113694819D01*
X102163333Y-113694819D02*
X101734762Y-114694819D01*
X185454819Y-128166666D02*
X185454819Y-128642856D01*
X185454819Y-128642856D02*
X184454819Y-128642856D01*
X185454819Y-127309523D02*
X185454819Y-127880951D01*
X185454819Y-127595237D02*
X184454819Y-127595237D01*
X184454819Y-127595237D02*
X184597676Y-127690475D01*
X184597676Y-127690475D02*
X184692914Y-127785713D01*
X184692914Y-127785713D02*
X184740533Y-127880951D01*
X81884819Y-103465238D02*
X81408628Y-103798571D01*
X81884819Y-104036666D02*
X80884819Y-104036666D01*
X80884819Y-104036666D02*
X80884819Y-103655714D01*
X80884819Y-103655714D02*
X80932438Y-103560476D01*
X80932438Y-103560476D02*
X80980057Y-103512857D01*
X80980057Y-103512857D02*
X81075295Y-103465238D01*
X81075295Y-103465238D02*
X81218152Y-103465238D01*
X81218152Y-103465238D02*
X81313390Y-103512857D01*
X81313390Y-103512857D02*
X81361009Y-103560476D01*
X81361009Y-103560476D02*
X81408628Y-103655714D01*
X81408628Y-103655714D02*
X81408628Y-104036666D01*
X80884819Y-103179523D02*
X81884819Y-102846190D01*
X81884819Y-102846190D02*
X80884819Y-102512857D01*
X81884819Y-101655714D02*
X81884819Y-102227142D01*
X81884819Y-101941428D02*
X80884819Y-101941428D01*
X80884819Y-101941428D02*
X81027676Y-102036666D01*
X81027676Y-102036666D02*
X81122914Y-102131904D01*
X81122914Y-102131904D02*
X81170533Y-102227142D01*
X142874819Y-60642857D02*
X142398628Y-60976190D01*
X142874819Y-61214285D02*
X141874819Y-61214285D01*
X141874819Y-61214285D02*
X141874819Y-60833333D01*
X141874819Y-60833333D02*
X141922438Y-60738095D01*
X141922438Y-60738095D02*
X141970057Y-60690476D01*
X141970057Y-60690476D02*
X142065295Y-60642857D01*
X142065295Y-60642857D02*
X142208152Y-60642857D01*
X142208152Y-60642857D02*
X142303390Y-60690476D01*
X142303390Y-60690476D02*
X142351009Y-60738095D01*
X142351009Y-60738095D02*
X142398628Y-60833333D01*
X142398628Y-60833333D02*
X142398628Y-61214285D01*
X142874819Y-59690476D02*
X142874819Y-60261904D01*
X142874819Y-59976190D02*
X141874819Y-59976190D01*
X141874819Y-59976190D02*
X142017676Y-60071428D01*
X142017676Y-60071428D02*
X142112914Y-60166666D01*
X142112914Y-60166666D02*
X142160533Y-60261904D01*
X141874819Y-59357142D02*
X141874819Y-58690476D01*
X141874819Y-58690476D02*
X142874819Y-59119047D01*
X112154819Y-111132857D02*
X111678628Y-111466190D01*
X112154819Y-111704285D02*
X111154819Y-111704285D01*
X111154819Y-111704285D02*
X111154819Y-111323333D01*
X111154819Y-111323333D02*
X111202438Y-111228095D01*
X111202438Y-111228095D02*
X111250057Y-111180476D01*
X111250057Y-111180476D02*
X111345295Y-111132857D01*
X111345295Y-111132857D02*
X111488152Y-111132857D01*
X111488152Y-111132857D02*
X111583390Y-111180476D01*
X111583390Y-111180476D02*
X111631009Y-111228095D01*
X111631009Y-111228095D02*
X111678628Y-111323333D01*
X111678628Y-111323333D02*
X111678628Y-111704285D01*
X111250057Y-110751904D02*
X111202438Y-110704285D01*
X111202438Y-110704285D02*
X111154819Y-110609047D01*
X111154819Y-110609047D02*
X111154819Y-110370952D01*
X111154819Y-110370952D02*
X111202438Y-110275714D01*
X111202438Y-110275714D02*
X111250057Y-110228095D01*
X111250057Y-110228095D02*
X111345295Y-110180476D01*
X111345295Y-110180476D02*
X111440533Y-110180476D01*
X111440533Y-110180476D02*
X111583390Y-110228095D01*
X111583390Y-110228095D02*
X112154819Y-110799523D01*
X112154819Y-110799523D02*
X112154819Y-110180476D01*
X111154819Y-109275714D02*
X111154819Y-109751904D01*
X111154819Y-109751904D02*
X111631009Y-109799523D01*
X111631009Y-109799523D02*
X111583390Y-109751904D01*
X111583390Y-109751904D02*
X111535771Y-109656666D01*
X111535771Y-109656666D02*
X111535771Y-109418571D01*
X111535771Y-109418571D02*
X111583390Y-109323333D01*
X111583390Y-109323333D02*
X111631009Y-109275714D01*
X111631009Y-109275714D02*
X111726247Y-109228095D01*
X111726247Y-109228095D02*
X111964342Y-109228095D01*
X111964342Y-109228095D02*
X112059580Y-109275714D01*
X112059580Y-109275714D02*
X112107200Y-109323333D01*
X112107200Y-109323333D02*
X112154819Y-109418571D01*
X112154819Y-109418571D02*
X112154819Y-109656666D01*
X112154819Y-109656666D02*
X112107200Y-109751904D01*
X112107200Y-109751904D02*
X112059580Y-109799523D01*
X81035151Y-48657763D02*
X81035151Y-47657763D01*
X81035151Y-48133953D02*
X81606579Y-48133953D01*
X81606579Y-48657763D02*
X81606579Y-47657763D01*
X82511341Y-47991096D02*
X82511341Y-48657763D01*
X82273246Y-47610144D02*
X82035151Y-48324429D01*
X82035151Y-48324429D02*
X82654198Y-48324429D01*
X81884819Y-135215238D02*
X81408628Y-135548571D01*
X81884819Y-135786666D02*
X80884819Y-135786666D01*
X80884819Y-135786666D02*
X80884819Y-135405714D01*
X80884819Y-135405714D02*
X80932438Y-135310476D01*
X80932438Y-135310476D02*
X80980057Y-135262857D01*
X80980057Y-135262857D02*
X81075295Y-135215238D01*
X81075295Y-135215238D02*
X81218152Y-135215238D01*
X81218152Y-135215238D02*
X81313390Y-135262857D01*
X81313390Y-135262857D02*
X81361009Y-135310476D01*
X81361009Y-135310476D02*
X81408628Y-135405714D01*
X81408628Y-135405714D02*
X81408628Y-135786666D01*
X80884819Y-134929523D02*
X81884819Y-134596190D01*
X81884819Y-134596190D02*
X80884819Y-134262857D01*
X80884819Y-133453333D02*
X80884819Y-133929523D01*
X80884819Y-133929523D02*
X81361009Y-133977142D01*
X81361009Y-133977142D02*
X81313390Y-133929523D01*
X81313390Y-133929523D02*
X81265771Y-133834285D01*
X81265771Y-133834285D02*
X81265771Y-133596190D01*
X81265771Y-133596190D02*
X81313390Y-133500952D01*
X81313390Y-133500952D02*
X81361009Y-133453333D01*
X81361009Y-133453333D02*
X81456247Y-133405714D01*
X81456247Y-133405714D02*
X81694342Y-133405714D01*
X81694342Y-133405714D02*
X81789580Y-133453333D01*
X81789580Y-133453333D02*
X81837200Y-133500952D01*
X81837200Y-133500952D02*
X81884819Y-133596190D01*
X81884819Y-133596190D02*
X81884819Y-133834285D01*
X81884819Y-133834285D02*
X81837200Y-133929523D01*
X81837200Y-133929523D02*
X81789580Y-133977142D01*
X162928095Y-62954819D02*
X162928095Y-63764342D01*
X162928095Y-63764342D02*
X162975714Y-63859580D01*
X162975714Y-63859580D02*
X163023333Y-63907200D01*
X163023333Y-63907200D02*
X163118571Y-63954819D01*
X163118571Y-63954819D02*
X163309047Y-63954819D01*
X163309047Y-63954819D02*
X163404285Y-63907200D01*
X163404285Y-63907200D02*
X163451904Y-63859580D01*
X163451904Y-63859580D02*
X163499523Y-63764342D01*
X163499523Y-63764342D02*
X163499523Y-62954819D01*
X163928095Y-63050057D02*
X163975714Y-63002438D01*
X163975714Y-63002438D02*
X164070952Y-62954819D01*
X164070952Y-62954819D02*
X164309047Y-62954819D01*
X164309047Y-62954819D02*
X164404285Y-63002438D01*
X164404285Y-63002438D02*
X164451904Y-63050057D01*
X164451904Y-63050057D02*
X164499523Y-63145295D01*
X164499523Y-63145295D02*
X164499523Y-63240533D01*
X164499523Y-63240533D02*
X164451904Y-63383390D01*
X164451904Y-63383390D02*
X163880476Y-63954819D01*
X163880476Y-63954819D02*
X164499523Y-63954819D01*
D11*
%TO.C,U5*%
X140990000Y-82490000D02*
X140990000Y-92770000D01*
X140990000Y-92770000D02*
X164090000Y-92770000D01*
X141050000Y-84980000D02*
X141050000Y-90280000D01*
X141050000Y-90280000D02*
X164030000Y-90280000D01*
X164030000Y-84980000D02*
X141050000Y-84980000D01*
X164030000Y-86630000D02*
X164030000Y-84980000D01*
X164030000Y-90280000D02*
X164030000Y-88630000D01*
X164090000Y-82490000D02*
X140990000Y-82490000D01*
X164090000Y-92770000D02*
X164090000Y-82490000D01*
X164030000Y-88630000D02*
G75*
G02*
X164030000Y-86630000I0J1000000D01*
G01*
%TO.C,RV6*%
X82560000Y-52265000D02*
X87630000Y-52265000D01*
X82560000Y-62035000D02*
X82560000Y-52265000D01*
X82560000Y-62035000D02*
X87630000Y-62035000D01*
X87630000Y-62035000D02*
X87630000Y-52265000D01*
%TO.C,D6*%
X94330000Y-50435000D02*
X94330000Y-53715000D01*
X94330000Y-53019000D02*
X96170000Y-53019000D01*
X94330000Y-53139000D02*
X96170000Y-53139000D01*
X94330000Y-53259000D02*
X96170000Y-53259000D01*
X94330000Y-53715000D02*
X96170000Y-53715000D01*
X95250000Y-49255000D02*
X95250000Y-50435000D01*
X95250000Y-54895000D02*
X95250000Y-53715000D01*
X96170000Y-50435000D02*
X94330000Y-50435000D01*
X96170000Y-53715000D02*
X96170000Y-50435000D01*
%TO.C,R16*%
X146130000Y-56730000D02*
X146130000Y-63270000D01*
X146130000Y-63270000D02*
X146460000Y-63270000D01*
X146460000Y-56730000D02*
X146130000Y-56730000D01*
X148540000Y-56730000D02*
X148870000Y-56730000D01*
X148870000Y-56730000D02*
X148870000Y-63270000D01*
X148870000Y-63270000D02*
X148540000Y-63270000D01*
%TO.C,J6*%
X111470000Y-47610000D02*
X111470000Y-50110000D01*
X111470000Y-50110000D02*
X113970000Y-50110000D01*
X111770000Y-45790000D02*
X111770000Y-49810000D01*
X111770000Y-47500000D02*
X112270000Y-47500000D01*
X111770000Y-48310000D02*
X112770000Y-48310000D01*
X111770000Y-49810000D02*
X121990000Y-49810000D01*
X112270000Y-46290000D02*
X121490000Y-46290000D01*
X112270000Y-47500000D02*
X112270000Y-46290000D01*
X112770000Y-48310000D02*
X112770000Y-49810000D01*
X120990000Y-48310000D02*
X120990000Y-49810000D01*
X121490000Y-46290000D02*
X121490000Y-47500000D01*
X121490000Y-47500000D02*
X121990000Y-47500000D01*
X121990000Y-45790000D02*
X111770000Y-45790000D01*
X121990000Y-48310000D02*
X120990000Y-48310000D01*
X121990000Y-49810000D02*
X121990000Y-45790000D01*
%TO.C,C6*%
X94080000Y-57890000D02*
X94080000Y-61530000D01*
X94325000Y-57890000D02*
X94080000Y-57890000D01*
X94325000Y-61530000D02*
X94080000Y-61530000D01*
X96420000Y-57890000D02*
X96175000Y-57890000D01*
X96420000Y-57890000D02*
X96420000Y-61530000D01*
X96420000Y-61530000D02*
X96175000Y-61530000D01*
%TO.C,R5*%
X83090000Y-63400000D02*
X89630000Y-63400000D01*
X83090000Y-63730000D02*
X83090000Y-63400000D01*
X83090000Y-65810000D02*
X83090000Y-66140000D01*
X83090000Y-66140000D02*
X89630000Y-66140000D01*
X89630000Y-63400000D02*
X89630000Y-63730000D01*
X89630000Y-66140000D02*
X89630000Y-65810000D01*
%TO.C,C9*%
X98630000Y-96880000D02*
X99075000Y-96880000D01*
X98630000Y-103120000D02*
X98630000Y-96880000D01*
X98630000Y-103120000D02*
X99075000Y-103120000D01*
X100925000Y-96880000D02*
X101370000Y-96880000D01*
X100925000Y-103120000D02*
X101370000Y-103120000D01*
X101370000Y-103120000D02*
X101370000Y-96880000D01*
%TO.C,D2*%
X94330000Y-80910000D02*
X94330000Y-84190000D01*
X94330000Y-83494000D02*
X96170000Y-83494000D01*
X94330000Y-83614000D02*
X96170000Y-83614000D01*
X94330000Y-83734000D02*
X96170000Y-83734000D01*
X94330000Y-84190000D02*
X96170000Y-84190000D01*
X95250000Y-79730000D02*
X95250000Y-80910000D01*
X95250000Y-85370000D02*
X95250000Y-84190000D01*
X96170000Y-80910000D02*
X94330000Y-80910000D01*
X96170000Y-84190000D02*
X96170000Y-80910000D01*
%TO.C,J4*%
X75760000Y-53310000D02*
X75760000Y-61030000D01*
X75760000Y-61030000D02*
X79780000Y-61030000D01*
X76260000Y-53810000D02*
X77470000Y-53810000D01*
X76260000Y-60530000D02*
X76260000Y-53810000D01*
X77470000Y-53810000D02*
X77470000Y-53310000D01*
X77470000Y-60530000D02*
X76260000Y-60530000D01*
X77470000Y-61030000D02*
X77470000Y-60530000D01*
X77580000Y-61330000D02*
X80080000Y-61330000D01*
X78280000Y-53310000D02*
X78280000Y-54310000D01*
X78280000Y-54310000D02*
X79780000Y-54310000D01*
X78280000Y-60030000D02*
X79780000Y-60030000D01*
X78280000Y-61030000D02*
X78280000Y-60030000D01*
X79780000Y-53310000D02*
X75760000Y-53310000D01*
X79780000Y-61030000D02*
X79780000Y-53310000D01*
X80080000Y-61330000D02*
X80080000Y-58830000D01*
%TO.C,J14*%
X126990000Y-137690000D02*
X126990000Y-141710000D01*
X126990000Y-139190000D02*
X127990000Y-139190000D01*
X126990000Y-141710000D02*
X134710000Y-141710000D01*
X127490000Y-140000000D02*
X126990000Y-140000000D01*
X127490000Y-141210000D02*
X127490000Y-140000000D01*
X127990000Y-139190000D02*
X127990000Y-137690000D01*
X133710000Y-139190000D02*
X133710000Y-137690000D01*
X134210000Y-140000000D02*
X134210000Y-141210000D01*
X134210000Y-141210000D02*
X127490000Y-141210000D01*
X134710000Y-137690000D02*
X126990000Y-137690000D01*
X134710000Y-139190000D02*
X133710000Y-139190000D01*
X134710000Y-140000000D02*
X134210000Y-140000000D01*
X134710000Y-141710000D02*
X134710000Y-137690000D01*
X135010000Y-137390000D02*
X132510000Y-137390000D01*
X135010000Y-139890000D02*
X135010000Y-137390000D01*
%TO.C,R8*%
X90070000Y-116110000D02*
X90070000Y-122650000D01*
X90070000Y-122650000D02*
X90400000Y-122650000D01*
X90400000Y-116110000D02*
X90070000Y-116110000D01*
X92480000Y-116110000D02*
X92810000Y-116110000D01*
X92810000Y-116110000D02*
X92810000Y-122650000D01*
X92810000Y-122650000D02*
X92480000Y-122650000D01*
%TO.C,J2*%
X75790000Y-97800000D02*
X75790000Y-108020000D01*
X75790000Y-108020000D02*
X79810000Y-108020000D01*
X76290000Y-98300000D02*
X77500000Y-98300000D01*
X76290000Y-107520000D02*
X76290000Y-98300000D01*
X77500000Y-98300000D02*
X77500000Y-97800000D01*
X77500000Y-107520000D02*
X76290000Y-107520000D01*
X77500000Y-108020000D02*
X77500000Y-107520000D01*
X77610000Y-108320000D02*
X80110000Y-108320000D01*
X78310000Y-97800000D02*
X78310000Y-98800000D01*
X78310000Y-98800000D02*
X79810000Y-98800000D01*
X78310000Y-107020000D02*
X79810000Y-107020000D01*
X78310000Y-108020000D02*
X78310000Y-107020000D01*
X79810000Y-97800000D02*
X75790000Y-97800000D01*
X79810000Y-108020000D02*
X79810000Y-97800000D01*
X80110000Y-108320000D02*
X80110000Y-105820000D01*
%TO.C,C3*%
X94080000Y-73130000D02*
X94080000Y-76770000D01*
X94325000Y-73130000D02*
X94080000Y-73130000D01*
X94325000Y-76770000D02*
X94080000Y-76770000D01*
X96420000Y-73130000D02*
X96175000Y-73130000D01*
X96420000Y-73130000D02*
X96420000Y-76770000D01*
X96420000Y-76770000D02*
X96175000Y-76770000D01*
%TO.C,J17*%
X124130000Y-47610000D02*
X124130000Y-50110000D01*
X124130000Y-50110000D02*
X126630000Y-50110000D01*
X124430000Y-45790000D02*
X124430000Y-49810000D01*
X124430000Y-47500000D02*
X124930000Y-47500000D01*
X124430000Y-48310000D02*
X125430000Y-48310000D01*
X124430000Y-49810000D02*
X132150000Y-49810000D01*
X124930000Y-46290000D02*
X131650000Y-46290000D01*
X124930000Y-47500000D02*
X124930000Y-46290000D01*
X125430000Y-48310000D02*
X125430000Y-49810000D01*
X131150000Y-48310000D02*
X131150000Y-49810000D01*
X131650000Y-46290000D02*
X131650000Y-47500000D01*
X131650000Y-47500000D02*
X132150000Y-47500000D01*
X132150000Y-45790000D02*
X124430000Y-45790000D01*
X132150000Y-48310000D02*
X131150000Y-48310000D01*
X132150000Y-49810000D02*
X132150000Y-45790000D01*
%TO.C,D1*%
X94330000Y-96155000D02*
X94330000Y-99435000D01*
X94330000Y-98739000D02*
X96170000Y-98739000D01*
X94330000Y-98859000D02*
X96170000Y-98859000D01*
X94330000Y-98979000D02*
X96170000Y-98979000D01*
X94330000Y-99435000D02*
X96170000Y-99435000D01*
X95250000Y-94975000D02*
X95250000Y-96155000D01*
X95250000Y-100615000D02*
X95250000Y-99435000D01*
X96170000Y-96155000D02*
X94330000Y-96155000D01*
X96170000Y-99435000D02*
X96170000Y-96155000D01*
%TO.C,J7*%
X134310000Y-47310000D02*
X134310000Y-49810000D01*
X134310000Y-49810000D02*
X136810000Y-49810000D01*
X134610000Y-45490000D02*
X134610000Y-49510000D01*
X134610000Y-47200000D02*
X135110000Y-47200000D01*
X134610000Y-48010000D02*
X135610000Y-48010000D01*
X134610000Y-49510000D02*
X147330000Y-49510000D01*
X135110000Y-45990000D02*
X146830000Y-45990000D01*
X135110000Y-47200000D02*
X135110000Y-45990000D01*
X135610000Y-48010000D02*
X135610000Y-49510000D01*
X146330000Y-48010000D02*
X146330000Y-49510000D01*
X146830000Y-45990000D02*
X146830000Y-47200000D01*
X146830000Y-47200000D02*
X147330000Y-47200000D01*
X147330000Y-45490000D02*
X134610000Y-45490000D01*
X147330000Y-48010000D02*
X146330000Y-48010000D01*
X147330000Y-49510000D02*
X147330000Y-45490000D01*
%TO.C,U6*%
X173942000Y-115267500D02*
X173942000Y-116507500D01*
X173942000Y-116507500D02*
X175182000Y-116507500D01*
X174182000Y-107647500D02*
X174182000Y-116267500D01*
X174182000Y-107647500D02*
X185903000Y-107647500D01*
X174182000Y-116267500D02*
X185903000Y-116267500D01*
X185903000Y-107647500D02*
X185903000Y-116267500D01*
%TO.C,R30*%
X114200000Y-95790000D02*
X114200000Y-102330000D01*
X114200000Y-102330000D02*
X114530000Y-102330000D01*
X114530000Y-95790000D02*
X114200000Y-95790000D01*
X116610000Y-95790000D02*
X116940000Y-95790000D01*
X116940000Y-95790000D02*
X116940000Y-102330000D01*
X116940000Y-102330000D02*
X116610000Y-102330000D01*
%TO.C,U4*%
X178670000Y-60840000D02*
X178670000Y-83940000D01*
X178670000Y-83940000D02*
X188950000Y-83940000D01*
X181160000Y-60900000D02*
X181160000Y-83880000D01*
X181160000Y-83880000D02*
X186460000Y-83880000D01*
X182810000Y-60900000D02*
X181160000Y-60900000D01*
X186460000Y-60900000D02*
X184810000Y-60900000D01*
X186460000Y-83880000D02*
X186460000Y-60900000D01*
X188950000Y-60840000D02*
X178670000Y-60840000D01*
X188950000Y-83940000D02*
X188950000Y-60840000D01*
X184810000Y-60900000D02*
G75*
G02*
X182810000Y-60900000I-1000000J0D01*
G01*
%TO.C,R19*%
X130890000Y-56730000D02*
X130890000Y-63270000D01*
X130890000Y-63270000D02*
X131220000Y-63270000D01*
X131220000Y-56730000D02*
X130890000Y-56730000D01*
X133300000Y-56730000D02*
X133630000Y-56730000D01*
X133630000Y-56730000D02*
X133630000Y-63270000D01*
X133630000Y-63270000D02*
X133300000Y-63270000D01*
%TO.C,D3*%
X94330000Y-65670000D02*
X94330000Y-68950000D01*
X94330000Y-68254000D02*
X96170000Y-68254000D01*
X94330000Y-68374000D02*
X96170000Y-68374000D01*
X94330000Y-68494000D02*
X96170000Y-68494000D01*
X94330000Y-68950000D02*
X96170000Y-68950000D01*
X95250000Y-64490000D02*
X95250000Y-65670000D01*
X95250000Y-70130000D02*
X95250000Y-68950000D01*
X96170000Y-65670000D02*
X94330000Y-65670000D01*
X96170000Y-68950000D02*
X96170000Y-65670000D01*
%TO.C,J19*%
X179890000Y-137690000D02*
X179890000Y-141710000D01*
X179890000Y-139190000D02*
X180890000Y-139190000D01*
X179890000Y-141710000D02*
X190110000Y-141710000D01*
X180390000Y-140000000D02*
X179890000Y-140000000D01*
X180390000Y-141210000D02*
X180390000Y-140000000D01*
X180890000Y-139190000D02*
X180890000Y-137690000D01*
X189110000Y-139190000D02*
X189110000Y-137690000D01*
X189610000Y-140000000D02*
X189610000Y-141210000D01*
X189610000Y-141210000D02*
X180390000Y-141210000D01*
X190110000Y-137690000D02*
X179890000Y-137690000D01*
X190110000Y-139190000D02*
X189110000Y-139190000D01*
X190110000Y-140000000D02*
X189610000Y-140000000D01*
X190110000Y-141710000D02*
X190110000Y-137690000D01*
X190410000Y-137390000D02*
X187910000Y-137390000D01*
X190410000Y-139890000D02*
X190410000Y-137390000D01*
%TO.C,R20*%
X152630000Y-69730000D02*
X152960000Y-69730000D01*
X152630000Y-76270000D02*
X152630000Y-69730000D01*
X152960000Y-76270000D02*
X152630000Y-76270000D01*
X155040000Y-76270000D02*
X155370000Y-76270000D01*
X155370000Y-69730000D02*
X155040000Y-69730000D01*
X155370000Y-76270000D02*
X155370000Y-69730000D01*
%TO.C,J13*%
X164890000Y-137690000D02*
X164890000Y-141710000D01*
X164890000Y-139190000D02*
X165890000Y-139190000D01*
X164890000Y-141710000D02*
X177610000Y-141710000D01*
X165390000Y-140000000D02*
X164890000Y-140000000D01*
X165390000Y-141210000D02*
X165390000Y-140000000D01*
X165890000Y-139190000D02*
X165890000Y-137690000D01*
X176610000Y-139190000D02*
X176610000Y-137690000D01*
X177110000Y-140000000D02*
X177110000Y-141210000D01*
X177110000Y-141210000D02*
X165390000Y-141210000D01*
X177610000Y-137690000D02*
X164890000Y-137690000D01*
X177610000Y-139190000D02*
X176610000Y-139190000D01*
X177610000Y-140000000D02*
X177110000Y-140000000D01*
X177610000Y-141710000D02*
X177610000Y-137690000D01*
X177910000Y-137390000D02*
X175410000Y-137390000D01*
X177910000Y-139890000D02*
X177910000Y-137390000D01*
%TO.C,J9*%
X98890000Y-137690000D02*
X98890000Y-141710000D01*
X98890000Y-139190000D02*
X99890000Y-139190000D01*
X98890000Y-141710000D02*
X111610000Y-141710000D01*
X99390000Y-140000000D02*
X98890000Y-140000000D01*
X99390000Y-141210000D02*
X99390000Y-140000000D01*
X99890000Y-139190000D02*
X99890000Y-137690000D01*
X110610000Y-139190000D02*
X110610000Y-137690000D01*
X111110000Y-140000000D02*
X111110000Y-141210000D01*
X111110000Y-141210000D02*
X99390000Y-141210000D01*
X111610000Y-137690000D02*
X98890000Y-137690000D01*
X111610000Y-139190000D02*
X110610000Y-139190000D01*
X111610000Y-140000000D02*
X111110000Y-140000000D01*
X111610000Y-141710000D02*
X111610000Y-137690000D01*
X111910000Y-137390000D02*
X109410000Y-137390000D01*
X111910000Y-139890000D02*
X111910000Y-137390000D01*
%TO.C,J18*%
X119650000Y-126000000D02*
X119650000Y-129000000D01*
X119650000Y-126000000D02*
X123350000Y-126000000D01*
X123350000Y-126000000D02*
X123350000Y-129000000D01*
X123350000Y-129000000D02*
X119650000Y-129000000D01*
%TO.C,R31*%
X110390000Y-95790000D02*
X110390000Y-102330000D01*
X110390000Y-102330000D02*
X110720000Y-102330000D01*
X110720000Y-95790000D02*
X110390000Y-95790000D01*
X112800000Y-95790000D02*
X113130000Y-95790000D01*
X113130000Y-95790000D02*
X113130000Y-102330000D01*
X113130000Y-102330000D02*
X112800000Y-102330000D01*
%TO.C,R14*%
X102770000Y-65310000D02*
X102770000Y-71850000D01*
X102770000Y-71850000D02*
X103100000Y-71850000D01*
X103100000Y-65310000D02*
X102770000Y-65310000D01*
X105180000Y-65310000D02*
X105510000Y-65310000D01*
X105510000Y-65310000D02*
X105510000Y-71850000D01*
X105510000Y-71850000D02*
X105180000Y-71850000D01*
%TO.C,R11*%
X84230000Y-48160000D02*
X90770000Y-48160000D01*
X84230000Y-48490000D02*
X84230000Y-48160000D01*
X84230000Y-50570000D02*
X84230000Y-50900000D01*
X84230000Y-50900000D02*
X90770000Y-50900000D01*
X90770000Y-48160000D02*
X90770000Y-48490000D01*
X90770000Y-50900000D02*
X90770000Y-50570000D01*
%TO.C,R21*%
X116740000Y-60230000D02*
X117070000Y-60230000D01*
X116740000Y-66770000D02*
X116740000Y-60230000D01*
X117070000Y-66770000D02*
X116740000Y-66770000D01*
X119150000Y-66770000D02*
X119480000Y-66770000D01*
X119480000Y-60230000D02*
X119150000Y-60230000D01*
X119480000Y-66770000D02*
X119480000Y-60230000D01*
%TO.C,R10*%
X90070000Y-131350000D02*
X90070000Y-137890000D01*
X90070000Y-137890000D02*
X90400000Y-137890000D01*
X90400000Y-131350000D02*
X90070000Y-131350000D01*
X92480000Y-131350000D02*
X92810000Y-131350000D01*
X92810000Y-131350000D02*
X92810000Y-137890000D01*
X92810000Y-137890000D02*
X92480000Y-137890000D01*
%TO.C,R28*%
X145630000Y-116230000D02*
X145960000Y-116230000D01*
X145630000Y-122770000D02*
X145630000Y-116230000D01*
X145960000Y-122770000D02*
X145630000Y-122770000D01*
X148040000Y-122770000D02*
X148370000Y-122770000D01*
X148370000Y-116230000D02*
X148040000Y-116230000D01*
X148370000Y-122770000D02*
X148370000Y-116230000D01*
%TO.C,J16*%
X149530000Y-47610000D02*
X149530000Y-50110000D01*
X149530000Y-50110000D02*
X152030000Y-50110000D01*
X149830000Y-45790000D02*
X149830000Y-49810000D01*
X149830000Y-47500000D02*
X150330000Y-47500000D01*
X149830000Y-48310000D02*
X150830000Y-48310000D01*
X149830000Y-49810000D02*
X157550000Y-49810000D01*
X150330000Y-46290000D02*
X157050000Y-46290000D01*
X150330000Y-47500000D02*
X150330000Y-46290000D01*
X150830000Y-48310000D02*
X150830000Y-49810000D01*
X156550000Y-48310000D02*
X156550000Y-49810000D01*
X157050000Y-46290000D02*
X157050000Y-47500000D01*
X157050000Y-47500000D02*
X157550000Y-47500000D01*
X157550000Y-45790000D02*
X149830000Y-45790000D01*
X157550000Y-48310000D02*
X156550000Y-48310000D01*
X157550000Y-49810000D02*
X157550000Y-45790000D01*
%TO.C,R15*%
X112300000Y-53630000D02*
X118840000Y-53630000D01*
X112300000Y-53960000D02*
X112300000Y-53630000D01*
X112300000Y-56040000D02*
X112300000Y-56370000D01*
X112300000Y-56370000D02*
X118840000Y-56370000D01*
X118840000Y-53630000D02*
X118840000Y-53960000D01*
X118840000Y-56370000D02*
X118840000Y-56040000D01*
%TO.C,J8*%
X154390000Y-137690000D02*
X154390000Y-141710000D01*
X154390000Y-139190000D02*
X155390000Y-139190000D01*
X154390000Y-141710000D02*
X162110000Y-141710000D01*
X154890000Y-140000000D02*
X154390000Y-140000000D01*
X154890000Y-141210000D02*
X154890000Y-140000000D01*
X155390000Y-139190000D02*
X155390000Y-137690000D01*
X161110000Y-139190000D02*
X161110000Y-137690000D01*
X161610000Y-140000000D02*
X161610000Y-141210000D01*
X161610000Y-141210000D02*
X154890000Y-141210000D01*
X162110000Y-137690000D02*
X154390000Y-137690000D01*
X162110000Y-139190000D02*
X161110000Y-139190000D01*
X162110000Y-140000000D02*
X161610000Y-140000000D01*
X162110000Y-141710000D02*
X162110000Y-137690000D01*
X162410000Y-137390000D02*
X159910000Y-137390000D01*
X162410000Y-139890000D02*
X162410000Y-137390000D01*
%TO.C,D4*%
X94330000Y-112665000D02*
X94330000Y-115945000D01*
X94330000Y-115249000D02*
X96170000Y-115249000D01*
X94330000Y-115369000D02*
X96170000Y-115369000D01*
X94330000Y-115489000D02*
X96170000Y-115489000D01*
X94330000Y-115945000D02*
X96170000Y-115945000D01*
X95250000Y-111485000D02*
X95250000Y-112665000D01*
X95250000Y-117125000D02*
X95250000Y-115945000D01*
X96170000Y-112665000D02*
X94330000Y-112665000D01*
X96170000Y-115945000D02*
X96170000Y-112665000D01*
%TO.C,C4*%
X94080000Y-120080000D02*
X94080000Y-123720000D01*
X94325000Y-120080000D02*
X94080000Y-120080000D01*
X94325000Y-123720000D02*
X94080000Y-123720000D01*
X96420000Y-120080000D02*
X96175000Y-120080000D01*
X96420000Y-120080000D02*
X96420000Y-123720000D01*
X96420000Y-123720000D02*
X96175000Y-123720000D01*
%TO.C,RV3*%
X82560000Y-67505000D02*
X87630000Y-67505000D01*
X82560000Y-77275000D02*
X82560000Y-67505000D01*
X82560000Y-77275000D02*
X87630000Y-77275000D01*
X87630000Y-77275000D02*
X87630000Y-67505000D01*
%TO.C,J11*%
X192390000Y-59590000D02*
X192390000Y-62090000D01*
X192690000Y-59890000D02*
X192690000Y-82610000D01*
X192690000Y-82610000D02*
X196710000Y-82610000D01*
X194190000Y-59890000D02*
X194190000Y-60890000D01*
X194190000Y-60890000D02*
X192690000Y-60890000D01*
X194190000Y-81610000D02*
X192690000Y-81610000D01*
X194190000Y-82610000D02*
X194190000Y-81610000D01*
X194890000Y-59590000D02*
X192390000Y-59590000D01*
X195000000Y-59890000D02*
X195000000Y-60390000D01*
X195000000Y-60390000D02*
X196210000Y-60390000D01*
X195000000Y-82110000D02*
X195000000Y-82610000D01*
X196210000Y-60390000D02*
X196210000Y-82110000D01*
X196210000Y-82110000D02*
X195000000Y-82110000D01*
X196710000Y-59890000D02*
X192690000Y-59890000D01*
X196710000Y-82610000D02*
X196710000Y-59890000D01*
%TO.C,U1*%
X128390000Y-68540000D02*
X128390000Y-73840000D01*
X128390000Y-73840000D02*
X148830000Y-73840000D01*
X148830000Y-68540000D02*
X128390000Y-68540000D01*
X148830000Y-70190000D02*
X148830000Y-68540000D01*
X148830000Y-73840000D02*
X148830000Y-72190000D01*
X148830000Y-72190000D02*
G75*
G02*
X148830000Y-70190000I0J1000000D01*
G01*
%TO.C,R13*%
X102770000Y-53880000D02*
X102770000Y-60420000D01*
X102770000Y-60420000D02*
X103100000Y-60420000D01*
X103100000Y-53880000D02*
X102770000Y-53880000D01*
X105180000Y-53880000D02*
X105510000Y-53880000D01*
X105510000Y-53880000D02*
X105510000Y-60420000D01*
X105510000Y-60420000D02*
X105180000Y-60420000D01*
%TO.C,R4*%
X90070000Y-84360000D02*
X90070000Y-90900000D01*
X90070000Y-90900000D02*
X90400000Y-90900000D01*
X90400000Y-84360000D02*
X90070000Y-84360000D01*
X92480000Y-84360000D02*
X92810000Y-84360000D01*
X92810000Y-84360000D02*
X92810000Y-90900000D01*
X92810000Y-90900000D02*
X92480000Y-90900000D01*
%TO.C,R26*%
X138010000Y-116230000D02*
X138340000Y-116230000D01*
X138010000Y-122770000D02*
X138010000Y-116230000D01*
X138340000Y-122770000D02*
X138010000Y-122770000D01*
X140420000Y-122770000D02*
X140750000Y-122770000D01*
X140750000Y-116230000D02*
X140420000Y-116230000D01*
X140750000Y-122770000D02*
X140750000Y-116230000D01*
%TO.C,RV2*%
X82560000Y-82745000D02*
X87630000Y-82745000D01*
X82560000Y-92515000D02*
X82560000Y-82745000D01*
X82560000Y-92515000D02*
X87630000Y-92515000D01*
X87630000Y-92515000D02*
X87630000Y-82745000D01*
%TO.C,C5*%
X94080000Y-135320000D02*
X94080000Y-138960000D01*
X94325000Y-135320000D02*
X94080000Y-135320000D01*
X94325000Y-138960000D02*
X94080000Y-138960000D01*
X96420000Y-135320000D02*
X96175000Y-135320000D01*
X96420000Y-135320000D02*
X96420000Y-138960000D01*
X96420000Y-138960000D02*
X96175000Y-138960000D01*
%TO.C,J15*%
X115640000Y-137690000D02*
X115640000Y-141710000D01*
X115640000Y-139190000D02*
X116640000Y-139190000D01*
X115640000Y-141710000D02*
X123360000Y-141710000D01*
X116140000Y-140000000D02*
X115640000Y-140000000D01*
X116140000Y-141210000D02*
X116140000Y-140000000D01*
X116640000Y-139190000D02*
X116640000Y-137690000D01*
X122360000Y-139190000D02*
X122360000Y-137690000D01*
X122860000Y-140000000D02*
X122860000Y-141210000D01*
X122860000Y-141210000D02*
X116140000Y-141210000D01*
X123360000Y-137690000D02*
X115640000Y-137690000D01*
X123360000Y-139190000D02*
X122360000Y-139190000D01*
X123360000Y-140000000D02*
X122860000Y-140000000D01*
X123360000Y-141710000D02*
X123360000Y-137690000D01*
X123660000Y-137390000D02*
X121160000Y-137390000D01*
X123660000Y-139890000D02*
X123660000Y-137390000D01*
%TO.C,R3*%
X83090000Y-78640000D02*
X89630000Y-78640000D01*
X83090000Y-78970000D02*
X83090000Y-78640000D01*
X83090000Y-81050000D02*
X83090000Y-81380000D01*
X83090000Y-81380000D02*
X89630000Y-81380000D01*
X89630000Y-78640000D02*
X89630000Y-78970000D01*
X89630000Y-81380000D02*
X89630000Y-81050000D01*
%TO.C,J12*%
X161000000Y-47610000D02*
X161000000Y-50110000D01*
X161000000Y-50110000D02*
X163500000Y-50110000D01*
X161300000Y-45790000D02*
X161300000Y-49810000D01*
X161300000Y-47500000D02*
X161800000Y-47500000D01*
X161300000Y-48310000D02*
X162300000Y-48310000D01*
X161300000Y-49810000D02*
X174020000Y-49810000D01*
X161800000Y-46290000D02*
X173520000Y-46290000D01*
X161800000Y-47500000D02*
X161800000Y-46290000D01*
X162300000Y-48310000D02*
X162300000Y-49810000D01*
X173020000Y-48310000D02*
X173020000Y-49810000D01*
X173520000Y-46290000D02*
X173520000Y-47500000D01*
X173520000Y-47500000D02*
X174020000Y-47500000D01*
X174020000Y-45790000D02*
X161300000Y-45790000D01*
X174020000Y-48310000D02*
X173020000Y-48310000D01*
X174020000Y-49810000D02*
X174020000Y-45790000D01*
%TO.C,C1*%
X94080000Y-103570000D02*
X94080000Y-107210000D01*
X94325000Y-103570000D02*
X94080000Y-103570000D01*
X94325000Y-107210000D02*
X94080000Y-107210000D01*
X96420000Y-103570000D02*
X96175000Y-103570000D01*
X96420000Y-103570000D02*
X96420000Y-107210000D01*
X96420000Y-107210000D02*
X96175000Y-107210000D01*
%TO.C,J5*%
X101270000Y-47610000D02*
X101270000Y-50110000D01*
X101270000Y-50110000D02*
X103770000Y-50110000D01*
X101570000Y-45790000D02*
X101570000Y-49810000D01*
X101570000Y-47500000D02*
X102070000Y-47500000D01*
X101570000Y-48310000D02*
X102570000Y-48310000D01*
X101570000Y-49810000D02*
X109290000Y-49810000D01*
X102070000Y-46290000D02*
X108790000Y-46290000D01*
X102070000Y-47500000D02*
X102070000Y-46290000D01*
X102570000Y-48310000D02*
X102570000Y-49810000D01*
X108290000Y-48310000D02*
X108290000Y-49810000D01*
X108790000Y-46290000D02*
X108790000Y-47500000D01*
X108790000Y-47500000D02*
X109290000Y-47500000D01*
X109290000Y-45790000D02*
X101570000Y-45790000D01*
X109290000Y-48310000D02*
X108290000Y-48310000D01*
X109290000Y-49810000D02*
X109290000Y-45790000D01*
%TO.C,R22*%
X112930000Y-60230000D02*
X113260000Y-60230000D01*
X112930000Y-66770000D02*
X112930000Y-60230000D01*
X113260000Y-66770000D02*
X112930000Y-66770000D01*
X115340000Y-66770000D02*
X115670000Y-66770000D01*
X115670000Y-60230000D02*
X115340000Y-60230000D01*
X115670000Y-66770000D02*
X115670000Y-60230000D01*
%TO.C,R2*%
X90070000Y-99600000D02*
X90070000Y-106140000D01*
X90070000Y-106140000D02*
X90400000Y-106140000D01*
X90400000Y-99600000D02*
X90070000Y-99600000D01*
X92480000Y-99600000D02*
X92810000Y-99600000D01*
X92810000Y-99600000D02*
X92810000Y-106140000D01*
X92810000Y-106140000D02*
X92480000Y-106140000D01*
%TO.C,R34*%
X154130000Y-56730000D02*
X154130000Y-63270000D01*
X154130000Y-63270000D02*
X154460000Y-63270000D01*
X154460000Y-56730000D02*
X154130000Y-56730000D01*
X156540000Y-56730000D02*
X156870000Y-56730000D01*
X156870000Y-56730000D02*
X156870000Y-63270000D01*
X156870000Y-63270000D02*
X156540000Y-63270000D01*
%TO.C,R33*%
X113130000Y-90900000D02*
X113130000Y-84360000D01*
X113130000Y-84360000D02*
X112800000Y-84360000D01*
X112800000Y-90900000D02*
X113130000Y-90900000D01*
X110720000Y-90900000D02*
X110390000Y-90900000D01*
X110390000Y-90900000D02*
X110390000Y-84360000D01*
X110390000Y-84360000D02*
X110720000Y-84360000D01*
%TO.C,R6*%
X90070000Y-69120000D02*
X90070000Y-75660000D01*
X90070000Y-75660000D02*
X90400000Y-75660000D01*
X90400000Y-69120000D02*
X90070000Y-69120000D01*
X92480000Y-69120000D02*
X92810000Y-69120000D01*
X92810000Y-69120000D02*
X92810000Y-75660000D01*
X92810000Y-75660000D02*
X92480000Y-75660000D01*
%TO.C,R18*%
X135970000Y-56730000D02*
X135970000Y-63270000D01*
X135970000Y-63270000D02*
X136300000Y-63270000D01*
X136300000Y-56730000D02*
X135970000Y-56730000D01*
X138380000Y-56730000D02*
X138710000Y-56730000D01*
X138710000Y-56730000D02*
X138710000Y-63270000D01*
X138710000Y-63270000D02*
X138380000Y-63270000D01*
%TO.C,RV4*%
X82560000Y-114495000D02*
X87630000Y-114495000D01*
X82560000Y-124265000D02*
X82560000Y-114495000D01*
X82560000Y-124265000D02*
X87630000Y-124265000D01*
X87630000Y-124265000D02*
X87630000Y-114495000D01*
%TO.C,R23*%
X109120000Y-60230000D02*
X109450000Y-60230000D01*
X109120000Y-66770000D02*
X109120000Y-60230000D01*
X109450000Y-66770000D02*
X109120000Y-66770000D01*
X111530000Y-66770000D02*
X111860000Y-66770000D01*
X111860000Y-60230000D02*
X111530000Y-60230000D01*
X111860000Y-66770000D02*
X111860000Y-60230000D01*
%TO.C,R1*%
X83090000Y-93880000D02*
X89630000Y-93880000D01*
X83090000Y-94210000D02*
X83090000Y-93880000D01*
X83090000Y-96290000D02*
X83090000Y-96620000D01*
X83090000Y-96620000D02*
X89630000Y-96620000D01*
X89630000Y-93880000D02*
X89630000Y-94210000D01*
X89630000Y-96620000D02*
X89630000Y-96290000D01*
%TO.C,R12*%
X90070000Y-53880000D02*
X90070000Y-60420000D01*
X90070000Y-60420000D02*
X90400000Y-60420000D01*
X90400000Y-53880000D02*
X90070000Y-53880000D01*
X92480000Y-53880000D02*
X92810000Y-53880000D01*
X92810000Y-53880000D02*
X92810000Y-60420000D01*
X92810000Y-60420000D02*
X92480000Y-60420000D01*
%TO.C,J1*%
X75790000Y-122390000D02*
X75790000Y-132610000D01*
X75790000Y-132610000D02*
X79810000Y-132610000D01*
X76290000Y-122890000D02*
X77500000Y-122890000D01*
X76290000Y-132110000D02*
X76290000Y-122890000D01*
X77500000Y-122890000D02*
X77500000Y-122390000D01*
X77500000Y-132110000D02*
X76290000Y-132110000D01*
X77500000Y-132610000D02*
X77500000Y-132110000D01*
X77610000Y-132910000D02*
X80110000Y-132910000D01*
X78310000Y-122390000D02*
X78310000Y-123390000D01*
X78310000Y-123390000D02*
X79810000Y-123390000D01*
X78310000Y-131610000D02*
X79810000Y-131610000D01*
X78310000Y-132610000D02*
X78310000Y-131610000D01*
X79810000Y-122390000D02*
X75790000Y-122390000D01*
X79810000Y-132610000D02*
X79810000Y-122390000D01*
X80110000Y-132910000D02*
X80110000Y-130410000D01*
%TO.C,D5*%
X94330000Y-127900000D02*
X94330000Y-131180000D01*
X94330000Y-130484000D02*
X96170000Y-130484000D01*
X94330000Y-130604000D02*
X96170000Y-130604000D01*
X94330000Y-130724000D02*
X96170000Y-130724000D01*
X94330000Y-131180000D02*
X96170000Y-131180000D01*
X95250000Y-126720000D02*
X95250000Y-127900000D01*
X95250000Y-132360000D02*
X95250000Y-131180000D01*
X96170000Y-127900000D02*
X94330000Y-127900000D01*
X96170000Y-131180000D02*
X96170000Y-127900000D01*
%TO.C,R27*%
X141820000Y-116230000D02*
X142150000Y-116230000D01*
X141820000Y-122770000D02*
X141820000Y-116230000D01*
X142150000Y-122770000D02*
X141820000Y-122770000D01*
X144230000Y-122770000D02*
X144560000Y-122770000D01*
X144560000Y-116230000D02*
X144230000Y-116230000D01*
X144560000Y-122770000D02*
X144560000Y-116230000D01*
%TO.C,R9*%
X83090000Y-125630000D02*
X89630000Y-125630000D01*
X83090000Y-125960000D02*
X83090000Y-125630000D01*
X83090000Y-128040000D02*
X83090000Y-128370000D01*
X83090000Y-128370000D02*
X89630000Y-128370000D01*
X89630000Y-125630000D02*
X89630000Y-125960000D01*
X89630000Y-128370000D02*
X89630000Y-128040000D01*
%TO.C,U3*%
X128350000Y-80780000D02*
X128350000Y-101220000D01*
X128350000Y-101220000D02*
X130000000Y-101220000D01*
X132000000Y-101220000D02*
X133650000Y-101220000D01*
X133650000Y-80780000D02*
X128350000Y-80780000D01*
X133650000Y-101220000D02*
X133650000Y-80780000D01*
X130000000Y-101220000D02*
G75*
G02*
X132000000Y-101220000I1000000J0D01*
G01*
%TO.C,R29*%
X149440000Y-116230000D02*
X149770000Y-116230000D01*
X149440000Y-122770000D02*
X149440000Y-116230000D01*
X149770000Y-122770000D02*
X149440000Y-122770000D01*
X151850000Y-122770000D02*
X152180000Y-122770000D01*
X152180000Y-116230000D02*
X151850000Y-116230000D01*
X152180000Y-122770000D02*
X152180000Y-116230000D01*
%TO.C,A1*%
X107840000Y-79340000D02*
X107840000Y-122580000D01*
X107840000Y-122580000D02*
X113300000Y-122580000D01*
X115300000Y-122580000D02*
X120760000Y-122580000D01*
X120760000Y-79340000D02*
X107840000Y-79340000D01*
X120760000Y-122580000D02*
X120760000Y-79340000D01*
X113300000Y-122580000D02*
G75*
G02*
X115300000Y-122580000I1000000J0D01*
G01*
%TO.C,R24*%
X114200000Y-107220000D02*
X114530000Y-107220000D01*
X114200000Y-113760000D02*
X114200000Y-107220000D01*
X114530000Y-113760000D02*
X114200000Y-113760000D01*
X116610000Y-113760000D02*
X116940000Y-113760000D01*
X116940000Y-107220000D02*
X116610000Y-107220000D01*
X116940000Y-113760000D02*
X116940000Y-107220000D01*
%TO.C,R7*%
X83090000Y-110390000D02*
X89630000Y-110390000D01*
X83090000Y-110720000D02*
X83090000Y-110390000D01*
X83090000Y-112800000D02*
X83090000Y-113130000D01*
X83090000Y-113130000D02*
X89630000Y-113130000D01*
X89630000Y-110390000D02*
X89630000Y-110720000D01*
X89630000Y-113130000D02*
X89630000Y-112800000D01*
%TO.C,J3*%
X75790000Y-68550000D02*
X75790000Y-76270000D01*
X75790000Y-76270000D02*
X79810000Y-76270000D01*
X76290000Y-69050000D02*
X77500000Y-69050000D01*
X76290000Y-75770000D02*
X76290000Y-69050000D01*
X77500000Y-69050000D02*
X77500000Y-68550000D01*
X77500000Y-75770000D02*
X76290000Y-75770000D01*
X77500000Y-76270000D02*
X77500000Y-75770000D01*
X77610000Y-76570000D02*
X80110000Y-76570000D01*
X78310000Y-68550000D02*
X78310000Y-69550000D01*
X78310000Y-69550000D02*
X79810000Y-69550000D01*
X78310000Y-75270000D02*
X79810000Y-75270000D01*
X78310000Y-76270000D02*
X78310000Y-75270000D01*
X79810000Y-68550000D02*
X75790000Y-68550000D01*
X79810000Y-76270000D02*
X79810000Y-68550000D01*
X80110000Y-76570000D02*
X80110000Y-74070000D01*
%TO.C,J10*%
X138390000Y-137690000D02*
X138390000Y-141710000D01*
X138390000Y-139190000D02*
X139390000Y-139190000D01*
X138390000Y-141710000D02*
X151110000Y-141710000D01*
X138890000Y-140000000D02*
X138390000Y-140000000D01*
X138890000Y-141210000D02*
X138890000Y-140000000D01*
X139390000Y-139190000D02*
X139390000Y-137690000D01*
X150110000Y-139190000D02*
X150110000Y-137690000D01*
X150610000Y-140000000D02*
X150610000Y-141210000D01*
X150610000Y-141210000D02*
X138890000Y-141210000D01*
X151110000Y-137690000D02*
X138390000Y-137690000D01*
X151110000Y-139190000D02*
X150110000Y-139190000D01*
X151110000Y-140000000D02*
X150610000Y-140000000D01*
X151110000Y-141710000D02*
X151110000Y-137690000D01*
X151410000Y-137390000D02*
X148910000Y-137390000D01*
X151410000Y-139890000D02*
X151410000Y-137390000D01*
%TO.C,R35*%
X150380000Y-56730000D02*
X150710000Y-56730000D01*
X150380000Y-63270000D02*
X150380000Y-56730000D01*
X150710000Y-63270000D02*
X150380000Y-63270000D01*
X152790000Y-63270000D02*
X153120000Y-63270000D01*
X153120000Y-56730000D02*
X152790000Y-56730000D01*
X153120000Y-63270000D02*
X153120000Y-56730000D01*
%TO.C,R32*%
X114200000Y-84360000D02*
X114530000Y-84360000D01*
X114200000Y-90900000D02*
X114200000Y-84360000D01*
X114530000Y-90900000D02*
X114200000Y-90900000D01*
X116610000Y-90900000D02*
X116940000Y-90900000D01*
X116940000Y-84360000D02*
X116610000Y-84360000D01*
X116940000Y-90900000D02*
X116940000Y-84360000D01*
%TO.C,C8*%
X178630000Y-87050000D02*
X179075000Y-87050000D01*
X178630000Y-93290000D02*
X178630000Y-87050000D01*
X178630000Y-93290000D02*
X179075000Y-93290000D01*
X180925000Y-87050000D02*
X181370000Y-87050000D01*
X180925000Y-93290000D02*
X181370000Y-93290000D01*
X181370000Y-93290000D02*
X181370000Y-87050000D01*
%TO.C,C10*%
X176195225Y-121525000D02*
X176695225Y-121525000D01*
X176445225Y-121275000D02*
X176445225Y-121775000D01*
X179000000Y-120420000D02*
X179000000Y-121960000D01*
X179000000Y-124040000D02*
X179000000Y-125580000D01*
X179040000Y-120420000D02*
X179040000Y-121960000D01*
X179040000Y-124040000D02*
X179040000Y-125580000D01*
X179080000Y-120421000D02*
X179080000Y-121960000D01*
X179080000Y-124040000D02*
X179080000Y-125579000D01*
X179120000Y-120422000D02*
X179120000Y-121960000D01*
X179120000Y-124040000D02*
X179120000Y-125578000D01*
X179160000Y-120424000D02*
X179160000Y-121960000D01*
X179160000Y-124040000D02*
X179160000Y-125576000D01*
X179200000Y-120427000D02*
X179200000Y-121960000D01*
X179200000Y-124040000D02*
X179200000Y-125573000D01*
X179240000Y-120431000D02*
X179240000Y-121960000D01*
X179240000Y-124040000D02*
X179240000Y-125569000D01*
X179280000Y-120435000D02*
X179280000Y-121960000D01*
X179280000Y-124040000D02*
X179280000Y-125565000D01*
X179320000Y-120439000D02*
X179320000Y-121960000D01*
X179320000Y-124040000D02*
X179320000Y-125561000D01*
X179360000Y-120444000D02*
X179360000Y-121960000D01*
X179360000Y-124040000D02*
X179360000Y-125556000D01*
X179400000Y-120450000D02*
X179400000Y-121960000D01*
X179400000Y-124040000D02*
X179400000Y-125550000D01*
X179440000Y-120457000D02*
X179440000Y-121960000D01*
X179440000Y-124040000D02*
X179440000Y-125543000D01*
X179480000Y-120464000D02*
X179480000Y-121960000D01*
X179480000Y-124040000D02*
X179480000Y-125536000D01*
X179520000Y-120472000D02*
X179520000Y-121960000D01*
X179520000Y-124040000D02*
X179520000Y-125528000D01*
X179560000Y-120480000D02*
X179560000Y-121960000D01*
X179560000Y-124040000D02*
X179560000Y-125520000D01*
X179600000Y-120489000D02*
X179600000Y-121960000D01*
X179600000Y-124040000D02*
X179600000Y-125511000D01*
X179640000Y-120499000D02*
X179640000Y-121960000D01*
X179640000Y-124040000D02*
X179640000Y-125501000D01*
X179680000Y-120509000D02*
X179680000Y-121960000D01*
X179680000Y-124040000D02*
X179680000Y-125491000D01*
X179721000Y-120520000D02*
X179721000Y-121960000D01*
X179721000Y-124040000D02*
X179721000Y-125480000D01*
X179761000Y-120532000D02*
X179761000Y-121960000D01*
X179761000Y-124040000D02*
X179761000Y-125468000D01*
X179801000Y-120545000D02*
X179801000Y-121960000D01*
X179801000Y-124040000D02*
X179801000Y-125455000D01*
X179841000Y-120558000D02*
X179841000Y-121960000D01*
X179841000Y-124040000D02*
X179841000Y-125442000D01*
X179881000Y-120572000D02*
X179881000Y-121960000D01*
X179881000Y-124040000D02*
X179881000Y-125428000D01*
X179921000Y-120586000D02*
X179921000Y-121960000D01*
X179921000Y-124040000D02*
X179921000Y-125414000D01*
X179961000Y-120602000D02*
X179961000Y-121960000D01*
X179961000Y-124040000D02*
X179961000Y-125398000D01*
X180001000Y-120618000D02*
X180001000Y-121960000D01*
X180001000Y-124040000D02*
X180001000Y-125382000D01*
X180041000Y-120635000D02*
X180041000Y-121960000D01*
X180041000Y-124040000D02*
X180041000Y-125365000D01*
X180081000Y-120652000D02*
X180081000Y-121960000D01*
X180081000Y-124040000D02*
X180081000Y-125348000D01*
X180121000Y-120671000D02*
X180121000Y-121960000D01*
X180121000Y-124040000D02*
X180121000Y-125329000D01*
X180161000Y-120690000D02*
X180161000Y-121960000D01*
X180161000Y-124040000D02*
X180161000Y-125310000D01*
X180201000Y-120710000D02*
X180201000Y-121960000D01*
X180201000Y-124040000D02*
X180201000Y-125290000D01*
X180241000Y-120732000D02*
X180241000Y-121960000D01*
X180241000Y-124040000D02*
X180241000Y-125268000D01*
X180281000Y-120753000D02*
X180281000Y-121960000D01*
X180281000Y-124040000D02*
X180281000Y-125247000D01*
X180321000Y-120776000D02*
X180321000Y-121960000D01*
X180321000Y-124040000D02*
X180321000Y-125224000D01*
X180361000Y-120800000D02*
X180361000Y-121960000D01*
X180361000Y-124040000D02*
X180361000Y-125200000D01*
X180401000Y-120825000D02*
X180401000Y-121960000D01*
X180401000Y-124040000D02*
X180401000Y-125175000D01*
X180441000Y-120851000D02*
X180441000Y-121960000D01*
X180441000Y-124040000D02*
X180441000Y-125149000D01*
X180481000Y-120878000D02*
X180481000Y-121960000D01*
X180481000Y-124040000D02*
X180481000Y-125122000D01*
X180521000Y-120905000D02*
X180521000Y-121960000D01*
X180521000Y-124040000D02*
X180521000Y-125095000D01*
X180561000Y-120935000D02*
X180561000Y-121960000D01*
X180561000Y-124040000D02*
X180561000Y-125065000D01*
X180601000Y-120965000D02*
X180601000Y-121960000D01*
X180601000Y-124040000D02*
X180601000Y-125035000D01*
X180641000Y-120996000D02*
X180641000Y-121960000D01*
X180641000Y-124040000D02*
X180641000Y-125004000D01*
X180681000Y-121029000D02*
X180681000Y-121960000D01*
X180681000Y-124040000D02*
X180681000Y-124971000D01*
X180721000Y-121063000D02*
X180721000Y-121960000D01*
X180721000Y-124040000D02*
X180721000Y-124937000D01*
X180761000Y-121099000D02*
X180761000Y-121960000D01*
X180761000Y-124040000D02*
X180761000Y-124901000D01*
X180801000Y-121136000D02*
X180801000Y-121960000D01*
X180801000Y-124040000D02*
X180801000Y-124864000D01*
X180841000Y-121174000D02*
X180841000Y-121960000D01*
X180841000Y-124040000D02*
X180841000Y-124826000D01*
X180881000Y-121215000D02*
X180881000Y-121960000D01*
X180881000Y-124040000D02*
X180881000Y-124785000D01*
X180921000Y-121257000D02*
X180921000Y-121960000D01*
X180921000Y-124040000D02*
X180921000Y-124743000D01*
X180961000Y-121301000D02*
X180961000Y-121960000D01*
X180961000Y-124040000D02*
X180961000Y-124699000D01*
X181001000Y-121347000D02*
X181001000Y-121960000D01*
X181001000Y-124040000D02*
X181001000Y-124653000D01*
X181041000Y-121395000D02*
X181041000Y-124605000D01*
X181081000Y-121446000D02*
X181081000Y-124554000D01*
X181121000Y-121500000D02*
X181121000Y-124500000D01*
X181161000Y-121557000D02*
X181161000Y-124443000D01*
X181201000Y-121617000D02*
X181201000Y-124383000D01*
X181241000Y-121681000D02*
X181241000Y-124319000D01*
X181281000Y-121749000D02*
X181281000Y-124251000D01*
X181321000Y-121822000D02*
X181321000Y-124178000D01*
X181361000Y-121902000D02*
X181361000Y-124098000D01*
X181401000Y-121989000D02*
X181401000Y-124011000D01*
X181441000Y-122085000D02*
X181441000Y-123915000D01*
X181481000Y-122195000D02*
X181481000Y-123805000D01*
X181521000Y-122323000D02*
X181521000Y-123677000D01*
X181561000Y-122482000D02*
X181561000Y-123518000D01*
X181601000Y-122716000D02*
X181601000Y-123284000D01*
X181620000Y-123000000D02*
G75*
G02*
X176380000Y-123000000I-2620000J0D01*
G01*
X176380000Y-123000000D02*
G75*
G02*
X181620000Y-123000000I2620000J0D01*
G01*
%TO.C,C2*%
X94080000Y-88370000D02*
X94080000Y-92010000D01*
X94325000Y-88370000D02*
X94080000Y-88370000D01*
X94325000Y-92010000D02*
X94080000Y-92010000D01*
X96420000Y-88370000D02*
X96175000Y-88370000D01*
X96420000Y-88370000D02*
X96420000Y-92010000D01*
X96420000Y-92010000D02*
X96175000Y-92010000D01*
%TO.C,C7*%
X98729000Y-110774000D02*
X98729000Y-110206000D01*
X98769000Y-111008000D02*
X98769000Y-109972000D01*
X98809000Y-111167000D02*
X98809000Y-109813000D01*
X98849000Y-111295000D02*
X98849000Y-109685000D01*
X98889000Y-111405000D02*
X98889000Y-109575000D01*
X98929000Y-111501000D02*
X98929000Y-109479000D01*
X98969000Y-111588000D02*
X98969000Y-109392000D01*
X99009000Y-111668000D02*
X99009000Y-109312000D01*
X99049000Y-111741000D02*
X99049000Y-109239000D01*
X99089000Y-111809000D02*
X99089000Y-109171000D01*
X99129000Y-111873000D02*
X99129000Y-109107000D01*
X99169000Y-111933000D02*
X99169000Y-109047000D01*
X99209000Y-111990000D02*
X99209000Y-108990000D01*
X99249000Y-112044000D02*
X99249000Y-108936000D01*
X99289000Y-112095000D02*
X99289000Y-108885000D01*
X99329000Y-109450000D02*
X99329000Y-108837000D01*
X99329000Y-112143000D02*
X99329000Y-111530000D01*
X99369000Y-109450000D02*
X99369000Y-108791000D01*
X99369000Y-112189000D02*
X99369000Y-111530000D01*
X99409000Y-109450000D02*
X99409000Y-108747000D01*
X99409000Y-112233000D02*
X99409000Y-111530000D01*
X99449000Y-109450000D02*
X99449000Y-108705000D01*
X99449000Y-112275000D02*
X99449000Y-111530000D01*
X99489000Y-109450000D02*
X99489000Y-108664000D01*
X99489000Y-112316000D02*
X99489000Y-111530000D01*
X99529000Y-109450000D02*
X99529000Y-108626000D01*
X99529000Y-112354000D02*
X99529000Y-111530000D01*
X99569000Y-109450000D02*
X99569000Y-108589000D01*
X99569000Y-112391000D02*
X99569000Y-111530000D01*
X99609000Y-109450000D02*
X99609000Y-108553000D01*
X99609000Y-112427000D02*
X99609000Y-111530000D01*
X99649000Y-109450000D02*
X99649000Y-108519000D01*
X99649000Y-112461000D02*
X99649000Y-111530000D01*
X99689000Y-109450000D02*
X99689000Y-108486000D01*
X99689000Y-112494000D02*
X99689000Y-111530000D01*
X99729000Y-109450000D02*
X99729000Y-108455000D01*
X99729000Y-112525000D02*
X99729000Y-111530000D01*
X99769000Y-109450000D02*
X99769000Y-108425000D01*
X99769000Y-112555000D02*
X99769000Y-111530000D01*
X99809000Y-109450000D02*
X99809000Y-108395000D01*
X99809000Y-112585000D02*
X99809000Y-111530000D01*
X99849000Y-109450000D02*
X99849000Y-108368000D01*
X99849000Y-112612000D02*
X99849000Y-111530000D01*
X99889000Y-109450000D02*
X99889000Y-108341000D01*
X99889000Y-112639000D02*
X99889000Y-111530000D01*
X99929000Y-109450000D02*
X99929000Y-108315000D01*
X99929000Y-112665000D02*
X99929000Y-111530000D01*
X99969000Y-109450000D02*
X99969000Y-108290000D01*
X99969000Y-112690000D02*
X99969000Y-111530000D01*
X100009000Y-109450000D02*
X100009000Y-108266000D01*
X100009000Y-112714000D02*
X100009000Y-111530000D01*
X100049000Y-109450000D02*
X100049000Y-108243000D01*
X100049000Y-112737000D02*
X100049000Y-111530000D01*
X100089000Y-109450000D02*
X100089000Y-108222000D01*
X100089000Y-112758000D02*
X100089000Y-111530000D01*
X100129000Y-109450000D02*
X100129000Y-108200000D01*
X100129000Y-112780000D02*
X100129000Y-111530000D01*
X100169000Y-109450000D02*
X100169000Y-108180000D01*
X100169000Y-112800000D02*
X100169000Y-111530000D01*
X100209000Y-109450000D02*
X100209000Y-108161000D01*
X100209000Y-112819000D02*
X100209000Y-111530000D01*
X100249000Y-109450000D02*
X100249000Y-108142000D01*
X100249000Y-112838000D02*
X100249000Y-111530000D01*
X100289000Y-109450000D02*
X100289000Y-108125000D01*
X100289000Y-112855000D02*
X100289000Y-111530000D01*
X100329000Y-109450000D02*
X100329000Y-108108000D01*
X100329000Y-112872000D02*
X100329000Y-111530000D01*
X100369000Y-109450000D02*
X100369000Y-108092000D01*
X100369000Y-112888000D02*
X100369000Y-111530000D01*
X100409000Y-109450000D02*
X100409000Y-108076000D01*
X100409000Y-112904000D02*
X100409000Y-111530000D01*
X100449000Y-109450000D02*
X100449000Y-108062000D01*
X100449000Y-112918000D02*
X100449000Y-111530000D01*
X100489000Y-109450000D02*
X100489000Y-108048000D01*
X100489000Y-112932000D02*
X100489000Y-111530000D01*
X100529000Y-109450000D02*
X100529000Y-108035000D01*
X100529000Y-112945000D02*
X100529000Y-111530000D01*
X100569000Y-109450000D02*
X100569000Y-108022000D01*
X100569000Y-112958000D02*
X100569000Y-111530000D01*
X100609000Y-109450000D02*
X100609000Y-108010000D01*
X100609000Y-112970000D02*
X100609000Y-111530000D01*
X100650000Y-109450000D02*
X100650000Y-107999000D01*
X100650000Y-112981000D02*
X100650000Y-111530000D01*
X100690000Y-109450000D02*
X100690000Y-107989000D01*
X100690000Y-112991000D02*
X100690000Y-111530000D01*
X100730000Y-109450000D02*
X100730000Y-107979000D01*
X100730000Y-113001000D02*
X100730000Y-111530000D01*
X100770000Y-109450000D02*
X100770000Y-107970000D01*
X100770000Y-113010000D02*
X100770000Y-111530000D01*
X100810000Y-109450000D02*
X100810000Y-107962000D01*
X100810000Y-113018000D02*
X100810000Y-111530000D01*
X100850000Y-109450000D02*
X100850000Y-107954000D01*
X100850000Y-113026000D02*
X100850000Y-111530000D01*
X100890000Y-109450000D02*
X100890000Y-107947000D01*
X100890000Y-113033000D02*
X100890000Y-111530000D01*
X100930000Y-109450000D02*
X100930000Y-107940000D01*
X100930000Y-113040000D02*
X100930000Y-111530000D01*
X100970000Y-109450000D02*
X100970000Y-107934000D01*
X100970000Y-113046000D02*
X100970000Y-111530000D01*
X101010000Y-109450000D02*
X101010000Y-107929000D01*
X101010000Y-113051000D02*
X101010000Y-111530000D01*
X101050000Y-109450000D02*
X101050000Y-107925000D01*
X101050000Y-113055000D02*
X101050000Y-111530000D01*
X101090000Y-109450000D02*
X101090000Y-107921000D01*
X101090000Y-113059000D02*
X101090000Y-111530000D01*
X101130000Y-109450000D02*
X101130000Y-107917000D01*
X101130000Y-113063000D02*
X101130000Y-111530000D01*
X101170000Y-109450000D02*
X101170000Y-107914000D01*
X101170000Y-113066000D02*
X101170000Y-111530000D01*
X101210000Y-109450000D02*
X101210000Y-107912000D01*
X101210000Y-113068000D02*
X101210000Y-111530000D01*
X101250000Y-109450000D02*
X101250000Y-107911000D01*
X101250000Y-113069000D02*
X101250000Y-111530000D01*
X101290000Y-109450000D02*
X101290000Y-107910000D01*
X101290000Y-113070000D02*
X101290000Y-111530000D01*
X101330000Y-109450000D02*
X101330000Y-107910000D01*
X101330000Y-113070000D02*
X101330000Y-111530000D01*
X103884775Y-112215000D02*
X103884775Y-111715000D01*
X104134775Y-111965000D02*
X103634775Y-111965000D01*
X103950000Y-110490000D02*
G75*
G02*
X98710000Y-110490000I-2620000J0D01*
G01*
X98710000Y-110490000D02*
G75*
G02*
X103950000Y-110490000I2620000J0D01*
G01*
%TO.C,L1*%
X191120000Y-122222500D02*
G75*
G02*
X183880000Y-122222500I-3620000J0D01*
G01*
X183880000Y-122222500D02*
G75*
G02*
X191120000Y-122222500I3620000J0D01*
G01*
%TO.C,RV1*%
X82560000Y-97985000D02*
X87630000Y-97985000D01*
X82560000Y-107755000D02*
X82560000Y-97985000D01*
X82560000Y-107755000D02*
X87630000Y-107755000D01*
X87630000Y-107755000D02*
X87630000Y-97985000D01*
%TO.C,R17*%
X141050000Y-56730000D02*
X141050000Y-63270000D01*
X141050000Y-63270000D02*
X141380000Y-63270000D01*
X141380000Y-56730000D02*
X141050000Y-56730000D01*
X143460000Y-56730000D02*
X143790000Y-56730000D01*
X143790000Y-56730000D02*
X143790000Y-63270000D01*
X143790000Y-63270000D02*
X143460000Y-63270000D01*
%TO.C,R25*%
X110390000Y-107220000D02*
X110720000Y-107220000D01*
X110390000Y-113760000D02*
X110390000Y-107220000D01*
X110720000Y-113760000D02*
X110390000Y-113760000D01*
X112800000Y-113760000D02*
X113130000Y-113760000D01*
X113130000Y-107220000D02*
X112800000Y-107220000D01*
X113130000Y-113760000D02*
X113130000Y-107220000D01*
%TO.C,RV5*%
X82560000Y-129735000D02*
X87630000Y-129735000D01*
X82560000Y-139505000D02*
X82560000Y-129735000D01*
X82560000Y-139505000D02*
X87630000Y-139505000D01*
X87630000Y-139505000D02*
X87630000Y-129735000D01*
%TO.C,U2*%
X168660000Y-60900000D02*
X168660000Y-96580000D01*
X168660000Y-96580000D02*
X173960000Y-96580000D01*
X170310000Y-60900000D02*
X168660000Y-60900000D01*
X173960000Y-60900000D02*
X172310000Y-60900000D01*
X173960000Y-96580000D02*
X173960000Y-60900000D01*
X172310000Y-60900000D02*
G75*
G02*
X170310000Y-60900000I-1000000J0D01*
G01*
%TD*%
M02*
